<?xml version="1.0" encoding="UTF-8"?>
<svg id="Layer_1" xmlns="http://www.w3.org/2000/svg" version="1.1" viewBox="0 0 192 108">
  <!-- Generator: Adobe Illustrator 29.8.3, SVG Export Plug-In . SVG Version: 2.1.1 Build 3)  -->
  <defs>
    <style>
      .st0 {
        fill: none;
        stroke: #373932;
        stroke-miterlimit: 10;
        stroke-width: .5px;
      }

      .st1 {
        fill: #373932;
      }
    </style>
  </defs>
  <rect class="st0" x="38.07" y="41.64" width="109.08" height="27.61" rx="13.81" ry="13.81"/>
  <g>
    <path class="st1" d="M64.18,53.04v-.25h3.8v.25h-3.8ZM67.08,59.5c-.52,0-.92-.15-1.2-.45s-.41-.7-.41-1.19v-6.52h.26v6.45c0,.47.12.83.35,1.08.23.25.57.37,1.02.37s.82-.14,1.11-.41l.18.18c-.15.16-.35.28-.59.36s-.47.12-.71.12Z"/>
    <path class="st1" d="M72.65,59.5c-.64,0-1.22-.14-1.71-.43-.5-.29-.89-.69-1.18-1.2-.29-.51-.43-1.09-.43-1.75s.13-1.24.4-1.75c.27-.5.63-.9,1.1-1.19.47-.29.99-.43,1.58-.43s1.11.14,1.58.42c.47.28.84.67,1.11,1.17s.41,1.07.41,1.71v.06h-6.03v-.24h5.89l-.1.19c0-.58-.12-1.11-.37-1.57-.25-.46-.59-.83-1.01-1.09-.42-.27-.91-.4-1.46-.4s-1.03.13-1.46.4c-.43.27-.77.63-1.01,1.09s-.37.99-.37,1.57v.05c0,.61.13,1.15.4,1.62.27.47.63.84,1.09,1.11.46.27.99.4,1.58.4.45,0,.87-.09,1.27-.26s.73-.43,1-.77l.18.18c-.29.36-.65.63-1.08.82-.43.18-.88.28-1.37.28Z"/>
    <path class="st1" d="M77.67,59.46v-9.56h.26v9.56h-.26Z"/>
    <path class="st1" d="M83.43,59.5c-.64,0-1.22-.14-1.71-.43-.5-.29-.89-.69-1.18-1.2-.29-.51-.43-1.09-.43-1.75s.13-1.24.4-1.75c.27-.5.63-.9,1.1-1.19.47-.29.99-.43,1.58-.43s1.11.14,1.58.42c.47.28.84.67,1.11,1.17s.41,1.07.41,1.71v.06h-6.03v-.24h5.89l-.1.19c0-.58-.12-1.11-.37-1.57-.25-.46-.59-.83-1.01-1.09-.42-.27-.91-.4-1.46-.4s-1.03.13-1.46.4c-.43.27-.77.63-1.01,1.09s-.37.99-.37,1.57v.05c0,.61.13,1.15.4,1.62.27.47.63.84,1.09,1.11.46.27.99.4,1.58.4.45,0,.87-.09,1.27-.26s.73-.43,1-.77l.18.18c-.29.36-.65.63-1.08.82-.43.18-.88.28-1.37.28Z"/>
    <path class="st1" d="M90.94,59.24c-.62,0-1.17-.14-1.67-.42s-.88-.66-1.17-1.15c-.29-.49-.43-1.05-.43-1.67s.14-1.2.43-1.68c.29-.49.68-.87,1.17-1.14.49-.28,1.05-.41,1.67-.41s1.18.14,1.67.41c.49.27.87.65,1.15,1.14.28.49.42,1.05.42,1.68s-.14,1.18-.42,1.67c-.28.49-.66.87-1.15,1.15s-1.04.42-1.67.42ZM90.94,58.99c.58,0,1.1-.13,1.55-.38s.81-.61,1.07-1.06c.26-.46.39-.97.39-1.56s-.13-1.11-.39-1.56c-.26-.45-.62-.8-1.07-1.05-.45-.25-.97-.38-1.55-.38s-1.09.13-1.55.38c-.46.25-.81.6-1.08,1.05-.26.45-.39.97-.39,1.56s.13,1.1.39,1.56c.26.46.62.81,1.08,1.06.46.25.97.38,1.55.38ZM91.13,62c-.6,0-1.16-.1-1.69-.3s-.94-.47-1.26-.81l.18-.18c.34.33.75.59,1.22.77.47.18.99.27,1.55.27.96,0,1.67-.23,2.13-.68s.69-1.18.69-2.16v-2.14l.13-.77-.13-.77v-2.42h.26v6.07c0,1.07-.26,1.86-.77,2.37s-1.28.76-2.31.76Z"/>
    <path class="st1" d="M97.17,59.46v-6.66h.26v1.84l-.03-.04c.18-.58.5-1.04.95-1.36.45-.32,1.02-.48,1.69-.48v.26h-.08c-.8,0-1.42.26-1.87.77-.45.51-.67,1.21-.67,2.09v3.58h-.26Z"/>
    <path class="st1" d="M103.37,59.5c-.5,0-.92-.08-1.28-.23-.35-.15-.62-.37-.81-.66-.18-.28-.28-.61-.28-.98,0-.32.08-.61.23-.88.15-.27.4-.49.74-.66.34-.17.81-.25,1.4-.25h2.67v.25h-2.68c-.76,0-1.29.14-1.62.43s-.48.65-.48,1.1c0,.5.18.89.55,1.19.37.3.88.44,1.55.44s1.17-.15,1.59-.44c.42-.3.73-.71.95-1.26l.13.17c-.18.53-.5.96-.95,1.29-.45.33-1.02.49-1.72.49ZM105.91,59.46v-4.35c0-.7-.18-1.22-.54-1.57-.36-.35-.88-.53-1.57-.53-.5,0-.95.09-1.37.26s-.76.4-1.06.67l-.18-.18c.32-.3.7-.54,1.16-.72.46-.18.93-.27,1.43-.27.77,0,1.36.2,1.77.59.41.4.61.98.61,1.74v4.37h-.26Z"/>
    <path class="st1" d="M109.05,59.46v-6.66h.26v1.88l-.03-.04c.19-.58.52-1.03.99-1.37.47-.34,1.06-.51,1.75-.51s1.25.17,1.7.52.73.87.84,1.55h-.04c.16-.62.49-1.12.97-1.5.49-.38,1.1-.57,1.84-.57.53,0,.99.1,1.38.32.39.21.68.52.9.93.21.41.32.92.32,1.52v3.93h-.26v-3.93c0-.83-.2-1.45-.61-1.88-.41-.43-.98-.64-1.71-.64-.57,0-1.05.12-1.46.35-.41.24-.72.57-.94.99-.22.42-.33.92-.33,1.49v3.62h-.26v-3.93c0-.83-.2-1.45-.61-1.88s-.98-.64-1.71-.64c-.57,0-1.05.12-1.46.35-.41.24-.72.57-.94.99-.22.42-.33.92-.33,1.49v3.62h-.26Z"/>
  </g>
  <circle class="st1" cx="133.97" cy="55.44" r="2.66"/>
</svg>