<?xml version="1.0" encoding="UTF-8"?>
<svg id="Layer_1" xmlns="http://www.w3.org/2000/svg" version="1.1" viewBox="0 0 130 35">
  <!-- Generator: Adobe Illustrator 29.8.3, SVG Export Plug-In . SVG Version: 2.1.1 Build 3)  -->
  <defs>
    <style>
      .st0 {
        fill: none;
        stroke: #373932;
        stroke-miterlimit: 10;
        stroke-width: .5px;
      }

      .st1 {
        fill: #373932;
      }
    </style>
  </defs>
  <rect class="st0" x="10.23" y="3.38" width="109.08" height="27.61" rx="13.81" ry="13.81"/>
  <g>
    <path class="st1" d="M36.17,14.89v-.37h3.89v.37h-3.89ZM39.14,21.24c-.55,0-.97-.16-1.26-.46-.29-.31-.44-.73-.44-1.25v-6.48h.43v6.42c0,.46.11.8.33,1.04.22.24.55.36.98.36s.8-.13,1.08-.4l.22.31c-.16.15-.37.27-.61.35s-.49.12-.73.12Z"/>
    <path class="st1" d="M44.74,21.24c-.66,0-1.25-.14-1.75-.43-.51-.29-.91-.69-1.2-1.21-.29-.51-.44-1.1-.44-1.75s.14-1.25.41-1.75.64-.91,1.12-1.2c.48-.29,1.02-.44,1.62-.44s1.13.14,1.6.42.85.68,1.12,1.18c.27.5.41,1.08.41,1.73v.12h-5.99v-.35h5.76l-.17.21c0-.56-.12-1.06-.35-1.5-.24-.44-.56-.79-.97-1.04s-.88-.38-1.4-.38-.99.13-1.4.38c-.41.25-.74.6-.97,1.04-.24.44-.35.95-.35,1.51v.08c0,.58.13,1.1.39,1.55.26.45.61.8,1.06,1.06.45.25.96.38,1.53.38.44,0,.85-.08,1.24-.25.39-.16.72-.41.97-.75l.27.28c-.3.36-.67.63-1.1.82-.43.18-.9.28-1.39.28Z"/>
    <path class="st1" d="M49.73,21.21v-9.56h.43v9.56h-.43Z"/>
    <path class="st1" d="M55.64,21.24c-.66,0-1.25-.14-1.75-.43-.51-.29-.91-.69-1.2-1.21-.29-.51-.44-1.1-.44-1.75s.14-1.25.41-1.75.64-.91,1.12-1.2c.48-.29,1.02-.44,1.62-.44s1.13.14,1.6.42.85.68,1.12,1.18c.27.5.41,1.08.41,1.73v.12h-5.99v-.35h5.76l-.17.21c0-.56-.12-1.06-.35-1.5-.24-.44-.56-.79-.97-1.04s-.88-.38-1.4-.38-.99.13-1.4.38c-.41.25-.74.6-.97,1.04-.24.44-.35.95-.35,1.51v.08c0,.58.13,1.1.39,1.55.26.45.61.8,1.06,1.06.45.25.96.38,1.53.38.44,0,.85-.08,1.24-.25.39-.16.72-.41.97-.75l.27.28c-.3.36-.67.63-1.1.82-.43.18-.9.28-1.39.28Z"/>
    <path class="st1" d="M63.17,20.97c-.63,0-1.19-.14-1.69-.42s-.89-.66-1.19-1.15-.44-1.05-.44-1.69.15-1.2.44-1.69.69-.87,1.19-1.15c.5-.27,1.06-.41,1.69-.41s1.17.13,1.65.41c.48.27.86.65,1.15,1.13.28.49.43,1.05.43,1.71s-.14,1.22-.43,1.71c-.28.49-.67.87-1.15,1.14s-1.03.41-1.65.41ZM63.19,20.59c.57,0,1.07-.12,1.5-.36.43-.24.77-.58,1.02-1.02.25-.44.37-.94.37-1.49s-.12-1.06-.37-1.49c-.25-.43-.59-.76-1.02-1-.43-.24-.93-.36-1.5-.36s-1.04.12-1.48.36c-.44.24-.78.57-1.04,1-.25.42-.38.92-.38,1.49s.13,1.06.38,1.49c.25.44.6.78,1.04,1.02.44.24.93.36,1.48.36ZM63.36,23.74c-.6,0-1.17-.1-1.71-.29-.54-.19-.97-.46-1.29-.79l.25-.32c.34.33.75.58,1.22.75.47.18.98.26,1.52.26.94,0,1.63-.22,2.07-.66.45-.44.67-1.14.67-2.08v-2.02l.13-.88-.12-.88v-2.32h.41v6.04c0,1.09-.26,1.89-.79,2.41-.52.52-1.31.77-2.37.77Z"/>
    <path class="st1" d="M69.37,21.21v-6.69h.41v1.84l-.04-.12c.18-.56.5-.99.95-1.31.45-.31,1.02-.47,1.69-.47v.42h-.12c-.77,0-1.38.25-1.82.73-.44.49-.66,1.16-.66,2.02v3.56h-.42Z"/>
    <path class="st1" d="M75.67,21.24c-.51,0-.94-.08-1.29-.23s-.63-.38-.82-.66c-.19-.29-.28-.62-.28-.99,0-.33.08-.63.23-.91s.41-.5.77-.67c.36-.17.83-.25,1.44-.25h2.59v.35h-2.59c-.73,0-1.25.14-1.55.41-.3.27-.46.62-.46,1.04,0,.47.18.85.53,1.13.35.28.84.42,1.47.42s1.13-.14,1.53-.42c.4-.28.71-.68.92-1.19l.14.28c-.17.51-.48.91-.93,1.22-.45.31-1.01.46-1.69.46ZM78.16,21.21v-1.79s-.01-2.54-.01-2.54c0-.66-.18-1.16-.53-1.51-.35-.34-.86-.51-1.53-.51-.49,0-.94.08-1.34.25-.4.17-.75.38-1.04.65l-.23-.31c.32-.3.71-.54,1.17-.72.46-.18.95-.26,1.46-.26.8,0,1.41.2,1.84.61.43.41.64,1.01.64,1.8v4.33h-.41Z"/>
    <path class="st1" d="M81.35,21.21v-6.69h.41v1.87l-.05-.12c.2-.55.53-.99.99-1.31.46-.33,1.03-.49,1.71-.49s1.26.17,1.71.52c.45.34.73.86.84,1.55l-.12-.05c.17-.59.5-1.08.99-1.45.49-.37,1.1-.56,1.83-.56.54,0,1.01.11,1.4.32s.69.53.91.95c.21.42.32.93.32,1.54v3.93h-.42v-3.9c0-.8-.2-1.4-.59-1.82-.39-.41-.94-.62-1.64-.62-.53,0-1,.11-1.39.33-.4.22-.7.54-.91.95-.21.41-.32.89-.32,1.44v3.61h-.42v-3.9c0-.8-.19-1.4-.58-1.82s-.93-.62-1.64-.62c-.54,0-1.01.11-1.4.33s-.69.54-.9.95c-.21.41-.32.89-.32,1.44v3.61h-.43Z"/>
  </g>
  <circle class="st1" cx="106.14" cy="17.19" r="2.66"/>
</svg>