<?xml version="1.0" encoding="UTF-8"?>
<svg id="Layer_1" xmlns="http://www.w3.org/2000/svg" version="1.1" viewBox="0 0 430 108">
  <!-- Generator: Adobe Illustrator 29.8.3, SVG Export Plug-In . SVG Version: 2.1.1 Build 3)  -->
  <defs>
    <style>
      .st0 {
        fill: #373932;
      }
    </style>
  </defs>
  <path class="st0" d="M119.66,58.35v-11.82h.34v11.82h-.34Z"/>
  <path class="st0" d="M124.91,58.35v-11.82h.29l8.85,11.43h-.19v-11.43h.34v11.82h-.29l-8.85-11.43h.19v11.43h-.34Z"/>
  <path class="st0" d="M146.31,58.35l5.49-11.82h.34l5.49,11.82h-.39l-5.35-11.55h.17l-5.35,11.55h-.39ZM148.11,54.78l.17-.32h7.35l.17.32h-7.68Z"/>
  <path class="st0" d="M164.65,58.4c-1.41,0-2.52-.42-3.33-1.25s-1.22-2.08-1.22-3.75v-6.87h.34v6.86c0,1.58.37,2.75,1.11,3.53.74.78,1.78,1.17,3.12,1.17s2.38-.39,3.12-1.17c.74-.78,1.11-1.95,1.11-3.53v-6.86h.34v6.87c0,1.67-.41,2.92-1.22,3.75-.82.83-1.93,1.25-3.34,1.25Z"/>
  <path class="st0" d="M174.02,58.35v-11.82h4c1.45,0,2.59.34,3.41,1.02.82.68,1.23,1.64,1.23,2.86,0,.81-.19,1.51-.56,2.09-.37.58-.9,1.02-1.6,1.33s-1.52.46-2.49.46h-3.82l.15-.15v4.21h-.34ZM174.36,54.11l-.15-.13h3.85c1.38,0,2.44-.31,3.17-.94.73-.62,1.1-1.5,1.1-2.63s-.37-2.02-1.1-2.63c-.73-.62-1.79-.93-3.17-.93h-3.85l.15-.14v7.4ZM182.41,58.35l-3.09-4.29h.42l3.09,4.29h-.42Z"/>
  <path class="st0" d="M184.44,58.35l5.49-11.82h.34l5.49,11.82h-.39l-5.35-11.55h.17l-5.35,11.55h-.39ZM186.25,54.78l.17-.32h7.35l.17.32h-7.68Z"/>
  <path class="st0" d="M210.43,58.35l-4.05-11.82h.37l3.95,11.55h-.19l4.05-11.55h.34l4.05,11.55h-.17l3.95-11.55h.35l-4.05,11.82h-.34l-4-11.45h.07l-4,11.45h-.34Z"/>
  <path class="st0" d="M226.27,58.35v-11.82h7.62v.32h-7.28v11.18h7.53v.32h-7.87ZM226.52,52.5v-.32h6.6v.32h-6.6Z"/>
  <path class="st0" d="M249.47,58.35v-11.5h-4.39v-.32h9.12v.32h-4.39v11.5h-.34Z"/>
  <path class="st0" d="M256.94,58.35v-11.82h4c1.45,0,2.59.34,3.41,1.02.82.68,1.23,1.64,1.23,2.86,0,.81-.19,1.51-.56,2.09-.37.58-.9,1.02-1.6,1.33s-1.52.46-2.49.46h-3.82l.15-.15v4.21h-.34ZM257.27,54.11l-.15-.13h3.85c1.38,0,2.44-.31,3.17-.94.73-.62,1.1-1.5,1.1-2.63s-.37-2.02-1.1-2.63c-.73-.62-1.79-.93-3.17-.93h-3.85l.15-.14v7.4ZM265.33,58.35l-3.09-4.29h.42l3.09,4.29h-.42Z"/>
  <path class="st0" d="M267.36,58.35l5.49-11.82h.34l5.49,11.82h-.39l-5.35-11.55h.17l-5.35,11.55h-.39ZM269.16,54.78l.17-.32h7.35l.17.32h-7.68Z"/>
  <path class="st0" d="M281.49,58.35v-11.82h4.48c1.25,0,2.34.26,3.28.77s1.66,1.21,2.18,2.1c.52.89.78,1.9.78,3.04s-.26,2.15-.78,3.04c-.52.89-1.24,1.59-2.18,2.1-.93.51-2.03.77-3.28.77h-4.48ZM281.83,58.03h4.1c1.2,0,2.25-.24,3.14-.73.89-.48,1.58-1.15,2.06-1.98s.73-1.8.73-2.88-.24-2.04-.73-2.88c-.48-.84-1.17-1.5-2.06-1.98-.89-.48-1.94-.73-3.14-.73h-4.1v11.18Z"/>
  <path class="st0" d="M295.86,58.35v-11.82h7.62v.32h-7.28v11.18h7.53v.32h-7.87ZM296.11,52.5v-.32h6.6v.32h-6.6Z"/>
</svg>