<?xml version="1.0" encoding="UTF-8"?>
<svg id="Layer_1" xmlns="http://www.w3.org/2000/svg" version="1.1" viewBox="0 0 130 35">
  <!-- Generator: Adobe Illustrator 29.8.3, SVG Export Plug-In . SVG Version: 2.1.1 Build 3)  -->
  <defs>
    <style>
      .st0 {
        fill: #231f20;
      }

      .st1 {
        fill: none;
        stroke: #373932;
        stroke-miterlimit: 10;
        stroke-width: .5px;
      }

      .st2 {
        fill: #373932;
      }
    </style>
  </defs>
  <circle class="st0" cx="105.1" cy="17.19" r="2.66"/>
  <rect class="st1" x="10.23" y="3.38" width="109.08" height="27.61" rx="13.81" ry="13.81"/>
  <g>
    <path class="st2" d="M55.39,21.6v-9.56h.43v5.18l-.13,1.02.12,1.02v2.34h-.41ZM58.69,21.64c-.6,0-1.14-.14-1.62-.42s-.86-.68-1.14-1.19c-.28-.52-.42-1.11-.42-1.78s.14-1.27.42-1.78c.28-.51.66-.9,1.14-1.19s1.02-.42,1.62-.42,1.17.15,1.67.44c.49.29.88.69,1.17,1.19.29.5.43,1.09.43,1.76s-.14,1.25-.43,1.76c-.29.51-.68.91-1.17,1.2-.49.29-1.05.43-1.67.43ZM58.67,21.25c.54,0,1.03-.13,1.46-.38.43-.25.77-.61,1.02-1.06.25-.46.37-.97.37-1.56s-.12-1.11-.37-1.56c-.25-.45-.59-.8-1.02-1.05-.43-.25-.92-.37-1.46-.37s-1.04.12-1.47.37c-.43.25-.77.6-1.02,1.05-.25.45-.37.97-.37,1.56s.12,1.1.37,1.56c.25.46.59.81,1.02,1.06.43.25.92.38,1.47.38Z"/>
    <path class="st2" d="M66.58,21.64c-.63,0-1.19-.14-1.68-.43-.49-.29-.88-.69-1.17-1.2-.29-.51-.43-1.1-.43-1.76s.14-1.25.43-1.75c.29-.51.68-.91,1.17-1.2.49-.29,1.05-.44,1.68-.44s1.19.14,1.69.43.89.68,1.17,1.19c.28.51.43,1.09.43,1.77s-.14,1.24-.43,1.75c-.28.52-.67.92-1.17,1.21-.5.29-1.06.43-1.69.43ZM66.58,21.25c.55,0,1.04-.13,1.47-.38.43-.25.77-.61,1.02-1.06.25-.46.37-.97.37-1.56s-.12-1.11-.37-1.56c-.24-.45-.58-.8-1.02-1.05-.43-.25-.92-.37-1.46-.37s-1.04.12-1.47.37c-.43.25-.77.6-1.02,1.05-.25.45-.38.97-.38,1.56s.13,1.1.38,1.56c.25.46.59.81,1.02,1.06.43.25.91.38,1.46.38Z"/>
    <path class="st2" d="M70.82,15.29v-.37h3.89v.37h-3.89ZM73.78,21.64c-.55,0-.97-.16-1.26-.46-.29-.31-.44-.73-.44-1.25v-6.48h.42v6.42c0,.46.11.8.33,1.04s.55.36.98.36.8-.13,1.08-.4l.22.31c-.16.15-.37.27-.61.35s-.49.12-.73.12Z"/>
  </g>
  <circle class="st2" cx="105.1" cy="17.19" r="2.66"/>
</svg>