<?xml version="1.0" encoding="UTF-8"?>
<svg id="Layer_1" xmlns="http://www.w3.org/2000/svg" version="1.1" viewBox="0 0 192 108">
  <!-- Generator: Adobe Illustrator 29.8.3, SVG Export Plug-In . SVG Version: 2.1.1 Build 3)  -->
  <defs>
    <style>
      .st0 {
        fill: #231f20;
      }

      .st1 {
        fill: none;
        stroke: #373932;
        stroke-miterlimit: 10;
        stroke-width: .5px;
      }

      .st2 {
        fill: #373932;
      }
    </style>
  </defs>
  <circle class="st0" cx="136.81" cy="54.27" r="2.66"/>
  <rect class="st1" x="41.95" y="40.46" width="109.08" height="27.61" rx="13.81" ry="13.81"/>
  <g>
    <path class="st2" d="M87.22,58.68v-9.56h.26v5.31l-.13.9.13.9v2.45h-.26ZM90.45,58.72c-.61,0-1.16-.14-1.64-.43-.48-.29-.86-.69-1.14-1.2-.28-.51-.42-1.09-.42-1.75s.14-1.24.42-1.75c.28-.5.66-.9,1.14-1.19.48-.29,1.03-.43,1.64-.43s1.16.14,1.65.43c.49.29.88.68,1.16,1.19.28.5.43,1.08.43,1.75s-.14,1.24-.43,1.75c-.28.51-.67.91-1.16,1.2-.49.29-1.04.43-1.65.43ZM90.45,58.48c.57,0,1.08-.13,1.53-.4.45-.27.81-.64,1.06-1.11.26-.47.39-1.01.39-1.62s-.13-1.16-.39-1.63-.61-.83-1.06-1.09c-.45-.26-.96-.39-1.53-.39s-1.08.13-1.53.39c-.45.26-.81.63-1.06,1.09s-.39,1.01-.39,1.63.13,1.15.39,1.62c.26.47.61.84,1.06,1.11.45.27.96.4,1.53.4Z"/>
    <path class="st2" d="M98.31,58.72c-.62,0-1.17-.14-1.65-.43-.49-.29-.87-.69-1.15-1.2-.28-.51-.42-1.09-.42-1.75s.14-1.24.42-1.75c.28-.5.67-.9,1.15-1.19.48-.29,1.04-.43,1.65-.43s1.17.14,1.66.43c.49.29.87.68,1.15,1.19.28.5.42,1.08.42,1.75s-.14,1.24-.42,1.75-.66.91-1.15,1.2c-.49.29-1.04.43-1.66.43ZM98.31,58.48c.57,0,1.08-.13,1.53-.4.45-.27.81-.64,1.06-1.11.26-.47.39-1.01.39-1.62s-.13-1.16-.39-1.63c-.26-.47-.61-.83-1.06-1.09-.45-.26-.96-.39-1.53-.39s-1.07.13-1.52.39c-.45.26-.8.63-1.06,1.09-.26.47-.39,1.01-.39,1.63s.13,1.15.39,1.62c.26.47.62.84,1.06,1.11.45.27.95.4,1.52.4Z"/>
    <path class="st2" d="M102.53,52.27v-.25h3.8v.25h-3.8ZM105.43,58.72c-.52,0-.92-.15-1.2-.45-.28-.3-.41-.7-.41-1.19v-6.52h.26v6.45c0,.47.12.83.35,1.08.23.25.57.37,1.02.37s.82-.14,1.11-.41l.18.18c-.15.16-.35.28-.59.36s-.47.12-.71.12Z"/>
  </g>
  <circle class="st2" cx="136.81" cy="54.27" r="2.66"/>
</svg>