<?xml version="1.0" encoding="UTF-8"?>
<svg id="Layer_1" xmlns="http://www.w3.org/2000/svg" version="1.1" viewBox="0 0 192 108">
  <!-- Generator: Adobe Illustrator 29.8.3, SVG Export Plug-In . SVG Version: 2.1.1 Build 3)  -->
  <defs>
    <style>
      .st0 {
        fill: none;
        stroke: #373932;
        stroke-miterlimit: 10;
        stroke-width: .5px;
      }

      .st1 {
        fill: #373932;
      }
    </style>
  </defs>
  <rect class="st0" x="38.07" y="41.64" width="109.08" height="27.61" rx="13.81" ry="13.81"/>
  <g>
    <path class="st1" d="M69.63,59.46v-6.66h.26v1.88l-.03-.04c.19-.58.52-1.03.99-1.37.47-.34,1.06-.51,1.75-.51s1.25.17,1.7.52c.45.35.73.87.84,1.55h-.04c.16-.62.49-1.12.97-1.5.49-.38,1.1-.57,1.84-.57.53,0,.99.1,1.38.32.39.21.69.52.9.93.21.41.32.92.32,1.52v3.93h-.26v-3.93c0-.82-.2-1.45-.61-1.88s-.98-.64-1.71-.64c-.57,0-1.05.12-1.46.35s-.72.57-.94.99c-.22.42-.33.92-.33,1.49v3.62h-.26v-3.93c0-.82-.2-1.45-.61-1.88s-.98-.64-1.71-.64c-.57,0-1.05.12-1.46.35s-.72.57-.94.99c-.22.42-.33.92-.33,1.49v3.62h-.26Z"/>
    <path class="st1" d="M85.1,59.5c-.5,0-.92-.08-1.28-.23-.35-.15-.62-.37-.8-.66-.18-.28-.28-.61-.28-.98,0-.32.08-.61.23-.88s.4-.49.74-.66c.34-.17.81-.25,1.4-.25h2.67v.25h-2.68c-.76,0-1.29.14-1.62.43s-.48.65-.48,1.1c0,.5.18.89.55,1.19.37.3.88.44,1.55.44s1.17-.15,1.59-.44c.42-.3.73-.71.95-1.26l.13.17c-.18.53-.5.96-.95,1.29-.45.33-1.02.49-1.72.49ZM87.64,59.46v-4.35c0-.69-.18-1.22-.54-1.57-.36-.35-.88-.53-1.57-.53-.5,0-.95.09-1.37.26-.41.17-.76.4-1.06.67l-.18-.18c.32-.3.7-.54,1.16-.72.46-.18.93-.27,1.43-.27.77,0,1.36.2,1.77.59.41.4.61.98.61,1.74v4.37h-.26Z"/>
    <path class="st1" d="M90.78,59.46v-6.66h.26v1.89l-.03-.04c.2-.58.54-1.05,1.02-1.38.48-.34,1.08-.51,1.8-.51.55,0,1.02.1,1.42.32.4.21.7.52.92.93.22.41.33.92.33,1.52v3.93h-.26v-3.93c0-.82-.21-1.45-.63-1.88-.42-.43-1.01-.64-1.76-.64-.58,0-1.09.12-1.51.35s-.74.57-.97.99c-.22.42-.33.92-.33,1.49v3.62h-.26Z"/>
    <path class="st1" d="M102.04,59.5c-.57,0-1.05-.11-1.46-.32-.41-.21-.72-.52-.94-.93s-.33-.92-.33-1.52v-3.93h.26v3.93c0,.83.21,1.45.64,1.88.43.43,1.04.64,1.82.64.56,0,1.04-.12,1.44-.35.4-.24.71-.57.93-1s.32-.92.32-1.48v-3.62h.26v6.66h-.26v-1.88l.03.04c-.19.58-.52,1.03-.98,1.37-.46.34-1.04.51-1.73.51Z"/>
    <path class="st1" d="M109.65,59.5c-.5,0-.92-.08-1.28-.23-.35-.15-.62-.37-.8-.66-.18-.28-.28-.61-.28-.98,0-.32.08-.61.23-.88s.4-.49.74-.66c.34-.17.81-.25,1.4-.25h2.67v.25h-2.68c-.76,0-1.29.14-1.62.43s-.48.65-.48,1.1c0,.5.18.89.55,1.19.37.3.88.44,1.55.44s1.17-.15,1.59-.44c.42-.3.73-.71.95-1.26l.13.17c-.18.53-.5.96-.95,1.29-.45.33-1.02.49-1.72.49ZM112.19,59.46v-4.35c0-.69-.18-1.22-.54-1.57-.36-.35-.88-.53-1.57-.53-.5,0-.95.09-1.37.26-.41.17-.76.4-1.06.67l-.18-.18c.32-.3.7-.54,1.16-.72.46-.18.93-.27,1.43-.27.77,0,1.36.2,1.77.59.41.4.61.98.61,1.74v4.37h-.26Z"/>
    <path class="st1" d="M115.33,59.46v-9.56h.26v9.56h-.26Z"/>
  </g>
  <circle class="st1" cx="133.82" cy="55.44" r="2.66"/>
</svg>