<?xml version="1.0" encoding="UTF-8"?>
<svg id="Layer_1" xmlns="http://www.w3.org/2000/svg" version="1.1" viewBox="0 0 130 35">
  <!-- Generator: Adobe Illustrator 29.8.3, SVG Export Plug-In . SVG Version: 2.1.1 Build 3)  -->
  <defs>
    <style>
      .st0 {
        fill: none;
        stroke: #373932;
        stroke-miterlimit: 10;
        stroke-width: .5px;
      }

      .st1 {
        fill: #373932;
      }
    </style>
  </defs>
  <rect class="st0" x="10.23" y="3.38" width="109.08" height="27.61" rx="13.81" ry="13.81"/>
  <g>
    <path class="st1" d="M41.64,21.21v-6.69h.41v1.87l-.05-.12c.2-.55.53-.99.99-1.31.46-.33,1.04-.49,1.71-.49s1.26.17,1.71.52c.45.34.73.86.84,1.55l-.12-.05c.17-.59.5-1.08.99-1.45.49-.37,1.1-.56,1.83-.56.54,0,1.01.11,1.4.32s.69.53.91.95c.21.42.32.93.32,1.54v3.93h-.43v-3.9c0-.8-.2-1.4-.59-1.82s-.94-.62-1.64-.62c-.53,0-1,.11-1.39.33-.4.22-.7.54-.91.95-.21.41-.32.89-.32,1.44v3.61h-.43v-3.9c0-.8-.19-1.4-.58-1.82-.39-.41-.93-.62-1.64-.62-.54,0-1.01.11-1.4.33s-.69.54-.9.95c-.21.41-.32.89-.32,1.44v3.61h-.43Z"/>
    <path class="st1" d="M57.14,21.25c-.51,0-.94-.08-1.29-.23s-.63-.38-.82-.66-.28-.62-.28-.99c0-.33.08-.63.23-.91.16-.28.41-.5.77-.67.36-.17.83-.25,1.44-.25h2.59v.35h-2.59c-.73,0-1.25.14-1.55.41-.3.27-.46.62-.46,1.04,0,.47.18.85.53,1.13.35.28.84.42,1.47.42s1.13-.14,1.53-.42c.4-.28.71-.68.91-1.19l.14.28c-.17.51-.48.91-.93,1.22-.45.31-1.01.46-1.69.46ZM59.63,21.21v-1.79s-.01-2.54-.01-2.54c0-.66-.18-1.16-.53-1.51-.35-.34-.86-.51-1.53-.51-.49,0-.94.08-1.34.25-.4.17-.75.38-1.04.65l-.23-.31c.32-.3.71-.54,1.17-.72.46-.18.95-.26,1.46-.26.8,0,1.41.2,1.83.61.43.41.64,1.01.64,1.8v4.33h-.41Z"/>
    <path class="st1" d="M62.82,21.21v-6.69h.41v1.88l-.05-.12c.21-.56.55-1,1.02-1.33.48-.33,1.07-.49,1.77-.49.55,0,1.02.11,1.42.32s.71.53.93.95c.22.42.33.93.33,1.54v3.93h-.42v-3.9c0-.8-.2-1.4-.61-1.82-.4-.41-.97-.62-1.7-.62-.56,0-1.04.11-1.44.33s-.71.54-.93.95-.32.89-.32,1.44v3.61h-.43Z"/>
    <path class="st1" d="M74.14,21.25c-.58,0-1.07-.11-1.48-.32-.41-.21-.73-.52-.95-.94-.22-.42-.33-.93-.33-1.54v-3.93h.42v3.9c0,.8.21,1.4.62,1.82.41.41.99.62,1.74.62.53,0,.99-.11,1.38-.34.39-.23.69-.55.9-.96.21-.41.31-.89.31-1.43v-3.61h.42v6.69h-.41v-1.87l.05.12c-.19.55-.52.99-.98,1.31s-1.03.48-1.69.48Z"/>
    <path class="st1" d="M81.79,21.25c-.51,0-.94-.08-1.29-.23s-.63-.38-.82-.66-.28-.62-.28-.99c0-.33.08-.63.23-.91.16-.28.41-.5.77-.67.36-.17.83-.25,1.44-.25h2.59v.35h-2.59c-.73,0-1.25.14-1.55.41-.3.27-.46.62-.46,1.04,0,.47.18.85.53,1.13.35.28.84.42,1.47.42s1.13-.14,1.53-.42c.4-.28.71-.68.91-1.19l.14.28c-.17.51-.48.91-.93,1.22-.45.31-1.01.46-1.69.46ZM84.28,21.21v-1.79s-.01-2.54-.01-2.54c0-.66-.18-1.16-.53-1.51-.35-.34-.86-.51-1.53-.51-.49,0-.94.08-1.34.25-.4.17-.75.38-1.04.65l-.23-.31c.32-.3.71-.54,1.17-.72.46-.18.95-.26,1.46-.26.8,0,1.41.2,1.83.61.43.41.64,1.01.64,1.8v4.33h-.41Z"/>
    <path class="st1" d="M87.48,21.21v-9.56h.43v9.56h-.43Z"/>
  </g>
  <circle class="st1" cx="105.98" cy="17.19" r="2.66"/>
</svg>