<?xml version="1.0" encoding="UTF-8"?>
<svg id="Layer_1" xmlns="http://www.w3.org/2000/svg" version="1.1" viewBox="0 0 430 108">
  <!-- Generator: Adobe Illustrator 29.8.3, SVG Export Plug-In . SVG Version: 2.1.1 Build 3)  -->
  <defs>
    <style>
      .st0 {
        fill: none;
        stroke: #373932;
        stroke-miterlimit: 10;
        stroke-width: .5px;
      }

      .st1 {
        fill: #373932;
      }
    </style>
  </defs>
  <rect class="st0" x="90.99" y="40.19" width="248.03" height="27.61" rx="13.81" ry="13.81"/>
  <g>
    <path class="st1" d="M178.39,58.45c-.54,0-1.05-.09-1.52-.26s-.83-.39-1.08-.66l.15-.21c.24.23.58.44,1,.61.43.18.91.26,1.44.26.79,0,1.36-.14,1.7-.41.34-.28.52-.63.52-1.07,0-.32-.08-.57-.24-.75s-.38-.33-.65-.42-.57-.18-.9-.24c-.33-.06-.65-.12-.98-.19-.33-.07-.62-.17-.9-.29-.27-.12-.49-.3-.65-.51-.16-.22-.24-.51-.24-.88,0-.3.08-.58.24-.84.16-.26.42-.47.77-.63s.8-.24,1.35-.24c.41,0,.82.06,1.22.19.4.12.73.29.98.5l-.15.21c-.27-.21-.58-.38-.94-.48-.36-.11-.73-.16-1.11-.16-.73,0-1.26.14-1.59.42-.33.28-.5.63-.5,1.04,0,.33.08.59.24.78s.38.34.65.44c.27.1.57.18.9.25.33.06.65.12.97.19.32.07.62.16.89.28s.49.29.65.5c.16.21.24.5.24.86,0,.33-.09.63-.27.9s-.45.47-.82.61c-.37.15-.83.22-1.38.22Z"/>
    <path class="st1" d="M182.82,58.41v-9.56h.26v4.79l-.03-.04c.2-.58.54-1.05,1.02-1.38.48-.34,1.08-.51,1.8-.51.55,0,1.02.1,1.42.32.39.21.7.52.92.93.22.41.33.92.33,1.52v3.93h-.26v-3.93c0-.83-.21-1.45-.63-1.88s-1.01-.64-1.76-.64c-.58,0-1.09.12-1.51.35s-.74.57-.97.99c-.22.42-.33.92-.33,1.49v3.62h-.26Z"/>
    <path class="st1" d="M191.43,58.41v-6.66h.26v1.84l-.03-.04c.18-.58.5-1.04.95-1.36s1.02-.48,1.69-.48v.26h-.08c-.8,0-1.42.26-1.87.77-.45.51-.67,1.21-.67,2.09v3.58h-.26Z"/>
    <path class="st1" d="M198.7,58.45c-.64,0-1.22-.14-1.71-.43-.5-.29-.89-.69-1.18-1.2-.29-.51-.43-1.09-.43-1.75s.13-1.24.4-1.75c.27-.5.63-.9,1.1-1.19.47-.29.99-.43,1.58-.43s1.11.14,1.58.42c.47.28.84.67,1.11,1.17s.41,1.07.41,1.71v.06h-6.03v-.24h5.89l-.1.19c0-.58-.12-1.11-.37-1.57-.25-.46-.59-.83-1.01-1.09-.42-.27-.91-.4-1.46-.4s-1.03.13-1.46.4c-.43.27-.77.63-1.01,1.09s-.37.99-.37,1.57v.05c0,.61.13,1.15.4,1.62.27.47.63.84,1.09,1.11.46.27.99.4,1.58.4.45,0,.87-.09,1.27-.26s.73-.43,1-.77l.18.18c-.29.36-.65.63-1.08.82-.43.18-.88.28-1.37.28Z"/>
    <path class="st1" d="M206.18,58.45c-.61,0-1.16-.14-1.65-.43-.49-.29-.88-.69-1.16-1.2-.28-.51-.42-1.09-.42-1.75s.14-1.24.42-1.75c.28-.5.67-.9,1.16-1.19.49-.29,1.04-.43,1.65-.43s1.15.14,1.64.43c.48.29.86.68,1.14,1.19.28.5.42,1.08.42,1.75s-.14,1.24-.42,1.75c-.28.51-.66.91-1.14,1.2-.48.29-1.03.43-1.64.43ZM206.18,58.21c.57,0,1.08-.13,1.53-.4.45-.27.81-.64,1.06-1.11.26-.47.39-1.01.39-1.62s-.13-1.16-.39-1.63c-.26-.47-.61-.83-1.06-1.09-.45-.26-.96-.39-1.53-.39s-1.07.13-1.52.39c-.45.26-.8.63-1.06,1.09-.26.47-.39,1.01-.39,1.63s.13,1.15.39,1.62c.26.47.62.84,1.06,1.11.45.27.95.4,1.52.4ZM209.15,58.41v-2.45l.13-.9-.13-.9v-5.31h.26v9.56h-.26Z"/>
    <path class="st1" d="M213.9,58.45c-.54,0-1.05-.09-1.52-.26s-.83-.39-1.08-.66l.15-.21c.24.23.58.44,1,.61.43.18.91.26,1.44.26.79,0,1.36-.14,1.7-.41.34-.28.52-.63.52-1.07,0-.32-.08-.57-.24-.75-.16-.18-.38-.33-.65-.42s-.57-.18-.9-.24c-.33-.06-.65-.12-.98-.19-.33-.07-.62-.17-.9-.29-.27-.12-.49-.3-.65-.51-.16-.22-.24-.51-.24-.88,0-.3.08-.58.24-.84.16-.26.42-.47.77-.63s.8-.24,1.35-.24c.41,0,.82.06,1.22.19.4.12.73.29.98.5l-.15.21c-.27-.21-.58-.38-.94-.48-.36-.11-.73-.16-1.11-.16-.73,0-1.26.14-1.59.42-.33.28-.5.63-.5,1.04,0,.33.08.59.24.78s.38.34.65.44c.27.1.57.18.9.25.33.06.65.12.97.19.32.07.62.16.89.28s.49.29.65.5c.16.21.25.5.25.86,0,.33-.09.63-.27.9-.18.26-.45.47-.82.61-.37.15-.83.22-1.38.22Z"/>
    <path class="st1" d="M217.15,52v-.25h3.8v.25h-3.8ZM220.05,58.45c-.52,0-.92-.15-1.2-.45-.27-.3-.41-.7-.41-1.19v-6.52h.26v6.45c0,.47.12.83.35,1.08.23.25.57.37,1.02.37s.82-.14,1.11-.41l.18.18c-.15.16-.35.28-.59.36s-.47.12-.71.12Z"/>
    <path class="st1" d="M223.33,58.41v-6.66h.26v1.84l-.03-.04c.18-.58.5-1.04.95-1.36.45-.32,1.02-.48,1.69-.48v.26h-.08c-.8,0-1.42.26-1.87.77-.45.51-.67,1.21-.67,2.09v3.58h-.26Z"/>
    <path class="st1" d="M230.61,58.45c-.64,0-1.21-.14-1.71-.43-.5-.29-.89-.69-1.18-1.2s-.43-1.09-.43-1.75.13-1.24.4-1.75c.27-.5.63-.9,1.1-1.19.47-.29.99-.43,1.58-.43s1.11.14,1.58.42c.47.28.84.67,1.11,1.17s.41,1.07.41,1.71v.06h-6.03v-.24h5.89l-.1.19c0-.58-.12-1.11-.37-1.57-.25-.46-.59-.83-1.01-1.09-.42-.27-.91-.4-1.46-.4s-1.03.13-1.46.4c-.43.27-.77.63-1.01,1.09-.25.46-.37.99-.37,1.57v.05c0,.61.13,1.15.4,1.62.27.47.63.84,1.09,1.11.46.27.99.4,1.58.4.45,0,.87-.09,1.27-.26s.73-.43,1-.77l.18.18c-.29.36-.65.63-1.08.82-.43.18-.88.28-1.37.28Z"/>
    <path class="st1" d="M237.16,58.45c-.5,0-.92-.08-1.28-.23-.35-.15-.62-.37-.81-.66-.18-.28-.28-.61-.28-.98,0-.32.08-.61.23-.88.15-.27.4-.49.74-.66.34-.17.81-.25,1.4-.25h2.67v.25h-2.68c-.76,0-1.29.14-1.62.43s-.48.65-.48,1.1c0,.5.18.89.55,1.19.37.3.88.44,1.55.44s1.17-.15,1.59-.44c.42-.3.73-.71.95-1.26l.13.17c-.18.53-.5.96-.95,1.29-.45.33-1.02.49-1.72.49ZM239.69,58.41v-4.35c0-.7-.18-1.22-.54-1.57-.36-.35-.88-.53-1.57-.53-.5,0-.95.09-1.37.26s-.76.4-1.06.67l-.18-.18c.32-.3.7-.54,1.16-.72.46-.18.93-.27,1.43-.27.77,0,1.36.2,1.77.59.41.4.61.98.61,1.74v4.37h-.26Z"/>
    <path class="st1" d="M242.84,58.41v-6.66h.26v1.88l-.03-.04c.19-.58.52-1.03.99-1.37.47-.34,1.06-.51,1.75-.51s1.25.17,1.7.52c.45.35.73.87.84,1.55h-.04c.16-.62.49-1.12.97-1.5.49-.38,1.1-.57,1.84-.57.53,0,.99.1,1.38.32.39.21.69.52.9.93.21.41.32.92.32,1.52v3.93h-.26v-3.93c0-.83-.2-1.45-.61-1.88s-.98-.64-1.71-.64c-.57,0-1.05.12-1.46.35s-.72.57-.94.99c-.22.42-.33.92-.33,1.49v3.62h-.26v-3.93c0-.83-.2-1.45-.61-1.88s-.98-.64-1.71-.64c-.57,0-1.05.12-1.46.35s-.72.57-.94.99c-.22.42-.33.92-.33,1.49v3.62h-.26Z"/>
  </g>
  <circle class="st1" cx="326.11" cy="54.74" r="2.66"/>
</svg>