<?xml version="1.0" encoding="UTF-8"?>
<svg id="Layer_1" xmlns="http://www.w3.org/2000/svg" version="1.1" viewBox="0 0 260 35">
  <!-- Generator: Adobe Illustrator 29.8.3, SVG Export Plug-In . SVG Version: 2.1.1 Build 3)  -->
  <defs>
    <style>
      .st0 {
        fill: none;
        stroke: #373932;
        stroke-miterlimit: 10;
        stroke-width: .5px;
      }

      .st1 {
        fill: #373932;
      }
    </style>
  </defs>
  <rect class="st0" x="6.28" y="3.42" width="248.03" height="27.61" rx="13.81" ry="13.81"/>
  <g>
    <path class="st1" d="M93.42,21.68c-.55,0-1.06-.08-1.55-.25-.48-.17-.85-.38-1.09-.64l.21-.33c.25.22.59.42,1.02.59s.91.26,1.43.26c.75,0,1.29-.13,1.62-.39.33-.26.5-.59.5-1,0-.3-.08-.54-.24-.71s-.38-.3-.64-.4-.56-.17-.88-.23c-.32-.06-.65-.12-.97-.19-.33-.07-.62-.17-.89-.3-.27-.12-.48-.3-.64-.52-.16-.22-.24-.52-.24-.89,0-.32.09-.61.26-.88.18-.27.44-.48.81-.65.36-.17.82-.25,1.38-.25.41,0,.83.06,1.24.19.42.12.75.29,1,.5l-.22.33c-.27-.21-.58-.37-.93-.48s-.72-.15-1.1-.15c-.7,0-1.2.13-1.52.4-.32.27-.48.59-.48.98,0,.31.08.56.24.74s.38.32.64.42c.27.09.56.17.88.23.32.06.64.12.97.19.32.07.62.16.88.28.27.12.48.29.64.5.16.21.24.51.24.88,0,.34-.1.65-.29.92-.19.27-.48.48-.85.62-.37.15-.84.22-1.41.22Z"/>
    <path class="st1" d="M97.87,21.64v-9.56h.43v4.75l-.06-.12c.21-.56.55-1,1.02-1.33.48-.33,1.07-.49,1.77-.49.55,0,1.02.11,1.42.32.4.21.71.53.93.95.22.42.33.93.33,1.54v3.93h-.43v-3.9c0-.8-.2-1.4-.6-1.82-.4-.41-.97-.62-1.7-.62-.56,0-1.04.11-1.44.33s-.71.54-.93.95c-.21.41-.32.89-.32,1.44v3.61h-.43Z"/>
    <path class="st1" d="M106.5,21.64v-6.69h.41v1.84l-.04-.12c.18-.56.5-.99.95-1.31.45-.31,1.02-.47,1.69-.47v.42h-.12c-.77,0-1.38.25-1.82.73s-.66,1.16-.66,2.02v3.56h-.43Z"/>
    <path class="st1" d="M113.94,21.68c-.66,0-1.25-.14-1.75-.43-.51-.29-.91-.69-1.2-1.21-.29-.51-.44-1.1-.44-1.75s.14-1.25.41-1.75.64-.91,1.12-1.2c.48-.29,1.02-.44,1.62-.44s1.13.14,1.6.42.85.68,1.12,1.18c.27.5.41,1.08.41,1.73v.12h-5.99v-.35h5.76l-.17.21c0-.56-.12-1.06-.35-1.5-.24-.44-.56-.79-.97-1.04s-.88-.38-1.4-.38-.99.13-1.4.38c-.41.25-.74.6-.97,1.04-.24.44-.35.95-.35,1.51v.08c0,.58.13,1.1.39,1.55.26.45.61.8,1.06,1.06.45.25.96.38,1.53.38.44,0,.85-.08,1.24-.25.39-.16.72-.41.97-.75l.27.28c-.3.36-.67.63-1.1.82-.43.18-.9.28-1.39.28Z"/>
    <path class="st1" d="M121.44,21.68c-.62,0-1.17-.14-1.67-.43-.49-.29-.88-.69-1.17-1.2-.29-.51-.43-1.1-.43-1.76s.14-1.26.43-1.76c.29-.5.68-.9,1.17-1.19.49-.29,1.05-.44,1.67-.44s1.14.14,1.62.42.86.68,1.14,1.19c.28.51.42,1.1.42,1.78s-.14,1.26-.42,1.78c-.28.51-.66.91-1.14,1.19s-1.02.42-1.62.42ZM121.45,21.29c.55,0,1.04-.13,1.47-.38.43-.25.77-.61,1.02-1.06.25-.46.37-.97.37-1.56s-.12-1.11-.37-1.56c-.25-.45-.59-.8-1.02-1.05-.43-.25-.92-.37-1.47-.37s-1.03.12-1.46.37c-.43.25-.77.6-1.02,1.05-.25.45-.38.97-.38,1.56s.13,1.1.38,1.56c.25.46.59.81,1.02,1.06.43.25.91.38,1.46.38ZM124.33,21.64v-2.34l.12-1.02-.13-1.02v-5.18h.43v9.56h-.41Z"/>
    <path class="st1" d="M129.21,21.68c-.55,0-1.06-.08-1.55-.25-.48-.17-.85-.38-1.09-.64l.21-.33c.25.22.59.42,1.02.59s.91.26,1.43.26c.75,0,1.29-.13,1.62-.39.33-.26.5-.59.5-1,0-.3-.08-.54-.24-.71-.16-.17-.38-.3-.64-.4s-.56-.17-.88-.23c-.32-.06-.65-.12-.97-.19-.33-.07-.62-.17-.89-.3-.27-.12-.48-.3-.64-.52-.16-.22-.24-.52-.24-.89,0-.32.09-.61.26-.88.18-.27.44-.48.81-.65.36-.17.82-.25,1.38-.25.41,0,.83.06,1.24.19.42.12.75.29,1,.5l-.22.33c-.27-.21-.58-.37-.93-.48s-.72-.15-1.1-.15c-.7,0-1.2.13-1.52.4-.32.27-.48.59-.48.98,0,.31.08.56.24.74s.38.32.64.42c.27.09.56.17.88.23.32.06.64.12.97.19.32.07.62.16.88.28.27.12.48.29.64.5.16.21.25.51.25.88,0,.34-.1.65-.29.92s-.48.48-.85.62c-.37.15-.84.22-1.41.22Z"/>
    <path class="st1" d="M132.51,15.33v-.37h3.89v.37h-3.89ZM135.47,21.68c-.55,0-.97-.16-1.26-.46-.29-.31-.44-.73-.44-1.25v-6.48h.42v6.42c0,.46.11.8.33,1.04s.55.36.98.36.8-.13,1.08-.4l.22.31c-.16.15-.37.27-.61.35s-.49.12-.73.12Z"/>
    <path class="st1" d="M138.7,21.64v-6.69h.41v1.84l-.04-.12c.18-.56.5-.99.95-1.31.45-.31,1.01-.47,1.69-.47v.42h-.12c-.77,0-1.38.25-1.82.73-.44.49-.66,1.16-.66,2.02v3.56h-.43Z"/>
    <path class="st1" d="M146.15,21.68c-.66,0-1.25-.14-1.75-.43-.51-.29-.91-.69-1.2-1.21-.29-.51-.44-1.1-.44-1.75s.13-1.25.41-1.75.64-.91,1.12-1.2c.48-.29,1.02-.44,1.62-.44s1.13.14,1.6.42.85.68,1.12,1.18c.27.5.41,1.08.41,1.73v.12h-5.99v-.35h5.76l-.17.21c0-.56-.12-1.06-.35-1.5-.24-.44-.56-.79-.97-1.04s-.88-.38-1.4-.38-.99.13-1.4.38c-.41.25-.74.6-.97,1.04-.24.44-.35.95-.35,1.51v.08c0,.58.13,1.1.39,1.55.26.45.61.8,1.06,1.06.45.25.96.38,1.53.38.44,0,.85-.08,1.24-.25s.71-.41.97-.75l.27.28c-.3.36-.67.63-1.1.82s-.9.28-1.38.28Z"/>
    <path class="st1" d="M152.71,21.68c-.51,0-.94-.08-1.29-.23s-.63-.38-.82-.66c-.19-.29-.28-.62-.28-.99,0-.33.08-.63.23-.91s.41-.5.77-.67c.36-.17.83-.25,1.44-.25h2.59v.35h-2.59c-.73,0-1.25.14-1.55.41-.3.27-.46.62-.46,1.04,0,.47.18.85.53,1.13.35.28.84.42,1.47.42s1.13-.14,1.53-.42c.4-.28.71-.68.92-1.19l.14.28c-.17.51-.48.91-.93,1.22-.45.31-1.01.46-1.69.46ZM155.19,21.64v-1.79s-.01-2.54-.01-2.54c0-.66-.18-1.16-.53-1.51-.35-.34-.86-.51-1.53-.51-.49,0-.94.08-1.34.25-.4.17-.75.38-1.04.65l-.23-.31c.32-.3.71-.54,1.17-.72.46-.18.95-.26,1.46-.26.8,0,1.41.2,1.84.61.43.41.64,1.01.64,1.8v4.33h-.41Z"/>
    <path class="st1" d="M158.39,21.64v-6.69h.41v1.87l-.05-.12c.2-.55.53-.99.99-1.31.46-.33,1.04-.49,1.71-.49s1.26.17,1.71.52c.45.34.73.86.84,1.55l-.12-.05c.17-.59.5-1.08.99-1.45.49-.37,1.1-.56,1.83-.56.54,0,1.01.11,1.4.32s.69.53.91.95c.21.42.32.93.32,1.54v3.93h-.43v-3.9c0-.8-.2-1.4-.59-1.82s-.94-.62-1.64-.62c-.53,0-1,.11-1.39.33-.4.22-.7.54-.91.95-.21.41-.32.89-.32,1.44v3.61h-.43v-3.9c0-.8-.19-1.4-.58-1.82-.39-.41-.93-.62-1.64-.62-.54,0-1.01.11-1.4.33s-.69.54-.9.95c-.21.41-.32.89-.32,1.44v3.61h-.43Z"/>
  </g>
  <circle class="st1" cx="241.4" cy="17.97" r="2.66"/>
</svg>