<?xml version="1.0" encoding="UTF-8"?>
<svg id="Layer_1" xmlns="http://www.w3.org/2000/svg" version="1.1" viewBox="0 0 260 35">
  <!-- Generator: Adobe Illustrator 29.8.3, SVG Export Plug-In . SVG Version: 2.1.1 Build 3)  -->
  <defs>
    <style>
      .st0 {
        fill: none;
        stroke: #373932;
        stroke-miterlimit: 10;
        stroke-width: .5px;
      }

      .st1 {
        fill: #373932;
      }
    </style>
  </defs>
  <rect class="st0" x="5.99" y="3.69" width="248.03" height="27.61" rx="13.81" ry="13.81"/>
  <circle class="st1" cx="241.11" cy="18.24" r="2.66"/>
  <g>
    <path class="st1" d="M67.15,14.59v-.37h3.89v.37h-3.89ZM70.12,20.94c-.55,0-.97-.16-1.26-.46-.29-.31-.44-.73-.44-1.25v-6.48h.43v6.42c0,.46.11.8.33,1.04.22.24.55.36.98.36s.8-.13,1.08-.4l.22.31c-.16.15-.37.27-.61.35s-.49.12-.73.12Z"/>
    <path class="st1" d="M73.35,20.9v-6.69h.41v1.84l-.04-.12c.18-.56.5-.99.95-1.31.45-.31,1.02-.47,1.69-.47v.42h-.12c-.77,0-1.38.25-1.82.73s-.66,1.16-.66,2.02v3.56h-.43Z"/>
    <path class="st1" d="M79.65,20.94c-.51,0-.94-.08-1.29-.23s-.63-.38-.82-.66-.28-.62-.28-.99c0-.33.08-.63.23-.91.15-.28.41-.5.77-.67.36-.17.84-.25,1.44-.25h2.59v.35h-2.59c-.73,0-1.25.14-1.55.41-.31.27-.46.62-.46,1.04,0,.47.18.85.53,1.13.35.28.84.42,1.47.42s1.13-.14,1.53-.42c.4-.28.71-.68.91-1.19l.14.28c-.17.51-.48.91-.93,1.22-.45.31-1.01.46-1.69.46ZM82.13,20.9v-1.79s-.01-2.54-.01-2.54c0-.66-.18-1.16-.53-1.51-.35-.34-.86-.51-1.53-.51-.49,0-.94.08-1.34.25-.4.17-.75.38-1.04.65l-.23-.31c.32-.3.71-.54,1.17-.72.46-.18.95-.26,1.46-.26.8,0,1.41.2,1.84.61.43.41.64,1.01.64,1.8v4.33h-.41Z"/>
    <path class="st1" d="M85.33,20.9v-6.69h.41v1.88l-.05-.12c.21-.56.55-1,1.02-1.33.48-.33,1.07-.49,1.77-.49.55,0,1.02.11,1.42.32.4.21.71.53.93.95.22.42.33.93.33,1.54v3.93h-.43v-3.9c0-.8-.2-1.4-.6-1.82-.4-.41-.97-.62-1.7-.62-.56,0-1.04.11-1.44.33s-.71.54-.93.95c-.21.41-.32.89-.32,1.44v3.61h-.43Z"/>
    <path class="st1" d="M95.57,20.94c-.55,0-1.06-.08-1.55-.25-.48-.17-.85-.38-1.09-.64l.21-.33c.25.22.59.42,1.02.59s.91.26,1.43.26c.75,0,1.29-.13,1.62-.39.33-.26.5-.59.5-1,0-.3-.08-.54-.24-.71s-.38-.3-.64-.4-.56-.17-.88-.23c-.32-.06-.65-.12-.97-.19-.33-.07-.62-.17-.89-.3-.27-.12-.48-.3-.64-.52-.16-.22-.24-.52-.24-.89,0-.32.09-.61.26-.88.18-.27.44-.48.81-.65.36-.17.82-.25,1.38-.25.41,0,.83.06,1.24.19.42.12.75.29,1,.5l-.22.33c-.27-.21-.58-.37-.93-.48s-.72-.15-1.1-.15c-.7,0-1.2.13-1.52.4-.32.27-.48.59-.48.98,0,.31.08.56.24.74s.38.32.64.42c.27.09.56.17.88.23.32.06.64.12.97.19.32.07.62.16.88.28.27.12.48.29.64.5.16.21.24.51.24.88,0,.34-.1.65-.29.92-.19.27-.48.48-.85.62-.37.15-.84.22-1.41.22Z"/>
    <path class="st1" d="M101.78,20.94c-.51,0-.94-.08-1.29-.23s-.63-.38-.82-.66-.28-.62-.28-.99c0-.33.08-.63.23-.91.15-.28.41-.5.77-.67.36-.17.84-.25,1.44-.25h2.59v.35h-2.59c-.73,0-1.25.14-1.55.41-.31.27-.46.62-.46,1.04,0,.47.18.85.53,1.13.35.28.84.42,1.47.42s1.13-.14,1.53-.42c.4-.28.71-.68.91-1.19l.14.28c-.17.51-.48.91-.93,1.22-.45.31-1.01.46-1.69.46ZM104.27,20.9v-1.79s-.01-2.54-.01-2.54c0-.66-.18-1.16-.53-1.51-.35-.34-.86-.51-1.53-.51-.49,0-.94.08-1.34.25-.4.17-.75.38-1.04.65l-.23-.31c.32-.3.71-.54,1.17-.72.46-.18.95-.26,1.46-.26.8,0,1.41.2,1.84.61.43.41.64,1.01.64,1.8v4.33h-.41Z"/>
    <path class="st1" d="M110.02,20.94c-.64,0-1.2-.14-1.71-.43-.5-.29-.9-.69-1.19-1.2-.29-.51-.43-1.1-.43-1.76s.14-1.25.43-1.76c.29-.51.68-.91,1.19-1.2s1.07-.43,1.71-.43c.51,0,.97.1,1.4.29.43.19.79.48,1.07.86l-.32.27c-.25-.35-.56-.61-.93-.77s-.78-.25-1.22-.25c-.55,0-1.04.12-1.48.37-.44.25-.78.6-1.04,1.05-.25.45-.38.97-.38,1.56s.13,1.11.38,1.57c.25.45.6.8,1.04,1.06.44.25.93.38,1.48.38.44,0,.84-.08,1.22-.25.37-.17.68-.42.93-.77l.32.26c-.28.39-.64.67-1.07.86-.43.19-.9.28-1.4.28Z"/>
    <path class="st1" d="M113.45,14.59v-.37h3.89v.37h-3.89ZM116.41,20.94c-.55,0-.97-.16-1.26-.46-.29-.31-.44-.73-.44-1.25v-6.48h.43v6.42c0,.46.11.8.33,1.04.22.24.55.36.98.36s.8-.13,1.08-.4l.22.31c-.16.15-.37.27-.61.35s-.49.12-.73.12Z"/>
    <path class="st1" d="M119.85,12.46c-.11,0-.21-.04-.3-.13-.09-.09-.13-.18-.13-.28,0-.12.04-.22.13-.3.09-.08.18-.12.3-.12.12,0,.22.04.3.12.08.08.12.18.12.29s-.04.21-.12.3c-.08.09-.18.13-.3.13ZM119.65,20.9v-6.69h.43v6.69h-.43Z"/>
    <path class="st1" d="M125.46,20.94c-.63,0-1.19-.14-1.68-.43-.49-.29-.88-.69-1.17-1.2-.29-.51-.43-1.1-.43-1.76s.14-1.25.43-1.75c.29-.51.68-.91,1.17-1.2.49-.29,1.05-.44,1.68-.44s1.19.14,1.69.43c.5.29.89.68,1.17,1.19.28.51.43,1.09.43,1.76s-.14,1.24-.43,1.75c-.28.52-.67.92-1.17,1.21-.5.29-1.06.43-1.69.43ZM125.46,20.55c.55,0,1.04-.13,1.48-.38.43-.25.77-.61,1.02-1.06.25-.46.37-.97.37-1.56s-.12-1.11-.37-1.56c-.24-.45-.58-.8-1.02-1.05-.43-.25-.92-.37-1.46-.37s-1.04.12-1.47.37c-.43.25-.77.6-1.02,1.05-.25.45-.38.97-.38,1.56s.13,1.1.38,1.56c.25.46.59.81,1.02,1.06.43.25.91.38,1.46.38Z"/>
    <path class="st1" d="M130.84,20.9v-6.69h.41v1.88l-.05-.12c.21-.56.55-1,1.02-1.33.48-.33,1.07-.49,1.77-.49.55,0,1.02.11,1.42.32.4.21.71.53.93.95.22.42.33.93.33,1.54v3.93h-.43v-3.9c0-.8-.2-1.4-.6-1.82-.4-.41-.97-.62-1.7-.62-.56,0-1.04.11-1.44.33-.4.22-.71.54-.93.95s-.32.89-.32,1.44v3.61h-.43Z"/>
    <path class="st1" d="M144.34,20.94c-.55,0-1.07-.08-1.55-.25-.48-.17-.85-.38-1.09-.64l.21-.33c.25.22.59.42,1.02.59.43.17.91.26,1.43.26.75,0,1.29-.13,1.62-.39.33-.26.5-.59.5-1,0-.3-.08-.54-.24-.71s-.38-.3-.64-.4c-.27-.09-.56-.17-.88-.23-.32-.06-.65-.12-.97-.19-.33-.07-.62-.17-.89-.3-.27-.12-.48-.3-.64-.52-.16-.22-.25-.52-.25-.89,0-.32.09-.61.26-.88.18-.27.44-.48.8-.65.36-.17.82-.25,1.38-.25.41,0,.83.06,1.24.19.42.12.75.29,1,.5l-.22.33c-.27-.21-.58-.37-.93-.48s-.72-.15-1.1-.15c-.7,0-1.2.13-1.52.4-.32.27-.48.59-.48.98,0,.31.08.56.24.74s.38.32.64.42c.27.09.56.17.88.23.32.06.64.12.97.19.32.07.62.16.88.28.27.12.48.29.64.5.16.21.25.51.25.88,0,.34-.1.65-.29.92s-.48.48-.85.62c-.37.15-.84.22-1.41.22Z"/>
    <path class="st1" d="M151.41,20.94c-.66,0-1.25-.14-1.75-.43-.51-.29-.91-.69-1.2-1.21-.29-.51-.44-1.1-.44-1.75s.13-1.25.41-1.75.64-.91,1.12-1.2c.48-.29,1.02-.44,1.62-.44s1.13.14,1.6.42.85.68,1.12,1.18c.27.5.41,1.08.41,1.73v.12h-5.99v-.35h5.76l-.17.21c0-.56-.12-1.06-.35-1.5-.24-.44-.56-.79-.97-1.04s-.88-.38-1.4-.38-.99.13-1.4.38c-.41.25-.74.6-.97,1.04-.24.44-.35.95-.35,1.51v.08c0,.58.13,1.1.39,1.55.26.45.61.8,1.06,1.06.45.25.96.38,1.53.38.44,0,.85-.08,1.24-.25s.71-.41.97-.75l.27.28c-.3.36-.67.63-1.1.82s-.9.28-1.38.28Z"/>
    <path class="st1" d="M156.4,20.9v-6.69h.41v1.88l-.05-.12c.21-.56.55-1,1.02-1.33.48-.33,1.07-.49,1.77-.49.55,0,1.02.11,1.42.32s.71.53.93.95c.22.42.33.93.33,1.54v3.93h-.42v-3.9c0-.8-.2-1.4-.61-1.82-.4-.41-.97-.62-1.7-.62-.56,0-1.04.11-1.44.33s-.71.54-.93.95-.32.89-.32,1.44v3.61h-.43Z"/>
    <path class="st1" d="M167.54,20.94c-.62,0-1.17-.14-1.67-.43-.49-.29-.88-.69-1.17-1.2-.29-.51-.43-1.1-.43-1.76s.14-1.26.43-1.76c.29-.5.68-.9,1.17-1.19.49-.29,1.05-.44,1.67-.44s1.14.14,1.62.42c.48.28.86.68,1.14,1.19s.42,1.1.42,1.78-.14,1.26-.42,1.78c-.28.51-.66.91-1.14,1.19-.48.28-1.02.42-1.62.42ZM167.55,20.55c.55,0,1.04-.13,1.47-.38.43-.25.77-.61,1.02-1.06.25-.46.37-.97.37-1.56s-.12-1.11-.37-1.56c-.25-.45-.59-.8-1.02-1.05-.43-.25-.92-.37-1.47-.37s-1.03.12-1.46.37c-.43.25-.77.6-1.02,1.05-.25.45-.38.97-.38,1.56s.13,1.1.38,1.56c.25.46.59.81,1.02,1.06.43.25.92.38,1.46.38ZM170.43,20.9v-2.34l.12-1.02-.13-1.02v-5.18h.42v9.56h-.41Z"/>
    <path class="st1" d="M173.9,12.46c-.11,0-.21-.04-.3-.13s-.13-.18-.13-.28c0-.12.04-.22.13-.3.09-.08.18-.12.3-.12.12,0,.22.04.3.12.08.08.12.18.12.29s-.04.21-.12.3c-.08.09-.18.13-.3.13ZM173.7,20.9v-6.69h.43v6.69h-.43Z"/>
    <path class="st1" d="M176.98,20.9v-6.69h.41v1.88l-.05-.12c.21-.56.55-1,1.02-1.33.48-.33,1.07-.49,1.77-.49.55,0,1.02.11,1.42.32s.71.53.93.95c.22.42.33.93.33,1.54v3.93h-.42v-3.9c0-.8-.2-1.4-.61-1.82-.4-.41-.97-.62-1.7-.62-.56,0-1.04.11-1.44.33s-.71.54-.93.95-.32.89-.32,1.44v3.61h-.43Z"/>
    <path class="st1" d="M188.17,20.67c-.63,0-1.19-.14-1.69-.42s-.89-.66-1.19-1.15-.44-1.05-.44-1.69.15-1.2.44-1.69.69-.87,1.19-1.15c.5-.27,1.06-.41,1.69-.41s1.17.13,1.65.41c.48.27.86.65,1.15,1.13.28.49.42,1.05.42,1.71s-.14,1.22-.42,1.71c-.28.49-.67.87-1.15,1.14-.48.27-1.03.41-1.65.41ZM188.18,20.28c.57,0,1.07-.12,1.5-.36.43-.24.78-.58,1.02-1.02.25-.44.37-.94.37-1.49s-.12-1.06-.37-1.49c-.25-.43-.59-.76-1.02-1-.43-.24-.93-.36-1.5-.36s-1.04.12-1.48.36c-.44.24-.78.57-1.04,1-.25.42-.38.92-.38,1.49s.13,1.06.38,1.49c.25.44.6.78,1.04,1.02.44.24.93.36,1.48.36ZM188.35,23.44c-.6,0-1.17-.1-1.71-.29-.54-.19-.97-.46-1.29-.79l.25-.32c.34.33.75.58,1.22.75.47.18.98.26,1.52.26.94,0,1.63-.22,2.07-.66.45-.44.67-1.14.67-2.08v-2.02l.13-.88-.12-.88v-2.32h.41v6.04c0,1.09-.26,1.89-.79,2.41-.52.52-1.31.77-2.37.77Z"/>
  </g>
</svg>