<?xml version="1.0" encoding="UTF-8"?>
<svg id="Layer_1" xmlns="http://www.w3.org/2000/svg" version="1.1" viewBox="0 0 170 44">
  <!-- Generator: Adobe Illustrator 29.8.3, SVG Export Plug-In . SVG Version: 2.1.1 Build 3)  -->
  <defs>
    <style>
      .st0 {
        fill: none;
        stroke: #373932;
        stroke-miterlimit: 10;
      }

      .st1 {
        fill: #373932;
      }
    </style>
  </defs>
  <rect class="st0" x="3.6" y="1.39" width="162.79" height="41.21" rx="20.61" ry="20.61"/>
  <g>
    <path class="st1" d="M39.79,18.57v-.56h5.81v.56h-5.81ZM44.21,28.05c-.82,0-1.45-.23-1.88-.69-.44-.46-.65-1.08-.65-1.86v-9.67h.63v9.57c0,.68.17,1.2.5,1.56.33.36.82.54,1.46.54s1.19-.2,1.62-.6l.33.46c-.24.23-.54.4-.9.52-.36.12-.72.17-1.1.17Z"/>
    <path class="st1" d="M52.58,28.05c-.99,0-1.86-.21-2.61-.64-.76-.43-1.35-1.03-1.79-1.8-.44-.77-.65-1.64-.65-2.62s.2-1.86.61-2.61.96-1.35,1.67-1.79,1.52-.65,2.41-.65,1.68.21,2.39.63,1.27,1.01,1.67,1.76c.4.75.61,1.61.61,2.59v.17h-8.94v-.52h8.59l-.25.31c0-.83-.18-1.58-.53-2.24s-.84-1.18-1.45-1.56-1.31-.57-2.1-.57-1.48.19-2.1.57-1.1.9-1.45,1.56-.53,1.41-.53,2.26v.12c0,.87.19,1.64.58,2.32.38.67.91,1.2,1.58,1.58s1.43.57,2.29.57c.65,0,1.27-.12,1.85-.37.58-.24,1.07-.62,1.45-1.11l.4.42c-.45.54-1,.95-1.64,1.22-.65.28-1.34.41-2.07.41Z"/>
    <path class="st1" d="M60.02,27.99v-14.27h.63v14.27h-.63Z"/>
    <path class="st1" d="M68.84,28.05c-.99,0-1.86-.21-2.61-.64-.76-.43-1.35-1.03-1.79-1.8-.44-.77-.65-1.64-.65-2.62s.2-1.86.61-2.61.96-1.35,1.67-1.79,1.52-.65,2.41-.65,1.68.21,2.39.63,1.27,1.01,1.67,1.76c.4.75.61,1.61.61,2.59v.17h-8.94v-.52h8.59l-.25.31c0-.83-.18-1.58-.53-2.24s-.84-1.18-1.45-1.56-1.31-.57-2.1-.57-1.48.19-2.1.57-1.1.9-1.45,1.56-.53,1.41-.53,2.26v.12c0,.87.19,1.64.58,2.32.38.67.91,1.2,1.58,1.58s1.43.57,2.29.57c.65,0,1.27-.12,1.85-.37.58-.24,1.07-.62,1.45-1.11l.4.42c-.45.54-1,.95-1.64,1.22-.65.28-1.34.41-2.07.41Z"/>
    <path class="st1" d="M80.09,27.65c-.94,0-1.78-.21-2.52-.62-.74-.42-1.33-.99-1.77-1.72-.44-.73-.65-1.57-.65-2.52s.22-1.79.65-2.52c.44-.73,1.03-1.3,1.77-1.71.74-.41,1.58-.62,2.52-.62s1.74.2,2.46.61c.72.4,1.29.97,1.71,1.69.42.72.63,1.57.63,2.55s-.21,1.83-.63,2.56-.99,1.3-1.71,1.7c-.72.4-1.54.61-2.46.61ZM80.11,27.07c.85,0,1.59-.18,2.24-.54.65-.36,1.16-.87,1.53-1.52.37-.65.56-1.4.56-2.23s-.19-1.59-.56-2.22-.88-1.13-1.53-1.49c-.65-.36-1.39-.54-2.24-.54s-1.56.18-2.21.54c-.65.36-1.17.86-1.55,1.49s-.57,1.38-.57,2.22.19,1.58.57,2.23c.38.65.89,1.16,1.55,1.52.65.36,1.39.54,2.21.54ZM80.36,31.78c-.9,0-1.75-.14-2.55-.43-.8-.29-1.45-.68-1.93-1.18l.37-.48c.51.49,1.12.86,1.83,1.12s1.46.39,2.27.39c1.4,0,2.43-.33,3.1-.99.67-.66,1-1.7,1-3.11v-3.02l.19-1.31-.17-1.31v-3.46h.62v9.02c0,1.63-.39,2.83-1.17,3.59-.78.77-1.96,1.15-3.54,1.15Z"/>
    <path class="st1" d="M89.33,27.99v-9.98h.62v2.75l-.06-.17c.27-.83.74-1.48,1.41-1.95s1.52-.7,2.53-.7v.63h-.17c-1.15,0-2.06.37-2.71,1.1-.65.73-.98,1.74-.98,3.02v5.31h-.63Z"/>
    <path class="st1" d="M98.74,28.05c-.76,0-1.4-.12-1.93-.35-.53-.23-.94-.56-1.22-.99s-.42-.92-.42-1.47c0-.49.12-.94.35-1.36.23-.42.61-.75,1.14-1,.53-.25,1.25-.38,2.14-.38h3.86v.52h-3.86c-1.09,0-1.86.21-2.32.62s-.68.93-.68,1.56c0,.71.26,1.27.79,1.68.53.42,1.26.62,2.19.62s1.69-.21,2.29-.62c.6-.42,1.06-1.01,1.37-1.78l.21.42c-.26.76-.72,1.37-1.38,1.83-.67.46-1.51.69-2.52.69ZM102.45,27.99v-2.33l-.02-.35v-3.79c0-.99-.26-1.74-.79-2.25s-1.29-.77-2.29-.77c-.73,0-1.4.12-2,.38s-1.12.57-1.56.97l-.35-.46c.47-.45,1.06-.8,1.75-1.07.69-.26,1.42-.39,2.17-.39,1.19,0,2.11.3,2.74.91.63.61.95,1.5.95,2.68v6.46h-.62Z"/>
    <path class="st1" d="M107.21,27.99v-9.98h.62v2.79l-.08-.17c.29-.82.79-1.47,1.48-1.96.69-.49,1.54-.73,2.56-.73s1.88.26,2.55.77,1.09,1.28,1.26,2.31l-.17-.08c.26-.88.75-1.61,1.48-2.16s1.64-.84,2.73-.84c.81,0,1.5.16,2.09.48.58.32,1.04.79,1.36,1.41s.48,1.39.48,2.3v5.86h-.63v-5.83c0-1.19-.29-2.1-.88-2.71s-1.4-.92-2.45-.92c-.79,0-1.49.17-2.08.5-.59.33-1.04.81-1.36,1.42-.31.62-.47,1.33-.47,2.15v5.38h-.63v-5.83c0-1.19-.29-2.1-.87-2.71s-1.39-.92-2.44-.92c-.81,0-1.5.17-2.09.5-.58.33-1.03.81-1.35,1.42-.31.62-.47,1.33-.47,2.15v5.38h-.63Z"/>
  </g>
  <circle class="st1" cx="146.74" cy="22" r="3.97"/>
</svg>