<?xml version="1.0" encoding="UTF-8"?>
<svg id="Layer_1" xmlns="http://www.w3.org/2000/svg" version="1.1" viewBox="0 0 430 46">
  <!-- Generator: Adobe Illustrator 29.8.3, SVG Export Plug-In . SVG Version: 2.1.1 Build 3)  -->
  <defs>
    <style>
      .st0 {
        fill: none;
        stroke: #373932;
        stroke-miterlimit: 10;
      }

      .st1 {
        fill: #373932;
      }
    </style>
  </defs>
  <rect class="st0" x="2.16" y="2.52" width="426.25" height="41.21" rx="20.61" ry="20.61"/>
  <g>
    <path class="st1" d="M159.9,31.29c-.82,0-1.59-.12-2.31-.38s-1.26-.57-1.63-.95l.31-.5c.37.33.88.63,1.52.88.64.26,1.35.38,2.13.38,1.11,0,1.92-.19,2.41-.58.49-.38.74-.88.74-1.5,0-.45-.12-.8-.37-1.06-.24-.26-.56-.46-.96-.6s-.84-.25-1.32-.34c-.48-.08-.96-.18-1.45-.29-.49-.11-.93-.26-1.33-.44-.4-.19-.72-.45-.96-.78-.24-.33-.37-.78-.37-1.33,0-.47.13-.91.39-1.31s.66-.72,1.2-.97c.54-.25,1.22-.38,2.06-.38.62,0,1.23.09,1.85.28.62.19,1.12.43,1.49.74l-.33.5c-.4-.32-.86-.56-1.39-.71-.53-.15-1.08-.23-1.64-.23-1.04,0-1.79.2-2.27.6s-.71.88-.71,1.46c0,.46.12.83.37,1.11.24.28.56.48.96.62.4.14.84.26,1.32.35.48.09.96.19,1.44.29.48.1.92.24,1.32.42.4.18.72.43.96.75s.37.76.37,1.31c0,.51-.14.97-.43,1.38-.29.4-.71.71-1.27.93-.56.22-1.26.33-2.11.33Z"/>
    <path class="st1" d="M166.53,31.23v-14.27h.63v7.09l-.1-.17c.31-.83.82-1.49,1.53-1.98s1.59-.73,2.64-.73c.82,0,1.53.16,2.12.48s1.06.79,1.39,1.41c.33.62.5,1.39.5,2.3v5.86h-.63v-5.83c0-1.19-.3-2.1-.9-2.71-.6-.62-1.45-.92-2.54-.92-.83,0-1.55.17-2.15.5s-1.06.81-1.38,1.42-.48,1.33-.48,2.15v5.38h-.63Z"/>
    <path class="st1" d="M179.41,31.23v-9.98h.62v2.75l-.06-.17c.27-.83.74-1.48,1.41-1.95s1.52-.7,2.53-.7v.63h-.17c-1.15,0-2.06.37-2.71,1.1-.65.73-.98,1.74-.98,3.02v5.31h-.63Z"/>
    <path class="st1" d="M190.52,31.29c-.99,0-1.86-.21-2.61-.64-.76-.43-1.35-1.03-1.79-1.8-.44-.77-.65-1.64-.65-2.62s.2-1.86.61-2.61.96-1.35,1.67-1.79,1.52-.65,2.41-.65,1.68.21,2.39.63,1.27,1.01,1.67,1.76c.4.75.61,1.61.61,2.59v.17h-8.94v-.52h8.59l-.25.31c0-.83-.18-1.58-.53-2.24s-.84-1.18-1.45-1.56-1.31-.57-2.1-.57-1.48.19-2.1.57-1.1.9-1.45,1.56-.53,1.41-.53,2.26v.12c0,.87.19,1.64.58,2.32.38.67.91,1.2,1.58,1.58s1.43.57,2.29.57c.65,0,1.27-.12,1.85-.37.58-.24,1.07-.62,1.45-1.11l.4.42c-.45.54-1,.95-1.64,1.22-.65.28-1.34.41-2.07.41Z"/>
    <path class="st1" d="M201.71,31.29c-.92,0-1.75-.21-2.49-.64-.74-.43-1.32-1.03-1.75-1.79-.43-.76-.64-1.64-.64-2.62s.21-1.87.64-2.62c.43-.75,1.01-1.34,1.75-1.78.74-.44,1.57-.65,2.49-.65s1.7.21,2.42.63c.72.42,1.28,1.01,1.7,1.77.42.76.62,1.64.62,2.65s-.21,1.88-.62,2.65c-.42.77-.98,1.36-1.7,1.78-.72.42-1.53.62-2.42.62ZM201.73,30.71c.82,0,1.55-.19,2.19-.57.64-.38,1.15-.91,1.52-1.59.37-.68.56-1.45.56-2.33s-.19-1.66-.56-2.34c-.37-.67-.88-1.19-1.52-1.57-.64-.37-1.37-.56-2.19-.56s-1.53.19-2.17.56c-.64.37-1.15.89-1.53,1.57s-.57,1.45-.57,2.34.19,1.65.57,2.33c.38.68.89,1.21,1.53,1.59.64.38,1.36.57,2.17.57ZM206.02,31.23v-3.5l.17-1.52-.19-1.52v-7.73h.63v14.27h-.62Z"/>
    <path class="st1" d="M213.31,31.29c-.82,0-1.59-.12-2.31-.38s-1.26-.57-1.63-.95l.31-.5c.37.33.88.63,1.52.88.64.26,1.35.38,2.13.38,1.11,0,1.92-.19,2.41-.58.49-.38.74-.88.74-1.5,0-.45-.12-.8-.37-1.06-.24-.26-.56-.46-.96-.6s-.84-.25-1.32-.34c-.48-.08-.96-.18-1.45-.29-.49-.11-.93-.26-1.33-.44-.4-.19-.72-.45-.96-.78-.24-.33-.37-.78-.37-1.33,0-.47.13-.91.39-1.31s.66-.72,1.2-.97c.54-.25,1.22-.38,2.06-.38.62,0,1.23.09,1.85.28.62.19,1.12.43,1.49.74l-.33.5c-.4-.32-.86-.56-1.39-.71-.53-.15-1.08-.23-1.64-.23-1.04,0-1.79.2-2.27.6s-.71.88-.71,1.46c0,.46.12.83.37,1.11.24.28.56.48.96.62.4.14.84.26,1.32.35.48.09.96.19,1.44.29.48.1.92.24,1.32.42.4.18.72.43.96.75.24.32.37.76.37,1.31,0,.51-.14.97-.43,1.38-.29.4-.71.71-1.27.93-.56.22-1.26.33-2.11.33Z"/>
    <path class="st1" d="M218.23,21.81v-.56h5.81v.56h-5.81ZM222.65,31.29c-.82,0-1.45-.23-1.88-.69-.44-.46-.65-1.08-.65-1.86v-9.67h.63v9.57c0,.68.17,1.2.5,1.56.33.36.82.54,1.46.54s1.19-.2,1.62-.6l.33.46c-.24.23-.54.4-.9.52-.36.12-.72.17-1.1.17Z"/>
    <path class="st1" d="M227.48,31.23v-9.98h.62v2.75l-.06-.17c.27-.83.74-1.48,1.41-1.95s1.52-.7,2.53-.7v.63h-.17c-1.15,0-2.06.37-2.71,1.1-.65.73-.98,1.74-.98,3.02v5.31h-.63Z"/>
    <path class="st1" d="M238.59,31.29c-.99,0-1.86-.21-2.62-.64-.76-.43-1.35-1.03-1.79-1.8-.44-.77-.65-1.64-.65-2.62s.2-1.86.61-2.61c.4-.76.96-1.35,1.67-1.79.71-.44,1.52-.65,2.41-.65s1.68.21,2.39.63c.71.42,1.27,1.01,1.67,1.76.4.75.61,1.61.61,2.59v.17h-8.94v-.52h8.59l-.25.31c0-.83-.18-1.58-.53-2.24s-.84-1.18-1.45-1.56-1.31-.57-2.1-.57-1.48.19-2.1.57-1.1.9-1.45,1.56-.53,1.41-.53,2.26v.12c0,.87.19,1.64.58,2.32.38.67.91,1.2,1.58,1.58.67.38,1.43.57,2.29.57.65,0,1.27-.12,1.85-.37.58-.24,1.07-.62,1.45-1.11l.4.42c-.45.54-1,.95-1.64,1.22s-1.34.41-2.07.41Z"/>
    <path class="st1" d="M248.37,31.29c-.76,0-1.4-.12-1.93-.35-.53-.23-.94-.56-1.22-.99-.28-.43-.42-.92-.42-1.47,0-.49.12-.94.35-1.36.23-.42.61-.75,1.14-1s1.25-.38,2.14-.38h3.86v.52h-3.86c-1.09,0-1.86.21-2.32.62s-.68.93-.68,1.56c0,.71.26,1.27.79,1.68.53.42,1.26.62,2.19.62s1.68-.21,2.29-.62c.6-.42,1.06-1.01,1.37-1.78l.21.42c-.26.76-.72,1.37-1.38,1.83-.67.46-1.51.69-2.52.69ZM252.08,31.23v-2.33l-.02-.35v-3.79c0-.99-.26-1.74-.79-2.25s-1.29-.77-2.29-.77c-.73,0-1.4.12-2,.38-.6.25-1.12.57-1.56.97l-.35-.46c.47-.45,1.06-.8,1.75-1.07s1.42-.39,2.17-.39c1.19,0,2.11.3,2.74.91.63.61.95,1.5.95,2.68v6.46h-.62Z"/>
    <path class="st1" d="M256.85,31.23v-9.98h.62v2.79l-.08-.17c.29-.82.79-1.47,1.48-1.96.69-.49,1.54-.73,2.56-.73s1.88.26,2.55.77,1.09,1.28,1.26,2.31l-.17-.08c.26-.88.75-1.61,1.48-2.16s1.64-.84,2.73-.84c.81,0,1.5.16,2.09.48s1.04.79,1.36,1.41.48,1.39.48,2.3v5.86h-.63v-5.83c0-1.19-.29-2.1-.88-2.71-.58-.62-1.4-.92-2.45-.92-.79,0-1.49.17-2.08.5-.59.33-1.04.81-1.36,1.42-.31.62-.47,1.33-.47,2.15v5.38h-.63v-5.83c0-1.19-.29-2.1-.87-2.71s-1.39-.92-2.44-.92c-.81,0-1.5.17-2.09.5-.58.33-1.03.81-1.35,1.42-.31.62-.47,1.33-.47,2.15v5.38h-.63Z"/>
  </g>
  <circle class="st1" cx="409.72" cy="23.13" r="3.97"/>
</svg>