<?xml version="1.0" encoding="UTF-8"?>
<svg id="Layer_1" xmlns="http://www.w3.org/2000/svg" version="1.1" viewBox="0 0 430 108">
  <!-- Generator: Adobe Illustrator 29.8.3, SVG Export Plug-In . SVG Version: 2.1.1 Build 3)  -->
  <defs>
    <style>
      .st0 {
        fill: none;
        stroke: #373932;
        stroke-miterlimit: 10;
      }

      .st1 {
        fill: #373932;
      }
    </style>
  </defs>
  <rect class="st0" x="1.79" y="33.57" width="426.25" height="41.21" rx="20.61" ry="20.61"/>
  <g>
    <path class="st1" d="M159.91,62.34c-.81,0-1.56-.13-2.27-.38-.71-.26-1.24-.58-1.61-.98l.23-.31c.36.35.86.65,1.5.91.64.26,1.36.39,2.15.39,1.18,0,2.02-.21,2.54-.62s.77-.94.77-1.6c0-.47-.12-.85-.37-1.12-.24-.28-.57-.49-.97-.63-.4-.15-.85-.27-1.34-.36-.49-.09-.97-.19-1.46-.29-.49-.1-.93-.25-1.34-.43-.4-.19-.73-.44-.97-.77-.24-.33-.37-.77-.37-1.32,0-.45.12-.87.37-1.25.24-.38.62-.7,1.14-.94s1.19-.37,2.01-.37c.62,0,1.22.09,1.83.28.6.19,1.09.43,1.46.74l-.23.31c-.4-.32-.86-.56-1.4-.72-.54-.16-1.09-.24-1.65-.24-1.09,0-1.88.21-2.37.63-.49.42-.74.94-.74,1.56,0,.49.12.88.37,1.16s.57.51.97.66c.4.15.85.28,1.34.37.49.09.97.19,1.45.29s.92.24,1.33.42.73.43.97.74.37.74.37,1.28c0,.5-.13.95-.4,1.34-.27.39-.68.7-1.22.91-.54.22-1.23.33-2.07.33Z"/>
    <path class="st1" d="M166.52,62.28v-14.27h.38v7.15l-.04-.06c.29-.87.8-1.56,1.52-2.07.72-.51,1.62-.76,2.69-.76.82,0,1.52.16,2.11.47.59.31,1.05.78,1.37,1.39.33.62.49,1.37.49,2.27v5.86h-.38v-5.86c0-1.23-.31-2.17-.94-2.81-.63-.64-1.51-.96-2.63-.96-.87,0-1.62.18-2.25.53s-1.11.85-1.44,1.48c-.33.64-.5,1.38-.5,2.22v5.4h-.38Z"/>
    <path class="st1" d="M179.36,62.28v-9.94h.38v2.75l-.04-.06c.27-.87.74-1.55,1.41-2.03s1.52-.72,2.53-.72v.38h-.12c-1.19,0-2.12.38-2.79,1.14s-1,1.8-1,3.12v5.34h-.38Z"/>
    <path class="st1" d="M190.23,62.34c-.96,0-1.81-.21-2.56-.64-.74-.43-1.33-1.03-1.76-1.79-.43-.76-.64-1.63-.64-2.61s.2-1.86.6-2.61c.4-.75.94-1.34,1.64-1.77.7-.43,1.48-.64,2.36-.64s1.66.21,2.35.62c.7.42,1.25,1,1.65,1.74.4.74.61,1.6.61,2.56v.1h-9v-.37h8.79l-.15.29c0-.87-.19-1.65-.56-2.35-.37-.69-.88-1.24-1.51-1.63-.63-.4-1.36-.6-2.18-.6s-1.53.2-2.17.6-1.14.94-1.51,1.63c-.37.69-.55,1.48-.55,2.35v.08c0,.91.2,1.72.6,2.42.4.71.94,1.26,1.63,1.65.69.4,1.48.6,2.36.6.67,0,1.3-.13,1.89-.38.6-.26,1.09-.64,1.49-1.15l.27.27c-.44.54-.97.95-1.62,1.22-.64.28-1.32.41-2.04.41Z"/>
    <path class="st1" d="M201.38,62.34c-.91,0-1.73-.21-2.46-.64-.73-.43-1.31-1.03-1.73-1.79-.42-.76-.63-1.63-.63-2.61s.21-1.86.63-2.61c.42-.75,1-1.34,1.73-1.77.73-.43,1.55-.64,2.46-.64s1.72.21,2.44.64c.72.43,1.28,1.02,1.7,1.77.42.75.62,1.62.62,2.61s-.21,1.84-.62,2.61-.98,1.36-1.7,1.79c-.72.43-1.53.64-2.44.64ZM201.38,61.97c.85,0,1.61-.2,2.28-.6s1.2-.95,1.59-1.65c.38-.71.58-1.51.58-2.42s-.19-1.73-.58-2.43c-.38-.7-.91-1.24-1.59-1.63-.67-.39-1.43-.59-2.28-.59s-1.6.2-2.27.59c-.67.39-1.2.94-1.59,1.63-.39.7-.59,1.51-.59,2.43s.2,1.72.59,2.42c.39.71.92,1.26,1.59,1.65s1.42.6,2.27.6ZM205.82,62.28v-3.65l.19-1.35-.19-1.35v-7.92h.38v14.27h-.38Z"/>
    <path class="st1" d="M212.91,62.34c-.81,0-1.56-.13-2.27-.38-.71-.26-1.24-.58-1.61-.98l.23-.31c.36.35.86.65,1.5.91.64.26,1.36.39,2.15.39,1.18,0,2.02-.21,2.54-.62s.77-.94.77-1.6c0-.47-.12-.85-.37-1.12-.24-.28-.57-.49-.97-.63-.4-.15-.85-.27-1.34-.36-.49-.09-.97-.19-1.46-.29-.49-.1-.93-.25-1.34-.43-.4-.19-.73-.44-.97-.77-.24-.33-.37-.77-.37-1.32,0-.45.12-.87.37-1.25.24-.38.62-.7,1.14-.94s1.19-.37,2.01-.37c.62,0,1.22.09,1.83.28.6.19,1.09.43,1.46.74l-.23.31c-.4-.32-.86-.56-1.4-.72-.54-.16-1.09-.24-1.65-.24-1.09,0-1.88.21-2.37.63-.49.42-.74.94-.74,1.56,0,.49.12.88.37,1.16s.57.51.97.66c.4.15.85.28,1.34.37.49.09.97.19,1.45.29s.92.24,1.33.42.73.43.97.74c.24.31.37.74.37,1.28,0,.5-.13.95-.4,1.34-.27.39-.68.7-1.22.91-.54.22-1.23.33-2.07.33Z"/>
    <path class="st1" d="M217.76,52.7v-.37h5.67v.37h-5.67ZM222.08,62.34c-.78,0-1.38-.22-1.79-.67-.41-.45-.62-1.04-.62-1.77v-9.73h.38v9.63c0,.71.17,1.24.52,1.62.35.37.85.56,1.52.56s1.22-.21,1.65-.62l.27.27c-.23.24-.52.42-.88.54s-.71.17-1.07.17Z"/>
    <path class="st1" d="M226.98,62.28v-9.94h.38v2.75l-.04-.06c.27-.87.74-1.55,1.41-2.03s1.52-.72,2.53-.72v.38h-.12c-1.19,0-2.12.38-2.79,1.14-.67.76-1,1.8-1,3.12v5.34h-.38Z"/>
    <path class="st1" d="M237.85,62.34c-.96,0-1.81-.21-2.56-.64-.74-.43-1.33-1.03-1.76-1.79s-.64-1.63-.64-2.61.2-1.86.6-2.61c.4-.75.95-1.34,1.64-1.77.7-.43,1.48-.64,2.36-.64s1.66.21,2.36.62c.7.42,1.25,1,1.65,1.74.4.74.61,1.6.61,2.56v.1h-9v-.37h8.79l-.15.29c0-.87-.19-1.65-.56-2.35-.37-.69-.88-1.24-1.51-1.63-.63-.4-1.36-.6-2.18-.6s-1.53.2-2.17.6c-.64.4-1.14.94-1.51,1.63-.37.69-.55,1.48-.55,2.35v.08c0,.91.2,1.72.6,2.42s.94,1.26,1.63,1.65c.69.4,1.48.6,2.36.6.67,0,1.3-.13,1.89-.38.6-.26,1.09-.64,1.49-1.15l.27.27c-.44.54-.97.95-1.62,1.22s-1.32.41-2.04.41Z"/>
    <path class="st1" d="M247.61,62.34c-.74,0-1.38-.12-1.9-.35-.53-.23-.93-.56-1.2-.98-.28-.42-.41-.91-.41-1.46,0-.47.11-.91.34-1.32.22-.4.59-.73,1.11-.98s1.21-.38,2.1-.38h3.98v.37h-4c-1.13,0-1.93.21-2.41.64-.48.43-.72.98-.72,1.64,0,.74.28,1.34.83,1.78.55.44,1.32.66,2.31.66s1.75-.22,2.38-.66c.62-.44,1.09-1.07,1.41-1.88l.19.25c-.27.79-.74,1.44-1.41,1.92s-1.53.73-2.57.73ZM251.4,62.28v-6.5c0-1.04-.27-1.82-.81-2.35-.54-.53-1.32-.79-2.35-.79-.74,0-1.42.13-2.04.38-.62.26-1.14.59-1.58,1l-.27-.27c.47-.45,1.05-.81,1.73-1.08.68-.27,1.39-.4,2.13-.4,1.15,0,2.04.29,2.64.88.61.59.91,1.46.91,2.6v6.52h-.38Z"/>
    <path class="st1" d="M256.09,62.28v-9.94h.38v2.81l-.04-.06c.28-.86.78-1.54,1.48-2.05.71-.51,1.58-.76,2.61-.76s1.87.26,2.54.78,1.08,1.29,1.25,2.32l-.06-.02c.24-.91.73-1.65,1.45-2.22.72-.57,1.64-.86,2.74-.86.79,0,1.48.16,2.06.47.58.31,1.02.78,1.34,1.39.31.62.47,1.37.47,2.27v5.86h-.38v-5.86c0-1.23-.3-2.17-.91-2.81-.61-.64-1.46-.96-2.55-.96-.85,0-1.57.18-2.18.53-.61.35-1.08.85-1.4,1.48-.33.64-.49,1.38-.49,2.22v5.4h-.38v-5.86c0-1.23-.3-2.17-.91-2.81-.61-.64-1.46-.96-2.55-.96-.85,0-1.57.18-2.18.53-.61.35-1.08.85-1.4,1.48-.33.64-.49,1.38-.49,2.22v5.4h-.38Z"/>
  </g>
  <circle class="st1" cx="409.34" cy="54.17" r="3.97"/>
</svg>