<?xml version="1.0" encoding="UTF-8"?>
<svg id="Layer_1" xmlns="http://www.w3.org/2000/svg" version="1.1" viewBox="0 0 192 108">
  <!-- Generator: Adobe Illustrator 29.8.3, SVG Export Plug-In . SVG Version: 2.1.1 Build 3)  -->
  <defs>
    <style>
      .st0 {
        fill: none;
        stroke: #363832;
        stroke-miterlimit: 10;
      }

      .st1 {
        fill: #231f20;
      }

      .st2 {
        fill: #363832;
      }
    </style>
  </defs>
  <circle class="st1" cx="156.18" cy="54" r="3.97"/>
  <rect class="st0" x="14.6" y="33.39" width="162.79" height="41.21" rx="20.61" ry="20.61"/>
  <g>
    <path class="st2" d="M82.17,60.59v-14.27h.38v7.92l-.19,1.35.19,1.35v3.65h-.38ZM86.99,60.64c-.91,0-1.72-.21-2.44-.64-.72-.43-1.28-1.03-1.7-1.79s-.62-1.63-.62-2.61.21-1.86.62-2.61c.42-.75.98-1.34,1.7-1.77.72-.43,1.53-.64,2.44-.64s1.73.21,2.46.64c.73.43,1.31,1.02,1.73,1.77.42.75.63,1.62.63,2.61s-.21,1.84-.63,2.61c-.42.76-1,1.36-1.73,1.79-.73.43-1.55.64-2.46.64ZM86.99,60.28c.85,0,1.61-.2,2.28-.6s1.2-.95,1.59-1.65c.38-.71.58-1.51.58-2.42s-.19-1.73-.58-2.43c-.38-.7-.91-1.24-1.59-1.63-.67-.39-1.43-.59-2.28-.59s-1.61.2-2.28.59c-.67.39-1.2.94-1.59,1.63-.38.7-.58,1.51-.58,2.43s.19,1.72.58,2.42c.38.71.91,1.26,1.59,1.65s1.43.6,2.28.6Z"/>
    <path class="st2" d="M98.72,60.64c-.92,0-1.75-.21-2.47-.64-.72-.43-1.3-1.03-1.72-1.79-.42-.76-.63-1.63-.63-2.61s.21-1.86.63-2.61c.42-.75,1-1.34,1.72-1.77.72-.43,1.55-.64,2.47-.64s1.75.21,2.48.64c.73.43,1.3,1.02,1.72,1.77.42.75.62,1.62.62,2.61s-.21,1.84-.62,2.61c-.42.76-.99,1.36-1.72,1.79-.73.43-1.56.64-2.48.64ZM98.72,60.28c.85,0,1.61-.2,2.28-.6s1.2-.95,1.59-1.65.58-1.51.58-2.42-.19-1.73-.58-2.43c-.38-.7-.91-1.24-1.59-1.63-.67-.39-1.43-.59-2.28-.59s-1.6.2-2.27.59c-.67.39-1.2.94-1.59,1.63-.39.7-.59,1.51-.59,2.43s.2,1.72.59,2.42c.39.71.92,1.26,1.59,1.65.67.4,1.42.6,2.27.6Z"/>
    <path class="st2" d="M105.03,51.01v-.37h5.67v.37h-5.67ZM109.35,60.64c-.78,0-1.38-.22-1.79-.67-.41-.45-.62-1.04-.62-1.77v-9.73h.38v9.63c0,.71.17,1.24.52,1.62.35.37.85.56,1.52.56s1.22-.21,1.65-.62l.27.27c-.23.24-.52.42-.88.54s-.71.17-1.07.17Z"/>
  </g>
  <circle class="st2" cx="156.18" cy="54" r="3.97"/>
</svg>