<?xml version="1.0" encoding="UTF-8"?>
<svg id="Layer_1" xmlns="http://www.w3.org/2000/svg" version="1.1" viewBox="0 0 170 44">
  <!-- Generator: Adobe Illustrator 29.8.3, SVG Export Plug-In . SVG Version: 2.1.1 Build 3)  -->
  <defs>
    <style>
      .st0 {
        fill: #231f20;
      }

      .st1 {
        fill: none;
        stroke: #373932;
        stroke-miterlimit: 10;
      }

      .st2 {
        fill: #373932;
      }
    </style>
  </defs>
  <circle class="st0" cx="145.11" cy="21.86" r="3.97"/>
  <rect class="st1" x="3.53" y="1.26" width="162.79" height="41.21" rx="20.61" ry="20.61"/>
  <g>
    <path class="st2" d="M70.92,28.45v-14.27h.63v7.73l-.19,1.52.17,1.52v3.5h-.62ZM75.84,28.5c-.9,0-1.71-.21-2.42-.62-.72-.42-1.29-1.01-1.7-1.78-.42-.77-.62-1.65-.62-2.65s.21-1.9.62-2.65c.42-.76.98-1.35,1.7-1.77s1.53-.63,2.42-.63,1.75.22,2.49.65c.74.44,1.32,1.03,1.75,1.78s.64,1.62.64,2.62-.21,1.86-.64,2.62-1.01,1.36-1.75,1.79c-.74.43-1.57.64-2.49.64ZM75.82,27.93c.81,0,1.54-.19,2.18-.57.65-.38,1.16-.91,1.53-1.59.37-.68.56-1.45.56-2.33s-.19-1.66-.56-2.34c-.37-.67-.88-1.19-1.53-1.57-.65-.37-1.38-.56-2.18-.56s-1.55.19-2.19.56c-.64.37-1.15.89-1.52,1.57-.37.67-.56,1.45-.56,2.34s.19,1.65.56,2.33c.37.68.88,1.21,1.52,1.59.64.38,1.37.57,2.19.57Z"/>
    <path class="st2" d="M87.63,28.5c-.94,0-1.77-.21-2.51-.64-.74-.43-1.32-1.03-1.75-1.79s-.64-1.64-.64-2.62.21-1.86.64-2.61,1.01-1.35,1.75-1.79c.74-.44,1.57-.65,2.51-.65s1.77.21,2.52.64c.74.43,1.33,1.02,1.75,1.78.42.76.63,1.63.63,2.63s-.21,1.85-.63,2.62c-.42.77-1.01,1.37-1.75,1.8-.74.43-1.58.64-2.52.64ZM87.63,27.93c.82,0,1.55-.19,2.2-.57.65-.38,1.15-.91,1.52-1.59.37-.68.55-1.45.55-2.33s-.18-1.66-.55-2.34-.87-1.19-1.52-1.57c-.65-.37-1.38-.56-2.18-.56s-1.55.19-2.19.56-1.15.89-1.53,1.57-.57,1.45-.57,2.34.19,1.65.57,2.33c.38.68.89,1.21,1.53,1.59s1.37.57,2.17.57Z"/>
    <path class="st2" d="M93.95,19.03v-.56h5.81v.56h-5.81ZM98.38,28.5c-.82,0-1.45-.23-1.88-.69-.44-.46-.65-1.08-.65-1.86v-9.67h.63v9.57c0,.68.17,1.2.5,1.56.33.36.82.54,1.46.54s1.19-.2,1.62-.6l.33.46c-.24.23-.54.4-.9.52-.36.12-.72.17-1.1.17Z"/>
  </g>
  <circle class="st2" cx="145.11" cy="21.86" r="3.97"/>
</svg>