<?xml version="1.0" encoding="UTF-8"?>
<svg id="Layer_1" xmlns="http://www.w3.org/2000/svg" version="1.1" viewBox="0 0 430 108">
  <!-- Generator: Adobe Illustrator 29.8.3, SVG Export Plug-In . SVG Version: 2.1.1 Build 3)  -->
  <defs>
    <style>
      .st0 {
        fill: #373932;
      }
    </style>
  </defs>
  <path class="st0" d="M84.97,58.76v-16.8h.48v16.8h-.48Z"/>
  <path class="st0" d="M92.43,58.76v-16.8h.41l12.58,16.25h-.26v-16.25h.48v16.8h-.41l-12.58-16.25h.26v16.25h-.48Z"/>
  <path class="st0" d="M122.84,58.76l7.8-16.8h.48l7.8,16.8h-.55l-7.61-16.42h.24l-7.61,16.42h-.55ZM125.41,53.7l.24-.46h10.44l.24.46h-10.92Z"/>
  <path class="st0" d="M148.91,58.84c-2,0-3.58-.59-4.74-1.78-1.16-1.18-1.74-2.96-1.74-5.33v-9.77h.48v9.74c0,2.24.52,3.91,1.57,5.02,1.05,1.1,2.52,1.66,4.43,1.66s3.38-.55,4.43-1.66c1.05-1.1,1.57-2.78,1.57-5.02v-9.74h.48v9.77c0,2.37-.58,4.14-1.74,5.33-1.16,1.18-2.74,1.78-4.74,1.78Z"/>
  <path class="st0" d="M162.22,58.76v-16.8h5.69c2.06,0,3.68.48,4.85,1.45s1.75,2.32,1.75,4.07c0,1.15-.26,2.14-.79,2.96-.53.82-1.28,1.46-2.27,1.9s-2.16.66-3.54.66h-5.42l.22-.22v5.98h-.48ZM162.7,52.74l-.22-.19h5.47c1.97,0,3.47-.44,4.51-1.33,1.04-.89,1.56-2.13,1.56-3.73s-.52-2.86-1.56-3.74c-1.04-.88-2.54-1.32-4.51-1.32h-5.47l.22-.19v10.51ZM174.15,58.76l-4.39-6.1h.6l4.39,6.1h-.6Z"/>
  <path class="st0" d="M177.03,58.76l7.8-16.8h.48l7.8,16.8h-.55l-7.61-16.42h.24l-7.61,16.42h-.55ZM179.6,53.7l.24-.46h10.44l.24.46h-10.92Z"/>
  <path class="st0" d="M213.97,58.76l-5.76-16.8h.53l5.62,16.42h-.26l5.76-16.42h.48l5.76,16.42h-.24l5.62-16.42h.5l-5.76,16.8h-.48l-5.69-16.27h.1l-5.69,16.27h-.48Z"/>
  <path class="st0" d="M236.48,58.76v-16.8h10.82v.46h-10.34v15.89h10.7v.46h-11.18ZM236.84,50.46v-.46h9.38v.46h-9.38Z"/>
  <path class="st0" d="M269.46,58.76v-16.34h-6.24v-.46h12.96v.46h-6.24v16.34h-.48Z"/>
  <path class="st0" d="M280.06,58.76v-16.8h5.69c2.06,0,3.68.48,4.85,1.45s1.75,2.32,1.75,4.07c0,1.15-.26,2.14-.79,2.96-.53.82-1.28,1.46-2.27,1.9s-2.16.66-3.54.66h-5.42l.22-.22v5.98h-.48ZM280.54,52.74l-.22-.19h5.47c1.97,0,3.47-.44,4.51-1.33,1.04-.89,1.56-2.13,1.56-3.73s-.52-2.86-1.56-3.74c-1.04-.88-2.54-1.32-4.51-1.32h-5.47l.22-.19v10.51ZM291.99,58.76l-4.39-6.1h.6l4.39,6.1h-.6Z"/>
  <path class="st0" d="M294.87,58.76l7.8-16.8h.48l7.8,16.8h-.55l-7.61-16.42h.24l-7.61,16.42h-.55ZM297.44,53.7l.24-.46h10.44l.24.46h-10.92Z"/>
  <path class="st0" d="M314.96,58.76v-16.8h6.36c1.78,0,3.33.36,4.66,1.09,1.33.73,2.36,1.72,3.1,2.99.74,1.26,1.1,2.7,1.1,4.32s-.37,3.06-1.1,4.32c-.74,1.26-1.77,2.26-3.1,2.99s-2.88,1.09-4.66,1.09h-6.36ZM315.44,58.31h5.83c1.71,0,3.2-.34,4.46-1.03,1.26-.69,2.24-1.63,2.93-2.82.69-1.19,1.03-2.56,1.03-4.09s-.34-2.9-1.03-4.09c-.69-1.19-1.67-2.13-2.93-2.82-1.26-.69-2.75-1.03-4.46-1.03h-5.83v15.89Z"/>
  <path class="st0" d="M335.38,58.76v-16.8h10.82v.46h-10.34v15.89h10.7v.46h-11.18ZM335.74,50.46v-.46h9.38v.46h-9.38Z"/>
</svg>