<?xml version="1.0" encoding="UTF-8"?>
<svg id="Layer_1" xmlns="http://www.w3.org/2000/svg" version="1.1" viewBox="0 0 192 108">
  <!-- Generator: Adobe Illustrator 29.8.3, SVG Export Plug-In . SVG Version: 2.1.1 Build 3)  -->
  <defs>
    <style>
      .st0 {
        fill: none;
        stroke: #373932;
        stroke-miterlimit: 10;
      }

      .st1 {
        fill: #373932;
      }
    </style>
  </defs>
  <rect class="st0" x="14.6" y="33.39" width="162.79" height="41.21" rx="20.61" ry="20.61"/>
  <g>
    <path class="st1" d="M61.7,60v-9.94h.38v2.81l-.04-.06c.28-.86.78-1.54,1.48-2.05.71-.51,1.58-.76,2.62-.76s1.87.26,2.54.78c.67.52,1.08,1.29,1.25,2.32l-.06-.02c.24-.91.73-1.65,1.45-2.22.72-.57,1.64-.86,2.74-.86.79,0,1.48.16,2.06.47.58.31,1.02.78,1.34,1.39.31.62.47,1.37.47,2.27v5.86h-.38v-5.86c0-1.23-.3-2.17-.91-2.81-.61-.64-1.46-.96-2.55-.96-.85,0-1.57.18-2.18.53s-1.08.85-1.4,1.48-.49,1.38-.49,2.22v5.4h-.38v-5.86c0-1.23-.3-2.17-.91-2.81-.61-.64-1.46-.96-2.55-.96-.85,0-1.57.18-2.18.53-.61.35-1.08.85-1.4,1.48-.33.63-.49,1.38-.49,2.22v5.4h-.38Z"/>
    <path class="st1" d="M84.79,60.05c-.74,0-1.38-.12-1.9-.35-.53-.23-.93-.56-1.2-.98s-.41-.91-.41-1.46c0-.47.11-.91.34-1.32.22-.4.59-.73,1.11-.98.51-.25,1.21-.38,2.1-.38h3.98v.37h-4c-1.13,0-1.93.22-2.41.64-.48.43-.72.98-.72,1.64,0,.74.28,1.34.83,1.78.55.44,1.32.66,2.31.66s1.75-.22,2.38-.66c.62-.44,1.09-1.07,1.41-1.88l.19.25c-.27.79-.74,1.44-1.41,1.92s-1.53.73-2.57.73ZM88.58,60v-6.5c0-1.04-.27-1.82-.81-2.35s-1.32-.79-2.35-.79c-.74,0-1.42.13-2.04.38-.62.26-1.14.59-1.58,1l-.27-.27c.47-.45,1.05-.81,1.73-1.08.68-.27,1.39-.4,2.13-.4,1.15,0,2.04.29,2.64.88.61.59.91,1.46.91,2.6v6.52h-.38Z"/>
    <path class="st1" d="M93.27,60v-9.94h.38v2.83l-.04-.06c.29-.87.8-1.56,1.52-2.07.72-.51,1.61-.76,2.69-.76.82,0,1.53.16,2.11.47.59.31,1.05.78,1.38,1.39s.49,1.37.49,2.27v5.86h-.38v-5.86c0-1.23-.31-2.17-.94-2.81-.63-.64-1.51-.96-2.63-.96-.87,0-1.62.18-2.25.53s-1.11.85-1.44,1.48c-.33.63-.5,1.38-.5,2.22v5.4h-.38Z"/>
    <path class="st1" d="M110.07,60.05c-.85,0-1.57-.16-2.18-.47-.61-.31-1.08-.78-1.4-1.39s-.49-1.37-.49-2.27v-5.86h.38v5.86c0,1.23.32,2.17.96,2.81s1.54.96,2.71.96c.83,0,1.55-.18,2.15-.53s1.06-.85,1.38-1.49.48-1.38.48-2.21v-5.4h.38v9.94h-.38v-2.81l.04.06c-.28.86-.77,1.54-1.46,2.05-.69.51-1.55.76-2.58.76Z"/>
    <path class="st1" d="M121.44,60.05c-.74,0-1.38-.12-1.9-.35-.53-.23-.93-.56-1.2-.98s-.41-.91-.41-1.46c0-.47.11-.91.34-1.32.22-.4.59-.73,1.11-.98.51-.25,1.21-.38,2.1-.38h3.98v.37h-4c-1.13,0-1.93.22-2.41.64-.48.43-.72.98-.72,1.64,0,.74.28,1.34.83,1.78.55.44,1.32.66,2.31.66s1.75-.22,2.38-.66c.62-.44,1.09-1.07,1.41-1.88l.19.25c-.27.79-.74,1.44-1.41,1.92s-1.53.73-2.57.73ZM125.22,60v-6.5c0-1.04-.27-1.82-.81-2.35s-1.32-.79-2.35-.79c-.74,0-1.42.13-2.04.38-.62.26-1.14.59-1.58,1l-.27-.27c.47-.45,1.05-.81,1.73-1.08.68-.27,1.39-.4,2.13-.4,1.15,0,2.04.29,2.64.88.61.59.91,1.46.91,2.6v6.52h-.38Z"/>
    <path class="st1" d="M129.91,60v-14.27h.38v14.27h-.38Z"/>
  </g>
  <circle class="st1" cx="157.5" cy="54" r="3.97"/>
</svg>