<?xml version="1.0" encoding="UTF-8"?>
<svg id="Layer_1" xmlns="http://www.w3.org/2000/svg" version="1.1" viewBox="0 0 170 44">
  <!-- Generator: Adobe Illustrator 29.8.3, SVG Export Plug-In . SVG Version: 2.1.1 Build 3)  -->
  <defs>
    <style>
      .st0 {
        fill: none;
        stroke: #373932;
        stroke-miterlimit: 10;
      }

      .st1 {
        fill: #373932;
      }
    </style>
  </defs>
  <rect class="st0" x="3.6" y="1.39" width="162.79" height="41.21" rx="20.61" ry="20.61"/>
  <g>
    <path class="st1" d="M50.48,28v-9.98h.62v2.79l-.08-.17c.29-.82.79-1.47,1.48-1.96.69-.49,1.54-.73,2.56-.73s1.87.26,2.55.77,1.09,1.28,1.26,2.31l-.17-.08c.26-.88.75-1.61,1.48-2.16.73-.56,1.64-.84,2.73-.84.81,0,1.5.16,2.09.48s1.04.79,1.36,1.41.48,1.39.48,2.3v5.86h-.63v-5.83c0-1.19-.29-2.1-.88-2.71-.58-.62-1.4-.92-2.45-.92-.79,0-1.49.17-2.08.5-.59.33-1.04.81-1.36,1.42-.31.62-.47,1.33-.47,2.15v5.38h-.63v-5.83c0-1.19-.29-2.1-.87-2.71-.58-.62-1.39-.92-2.44-.92-.81,0-1.5.17-2.09.5s-1.03.81-1.35,1.42c-.31.62-.47,1.33-.47,2.15v5.38h-.63Z"/>
    <path class="st1" d="M73.61,28.05c-.76,0-1.4-.12-1.93-.35-.53-.23-.94-.56-1.22-.99-.28-.43-.42-.92-.42-1.47,0-.49.12-.94.35-1.36.23-.42.61-.75,1.14-1,.53-.25,1.25-.38,2.14-.38h3.87v.52h-3.87c-1.09,0-1.86.21-2.32.62s-.68.93-.68,1.56c0,.71.26,1.27.79,1.68.53.42,1.26.62,2.19.62s1.68-.21,2.29-.62c.6-.42,1.06-1.01,1.36-1.78l.21.42c-.26.76-.72,1.37-1.38,1.83-.67.46-1.51.69-2.52.69ZM77.32,28v-2.33l-.02-.35v-3.79c0-.99-.26-1.74-.79-2.25s-1.29-.77-2.29-.77c-.73,0-1.4.12-2,.38s-1.12.57-1.56.97l-.35-.46c.47-.45,1.06-.8,1.75-1.07.69-.26,1.42-.39,2.17-.39,1.19,0,2.11.3,2.74.91.63.61.95,1.5.95,2.68v6.46h-.62Z"/>
    <path class="st1" d="M82.09,28v-9.98h.62v2.81l-.08-.17c.31-.83.82-1.49,1.53-1.98.71-.49,1.59-.73,2.64-.73.82,0,1.53.16,2.12.48s1.06.79,1.39,1.41.5,1.39.5,2.3v5.86h-.63v-5.83c0-1.19-.3-2.1-.9-2.71s-1.45-.92-2.54-.92c-.83,0-1.55.17-2.15.5-.6.33-1.06.81-1.38,1.42s-.48,1.33-.48,2.15v5.38h-.63Z"/>
    <path class="st1" d="M98.99,28.05c-.86,0-1.6-.16-2.21-.47-.62-.31-1.09-.78-1.42-1.4-.33-.62-.5-1.39-.5-2.3v-5.86h.63v5.83c0,1.19.31,2.09.92,2.71s1.48.92,2.6.92c.79,0,1.48-.17,2.07-.51s1.03-.82,1.34-1.43.46-1.33.46-2.13v-5.38h.63v9.98h-.62v-2.79l.08.17c-.28.82-.77,1.47-1.46,1.95s-1.53.72-2.52.72Z"/>
    <path class="st1" d="M110.41,28.05c-.76,0-1.4-.12-1.93-.35-.53-.23-.94-.56-1.22-.99-.28-.43-.42-.92-.42-1.47,0-.49.12-.94.35-1.36.23-.42.61-.75,1.14-1,.53-.25,1.25-.38,2.14-.38h3.87v.52h-3.87c-1.09,0-1.86.21-2.32.62s-.68.93-.68,1.56c0,.71.26,1.27.79,1.68.53.42,1.26.62,2.19.62s1.68-.21,2.29-.62c.6-.42,1.06-1.01,1.36-1.78l.21.42c-.26.76-.72,1.37-1.38,1.83-.67.46-1.51.69-2.52.69ZM114.12,28v-2.33l-.02-.35v-3.79c0-.99-.26-1.74-.79-2.25s-1.29-.77-2.29-.77c-.73,0-1.4.12-2,.38s-1.12.57-1.56.97l-.35-.46c.47-.45,1.06-.8,1.75-1.07.69-.26,1.42-.39,2.17-.39,1.19,0,2.11.3,2.74.91.63.61.95,1.5.95,2.68v6.46h-.62Z"/>
    <path class="st1" d="M118.88,28v-14.27h.63v14.27h-.63Z"/>
  </g>
  <circle class="st1" cx="146.5" cy="22" r="3.97"/>
</svg>