<?xml version="1.0" encoding="UTF-8"?>
<svg id="Layer_1" xmlns="http://www.w3.org/2000/svg" version="1.1" viewBox="0 0 192 108">
  <!-- Generator: Adobe Illustrator 29.8.3, SVG Export Plug-In . SVG Version: 2.1.1 Build 3)  -->
  <defs>
    <style>
      .st0 {
        fill: none;
        stroke: #373932;
        stroke-miterlimit: 10;
      }

      .st1 {
        fill: #373932;
      }
    </style>
  </defs>
  <rect class="st0" x="14.6" y="33.39" width="162.79" height="41.21" rx="20.61" ry="20.61"/>
  <g>
    <path class="st1" d="M53.58,50.42v-.37h5.67v.37h-5.67ZM57.91,60.05c-.78,0-1.38-.22-1.79-.67-.41-.45-.62-1.04-.62-1.77v-9.73h.38v9.63c0,.71.17,1.24.52,1.62.35.37.85.56,1.52.56s1.22-.21,1.65-.62l.27.27c-.23.24-.52.42-.88.54s-.71.17-1.07.17Z"/>
    <path class="st1" d="M66.21,60.05c-.96,0-1.81-.21-2.56-.64-.74-.43-1.33-1.03-1.76-1.79-.43-.76-.64-1.63-.64-2.61s.2-1.86.6-2.61c.4-.75.94-1.34,1.64-1.77.7-.43,1.48-.64,2.36-.64s1.66.21,2.35.62c.7.42,1.25,1,1.65,1.74.4.74.61,1.6.61,2.56v.1h-9v-.37h8.79l-.15.29c0-.87-.19-1.65-.56-2.35-.37-.69-.88-1.24-1.51-1.63-.63-.4-1.36-.6-2.18-.6s-1.53.2-2.17.6-1.14.94-1.51,1.63c-.37.69-.55,1.47-.55,2.35v.08c0,.91.2,1.72.6,2.42.4.71.94,1.26,1.63,1.65.69.4,1.48.6,2.36.6.67,0,1.3-.13,1.89-.38.6-.26,1.09-.64,1.49-1.15l.27.27c-.44.54-.97.95-1.62,1.22-.64.28-1.32.41-2.04.41Z"/>
    <path class="st1" d="M73.71,59.99v-14.27h.38v14.27h-.38Z"/>
    <path class="st1" d="M82.3,60.05c-.96,0-1.81-.21-2.56-.64-.74-.43-1.33-1.03-1.76-1.79-.43-.76-.64-1.63-.64-2.61s.2-1.86.6-2.61c.4-.75.94-1.34,1.64-1.77.7-.43,1.48-.64,2.36-.64s1.66.21,2.35.62c.7.42,1.25,1,1.65,1.74.4.74.61,1.6.61,2.56v.1h-9v-.37h8.79l-.15.29c0-.87-.19-1.65-.56-2.35-.37-.69-.88-1.24-1.51-1.63-.63-.4-1.36-.6-2.18-.6s-1.53.2-2.17.6-1.14.94-1.51,1.63c-.37.69-.55,1.47-.55,2.35v.08c0,.91.2,1.72.6,2.42.4.71.94,1.26,1.63,1.65.69.4,1.48.6,2.36.6.67,0,1.3-.13,1.89-.38.6-.26,1.09-.64,1.49-1.15l.27.27c-.44.54-.97.95-1.62,1.22-.64.28-1.32.41-2.04.41Z"/>
    <path class="st1" d="M93.51,59.67c-.92,0-1.75-.21-2.49-.62-.74-.42-1.32-.99-1.75-1.72-.43-.73-.64-1.56-.64-2.5s.21-1.78.64-2.51c.43-.72,1.01-1.29,1.75-1.7s1.57-.62,2.49-.62,1.77.21,2.49.62,1.29.98,1.71,1.7c.42.72.62,1.56.62,2.51s-.21,1.77-.62,2.5c-.42.73-.99,1.3-1.71,1.72-.72.42-1.55.62-2.49.62ZM93.51,59.3c.87,0,1.64-.19,2.32-.57.67-.38,1.2-.91,1.6-1.59.39-.68.59-1.45.59-2.33s-.2-1.66-.59-2.33c-.39-.67-.92-1.19-1.6-1.57s-1.45-.57-2.32-.57-1.63.19-2.31.57-1.21.9-1.6,1.57c-.39.67-.59,1.44-.59,2.33s.2,1.65.59,2.33c.39.68.93,1.21,1.6,1.59.68.38,1.45.57,2.31.57ZM93.8,63.78c-.9,0-1.74-.15-2.52-.44-.78-.3-1.41-.7-1.88-1.21l.27-.27c.51.5,1.12.88,1.83,1.15.7.27,1.47.4,2.31.4,1.44,0,2.5-.34,3.18-1.02.69-.68,1.03-1.76,1.03-3.23v-3.19l.19-1.15-.19-1.15v-3.61h.38v9.05c0,1.6-.38,2.78-1.14,3.54-.76.76-1.91,1.13-3.45,1.13Z"/>
    <path class="st1" d="M102.82,59.99v-9.94h.38v2.75l-.04-.06c.27-.87.74-1.55,1.41-2.03s1.52-.72,2.53-.72v.38h-.12c-1.19,0-2.12.38-2.79,1.14-.67.76-1,1.8-1,3.12v5.34h-.38Z"/>
    <path class="st1" d="M112.06,60.05c-.74,0-1.38-.12-1.9-.35-.53-.23-.93-.56-1.2-.98-.28-.42-.41-.91-.41-1.46,0-.47.11-.91.34-1.32.22-.4.59-.73,1.11-.98s1.21-.38,2.1-.38h3.98v.37h-4c-1.13,0-1.93.21-2.41.64-.48.43-.72.98-.72,1.64,0,.74.28,1.34.83,1.78.55.44,1.32.66,2.31.66s1.75-.22,2.38-.66c.62-.44,1.09-1.07,1.41-1.88l.19.25c-.27.79-.74,1.44-1.41,1.92s-1.53.73-2.57.73ZM115.85,59.99v-6.5c0-1.04-.27-1.82-.81-2.35-.54-.53-1.32-.79-2.35-.79-.74,0-1.42.13-2.04.38-.62.26-1.14.59-1.58,1l-.27-.27c.47-.45,1.05-.81,1.73-1.08.68-.27,1.39-.4,2.13-.4,1.15,0,2.04.29,2.64.88.61.59.91,1.46.91,2.6v6.52h-.38Z"/>
    <path class="st1" d="M120.54,59.99v-9.94h.38v2.81l-.04-.06c.28-.86.78-1.54,1.48-2.05.71-.51,1.58-.76,2.61-.76s1.87.26,2.54.78,1.08,1.29,1.25,2.32l-.06-.02c.24-.91.73-1.65,1.45-2.22.72-.57,1.64-.86,2.74-.86.79,0,1.48.16,2.06.47.58.31,1.02.78,1.34,1.39.31.62.47,1.37.47,2.27v5.86h-.38v-5.86c0-1.23-.3-2.17-.91-2.81-.61-.64-1.46-.96-2.55-.96-.85,0-1.57.18-2.18.53-.61.35-1.08.85-1.4,1.48-.33.63-.49,1.38-.49,2.22v5.4h-.38v-5.86c0-1.23-.3-2.17-.91-2.81-.61-.64-1.46-.96-2.55-.96-.85,0-1.57.18-2.18.53-.61.35-1.08.85-1.4,1.48-.33.63-.49,1.38-.49,2.22v5.4h-.38Z"/>
  </g>
  <circle class="st1" cx="157.74" cy="54" r="3.97"/>
</svg>