<?xml version="1.0" encoding="UTF-8"?>
<svg id="Layer_1" xmlns="http://www.w3.org/2000/svg" version="1.1" viewBox="0 0 424 60">
  <!-- Generator: Adobe Illustrator 29.8.3, SVG Export Plug-In . SVG Version: 2.1.1 Build 3)  -->
  <defs>
    <style>
      .st0 {
        fill: none;
        stroke: #373932;
        stroke-miterlimit: 10;
      }

      .st1 {
        fill: #373932;
      }
    </style>
  </defs>
  <rect class="st0" x="3.32" y="3.58" width="417.11" height="53" rx="26.49" ry="26.49"/>
  <g>
    <path class="st1" d="M90.46,25.8v-.72h7.53v.72h-7.53ZM96.19,38.09c-1.06,0-1.88-.3-2.44-.9-.57-.6-.85-1.4-.85-2.42v-12.54h.82v12.41c0,.88.22,1.55.65,2.02.43.47,1.06.7,1.89.7s1.54-.26,2.09-.77l.42.6c-.32.3-.71.52-1.17.67-.46.15-.94.22-1.42.22Z"/>
    <path class="st1" d="M102.45,38.01v-12.94h.8v3.56l-.07-.22c.35-1.08.96-1.92,1.83-2.53.87-.61,1.96-.91,3.28-.91v.82h-.22c-1.5,0-2.67.47-3.51,1.42-.85.95-1.27,2.25-1.27,3.91v6.88h-.82Z"/>
    <path class="st1" d="M114.64,38.09c-.98,0-1.82-.15-2.5-.45s-1.22-.73-1.58-1.28c-.37-.56-.55-1.19-.55-1.91,0-.63.15-1.22.45-1.76s.79-.97,1.48-1.3c.69-.32,1.62-.49,2.78-.49h5.01v.67h-5.01c-1.41,0-2.41.27-3,.8-.59.53-.88,1.21-.88,2.02,0,.91.34,1.64,1.02,2.18s1.63.81,2.84.81,2.19-.27,2.97-.81c.78-.54,1.37-1.31,1.77-2.31l.27.55c-.33.98-.93,1.77-1.79,2.37-.86.6-1.95.9-3.27.9ZM119.45,38.01v-3.02l-.03-.45v-4.91c0-1.28-.34-2.25-1.02-2.92-.68-.66-1.67-1-2.97-1-.95,0-1.81.16-2.59.49-.78.32-1.45.74-2.02,1.26l-.45-.6c.62-.58,1.37-1.04,2.27-1.38.9-.34,1.84-.51,2.82-.51,1.54,0,2.73.4,3.55,1.18.82.79,1.23,1.95,1.23,3.48v8.38h-.8Z"/>
    <path class="st1" d="M125.63,38.01v-12.94h.8v3.64l-.1-.22c.4-1.08,1.06-1.94,1.98-2.57.92-.63,2.06-.95,3.43-.95,1.06,0,1.98.21,2.75.62.77.42,1.38,1.03,1.81,1.83.43.81.65,1.8.65,2.98v7.6h-.82v-7.55c0-1.55-.39-2.72-1.17-3.51-.78-.8-1.88-1.2-3.29-1.2-1.08,0-2.01.22-2.79.65-.78.43-1.38,1.05-1.79,1.84-.42.8-.62,1.73-.62,2.79v6.98h-.82Z"/>
    <path class="st1" d="M145.45,38.09c-1.06,0-2.06-.16-2.99-.49-.93-.32-1.64-.74-2.12-1.23l.4-.65c.48.43,1.14.81,1.97,1.15.83.33,1.75.5,2.77.5,1.45,0,2.49-.25,3.13-.75.64-.5.96-1.15.96-1.94,0-.58-.16-1.04-.47-1.37-.32-.33-.73-.59-1.25-.77-.51-.18-1.08-.33-1.71-.44-.62-.11-1.25-.23-1.88-.37-.63-.14-1.21-.33-1.72-.57-.51-.24-.93-.58-1.25-1.01-.32-.43-.47-1.01-.47-1.72,0-.61.17-1.18.51-1.7.34-.51.86-.93,1.56-1.26.7-.32,1.59-.49,2.67-.49.8,0,1.6.12,2.41.36.81.24,1.45.56,1.93.96l-.42.65c-.51-.42-1.12-.72-1.81-.92s-1.4-.3-2.13-.3c-1.35,0-2.33.26-2.94.77-.62.52-.92,1.15-.92,1.89,0,.6.16,1.08.47,1.43.32.36.73.63,1.25.81.52.18,1.08.33,1.71.45.62.12,1.25.24,1.87.37s1.19.32,1.71.55c.51.23.93.56,1.25.97.32.42.47.98.47,1.69,0,.67-.19,1.26-.56,1.78-.37.52-.92.93-1.65,1.21-.72.28-1.63.42-2.73.42Z"/>
    <path class="st1" d="M157.46,38.09c-.98,0-1.82-.15-2.5-.45s-1.22-.73-1.58-1.28c-.37-.56-.55-1.19-.55-1.91,0-.63.15-1.22.45-1.76s.79-.97,1.48-1.3c.69-.32,1.62-.49,2.78-.49h5.01v.67h-5.01c-1.41,0-2.41.27-3,.8-.59.53-.88,1.21-.88,2.02,0,.91.34,1.64,1.02,2.18s1.63.81,2.84.81,2.19-.27,2.97-.81c.78-.54,1.37-1.31,1.77-2.31l.27.55c-.33.98-.93,1.77-1.79,2.37-.86.6-1.95.9-3.27.9ZM162.27,38.01v-3.02l-.03-.45v-4.91c0-1.28-.34-2.25-1.02-2.92-.68-.66-1.67-1-2.97-1-.95,0-1.81.16-2.59.49-.78.32-1.45.74-2.02,1.26l-.45-.6c.62-.58,1.37-1.04,2.27-1.38.9-.34,1.84-.51,2.82-.51,1.54,0,2.73.4,3.55,1.18.82.79,1.23,1.95,1.23,3.48v8.38h-.8Z"/>
    <path class="st1" d="M173.41,38.09c-1.23,0-2.33-.28-3.3-.83-.97-.56-1.74-1.33-2.29-2.32-.56-.99-.83-2.12-.83-3.4s.28-2.41.83-3.4,1.32-1.76,2.29-2.32c.97-.56,2.07-.83,3.3-.83.98,0,1.89.19,2.72.56.83.37,1.52.93,2.07,1.66l-.62.52c-.48-.68-1.08-1.18-1.81-1.5-.72-.32-1.51-.47-2.36-.47-1.06,0-2.02.24-2.87.72-.85.48-1.52,1.16-2.01,2.03-.49.87-.74,1.88-.74,3.03s.24,2.16.74,3.03c.49.87,1.16,1.55,2.01,2.04.85.49,1.8.74,2.87.74.85,0,1.63-.16,2.36-.49s1.33-.82,1.81-1.48l.62.5c-.55.75-1.24,1.3-2.07,1.67s-1.74.55-2.72.55Z"/>
    <path class="st1" d="M180.04,25.8v-.72h7.53v.72h-7.53ZM185.78,38.09c-1.06,0-1.88-.3-2.44-.9-.57-.6-.85-1.4-.85-2.42v-12.54h.82v12.41c0,.88.22,1.55.65,2.02.43.47,1.06.7,1.89.7s1.54-.26,2.09-.77l.42.6c-.32.3-.71.52-1.17.67-.46.15-.94.22-1.42.22Z"/>
    <path class="st1" d="M192.43,21.68c-.22,0-.41-.08-.57-.25-.17-.17-.25-.35-.25-.55,0-.23.08-.43.25-.59.17-.16.36-.24.57-.24.23,0,.43.08.59.24.16.16.24.35.24.56s-.08.41-.24.57c-.16.17-.35.25-.59.25ZM192.03,38.01v-12.94h.82v12.94h-.82Z"/>
    <path class="st1" d="M203.27,38.09c-1.21,0-2.3-.28-3.25-.83-.96-.56-1.71-1.33-2.27-2.32-.56-.99-.83-2.12-.83-3.4s.28-2.41.83-3.39c.56-.98,1.31-1.75,2.27-2.32.96-.56,2.04-.85,3.25-.85s2.3.28,3.27.83c.96.56,1.72,1.33,2.27,2.31.55.98.82,2.12.82,3.42s-.27,2.39-.82,3.39c-.55,1-1.3,1.77-2.27,2.33-.96.56-2.05.83-3.27.83ZM203.27,37.34c1.06,0,2.01-.25,2.85-.74.84-.49,1.5-1.18,1.97-2.06s.71-1.89.71-3.02-.24-2.16-.71-3.03c-.47-.87-1.13-1.55-1.97-2.03-.84-.48-1.78-.72-2.83-.72s-2.01.24-2.84.72-1.49,1.16-1.98,2.03c-.49.87-.74,1.88-.74,3.03s.24,2.14.74,3.02c.49.88,1.15,1.57,1.98,2.06s1.77.74,2.82.74Z"/>
    <path class="st1" d="M213.69,38.01v-12.94h.8v3.64l-.1-.22c.4-1.08,1.06-1.94,1.98-2.57.92-.63,2.06-.95,3.43-.95,1.06,0,1.98.21,2.75.62.77.42,1.38,1.03,1.81,1.83.43.81.65,1.8.65,2.98v7.6h-.82v-7.55c0-1.55-.39-2.72-1.17-3.51-.78-.8-1.88-1.2-3.29-1.2-1.08,0-2.01.22-2.79.65-.78.43-1.38,1.05-1.79,1.84-.42.8-.62,1.73-.62,2.79v6.98h-.82Z"/>
    <path class="st1" d="M239.82,38.09c-1.06,0-2.06-.16-2.99-.49-.93-.32-1.64-.74-2.12-1.23l.4-.65c.48.43,1.14.81,1.97,1.15.83.33,1.75.5,2.77.5,1.45,0,2.49-.25,3.13-.75.64-.5.96-1.15.96-1.94,0-.58-.16-1.04-.47-1.37-.32-.33-.73-.59-1.25-.77-.51-.18-1.08-.33-1.71-.44-.62-.11-1.25-.23-1.88-.37-.63-.14-1.21-.33-1.72-.57-.51-.24-.93-.58-1.25-1.01-.32-.43-.47-1.01-.47-1.72,0-.61.17-1.18.51-1.7.34-.51.86-.93,1.56-1.26.7-.32,1.59-.49,2.67-.49.8,0,1.6.12,2.41.36.81.24,1.45.56,1.93.96l-.42.65c-.51-.42-1.12-.72-1.81-.92s-1.4-.3-2.13-.3c-1.35,0-2.33.26-2.94.77-.62.52-.92,1.15-.92,1.89,0,.6.16,1.08.47,1.43.32.36.73.63,1.25.81.52.18,1.08.33,1.71.45.62.12,1.25.24,1.87.37s1.19.32,1.71.55c.51.23.93.56,1.25.97.32.42.47.98.47,1.69,0,.67-.19,1.26-.56,1.78-.37.52-.92.93-1.65,1.21-.72.28-1.63.42-2.73.42Z"/>
    <path class="st1" d="M253.5,38.09c-1.28,0-2.41-.28-3.39-.83-.98-.56-1.75-1.33-2.32-2.33-.57-1-.85-2.13-.85-3.39s.26-2.41.79-3.39c.52-.98,1.25-1.75,2.17-2.32s1.96-.85,3.13-.85,2.18.27,3.1.82c.92.55,1.65,1.31,2.17,2.28s.79,2.09.79,3.35v.22h-11.59v-.67h11.14l-.32.4c0-1.08-.23-2.05-.69-2.9-.46-.86-1.08-1.53-1.88-2.02-.8-.49-1.7-.74-2.72-.74s-1.92.25-2.72.74c-.8.49-1.42,1.16-1.88,2.02-.46.86-.69,1.83-.69,2.93v.15c0,1.13.25,2.13.75,3,.5.87,1.18,1.55,2.04,2.04s1.85.74,2.97.74c.85,0,1.65-.16,2.41-.47.76-.32,1.38-.8,1.88-1.45l.52.55c-.58.7-1.29,1.23-2.13,1.58s-1.73.54-2.68.54Z"/>
    <path class="st1" d="M263.15,38.01v-12.94h.8v3.64l-.1-.22c.4-1.08,1.06-1.94,1.98-2.57.92-.63,2.06-.95,3.43-.95,1.06,0,1.98.21,2.75.62.77.42,1.38,1.03,1.81,1.83.43.81.65,1.8.65,2.98v7.6h-.82v-7.55c0-1.55-.39-2.72-1.17-3.51-.78-.8-1.88-1.2-3.29-1.2-1.08,0-2.01.22-2.79.65-.78.43-1.38,1.05-1.79,1.84-.42.8-.62,1.73-.62,2.79v6.98h-.82Z"/>
    <path class="st1" d="M284.71,38.09c-1.2,0-2.27-.28-3.23-.83-.96-.56-1.71-1.33-2.27-2.32-.56-.99-.83-2.12-.83-3.4s.28-2.43.83-3.4,1.31-1.74,2.27-2.31c.96-.56,2.03-.85,3.23-.85s2.21.27,3.14.82c.93.55,1.67,1.31,2.21,2.29.54.98.81,2.13.81,3.44s-.27,2.44-.81,3.44-1.28,1.77-2.21,2.31-1.98.81-3.14.81ZM284.73,37.34c1.06,0,2.01-.25,2.84-.74s1.49-1.18,1.97-2.06c.48-.88.72-1.89.72-3.02s-.24-2.16-.72-3.03c-.48-.87-1.14-1.55-1.97-2.03s-1.78-.72-2.84-.72-1.99.24-2.82.72-1.49,1.16-1.98,2.03c-.49.87-.74,1.88-.74,3.03s.24,2.14.74,3.02c.49.88,1.15,1.57,1.98,2.06s1.77.74,2.82.74ZM290.29,38.01v-4.54l.22-1.97-.25-1.97v-10.02h.82v18.5h-.8Z"/>
    <path class="st1" d="M297.02,21.68c-.22,0-.41-.08-.57-.25-.17-.17-.25-.35-.25-.55,0-.23.08-.43.25-.59.17-.16.36-.24.57-.24.23,0,.43.08.59.24.16.16.24.35.24.56s-.08.41-.24.57c-.16.17-.35.25-.59.25ZM296.62,38.01v-12.94h.82v12.94h-.82Z"/>
    <path class="st1" d="M302.98,38.01v-12.94h.8v3.64l-.1-.22c.4-1.08,1.06-1.94,1.98-2.57.92-.63,2.06-.95,3.43-.95,1.06,0,1.98.21,2.75.62.77.42,1.38,1.03,1.81,1.83.43.81.65,1.8.65,2.98v7.6h-.82v-7.55c0-1.55-.39-2.72-1.17-3.51-.78-.8-1.88-1.2-3.29-1.2-1.08,0-2.01.22-2.79.65-.78.43-1.38,1.05-1.79,1.84-.42.8-.62,1.73-.62,2.79v6.98h-.82Z"/>
    <path class="st1" d="M324.62,37.56c-1.21,0-2.3-.27-3.27-.81s-1.73-1.28-2.29-2.23c-.57-.95-.85-2.04-.85-3.27s.28-2.32.85-3.27c.56-.95,1.33-1.69,2.29-2.22.96-.53,2.05-.8,3.27-.8s2.26.26,3.19.79,1.67,1.25,2.22,2.19c.55.94.82,2.04.82,3.3s-.27,2.37-.82,3.32c-.55.95-1.29,1.68-2.22,2.21s-1.99.79-3.19.79ZM324.64,36.82c1.1,0,2.06-.23,2.9-.7.84-.46,1.5-1.12,1.98-1.97.48-.85.72-1.81.72-2.89s-.24-2.06-.72-2.88c-.48-.82-1.14-1.47-1.98-1.93-.84-.47-1.81-.7-2.9-.7s-2.02.23-2.87.7c-.85.47-1.52,1.11-2.01,1.93-.49.82-.74,1.78-.74,2.88s.24,2.04.74,2.89c.49.85,1.16,1.5,2.01,1.97.85.46,1.8.7,2.87.7ZM324.97,42.92c-1.16,0-2.26-.19-3.3-.56-1.04-.37-1.87-.88-2.51-1.53l.47-.62c.67.63,1.45,1.12,2.37,1.46s1.89.51,2.94.51c1.81,0,3.15-.43,4.01-1.28.86-.86,1.3-2.2,1.3-4.03v-3.91l.25-1.7-.22-1.69v-4.49h.8v11.69c0,2.11-.51,3.67-1.52,4.66s-2.54,1.5-4.59,1.5Z"/>
  </g>
  <circle class="st1" cx="392.04" cy="31.37" r="5.11"/>
</svg>