<?xml version="1.0" encoding="UTF-8"?>
<svg id="Layer_1" xmlns="http://www.w3.org/2000/svg" version="1.1" viewBox="0 0 430 108">
  <!-- Generator: Adobe Illustrator 29.8.3, SVG Export Plug-In . SVG Version: 2.1.1 Build 3)  -->
  <defs>
    <style>
      .st0 {
        fill: none;
        stroke: #373932;
        stroke-miterlimit: 10;
      }

      .st1 {
        fill: #373932;
      }
    </style>
  </defs>
  <rect class="st0" x="6.81" y="28.5" width="417.11" height="53" rx="26.49" ry="26.49"/>
  <g>
    <path class="st1" d="M94.86,50.51v-.47h7.35v.47h-7.35ZM100.47,63c-1.01,0-1.79-.29-2.32-.87-.53-.58-.8-1.35-.8-2.29v-12.61h.5v12.49c0,.91.22,1.61.67,2.09.45.48,1.11.72,1.97.72s1.58-.27,2.14-.8l.35.35c-.3.32-.68.55-1.13.7s-.92.22-1.38.22Z"/>
    <path class="st1" d="M106.82,62.92v-12.89h.5v3.56l-.05-.07c.35-1.13.96-2.01,1.83-2.63.87-.62,1.96-.93,3.28-.93v.5h-.15c-1.54,0-2.75.49-3.61,1.48-.86.99-1.3,2.34-1.3,4.05v6.93h-.5Z"/>
    <path class="st1" d="M118.81,63c-.96,0-1.79-.15-2.47-.45-.68-.3-1.2-.72-1.56-1.27-.36-.55-.54-1.18-.54-1.89,0-.62.15-1.18.44-1.71.29-.52.77-.95,1.43-1.27.66-.32,1.57-.49,2.72-.49h5.16v.47h-5.18c-1.46,0-2.5.28-3.13.83s-.93,1.27-.93,2.13c0,.96.36,1.73,1.07,2.31s1.71.86,2.99.86,2.27-.29,3.08-.86c.81-.57,1.42-1.38,1.83-2.43l.25.32c-.35,1.03-.96,1.86-1.83,2.49-.87.63-1.98.95-3.33.95ZM123.73,62.92v-8.43c0-1.35-.35-2.36-1.05-3.04-.7-.68-1.71-1.02-3.04-1.02-.96,0-1.84.17-2.64.5-.8.33-1.48.76-2.04,1.3l-.35-.35c.62-.58,1.36-1.05,2.24-1.4.88-.35,1.8-.52,2.77-.52,1.5,0,2.64.38,3.43,1.15.79.76,1.18,1.89,1.18,3.37v8.45h-.5Z"/>
    <path class="st1" d="M129.81,62.92v-12.89h.5v3.66l-.05-.07c.38-1.13,1.04-2.02,1.97-2.68.93-.66,2.09-.98,3.49-.98,1.06,0,1.98.2,2.74.61.76.41,1.36,1.01,1.78,1.81.42.8.63,1.78.63,2.94v7.6h-.5v-7.6c0-1.6-.41-2.81-1.22-3.64-.81-.83-1.95-1.25-3.42-1.25-1.13,0-2.1.23-2.92.69-.81.46-1.44,1.1-1.87,1.92-.43.82-.65,1.78-.65,2.88v7h-.5Z"/>
    <path class="st1" d="M149.43,63c-1.05,0-2.03-.17-2.94-.5-.91-.33-1.61-.76-2.09-1.27l.3-.4c.46.45,1.11.84,1.94,1.18s1.76.51,2.79.51c1.53,0,2.62-.27,3.29-.8.67-.53,1-1.22,1-2.07,0-.61-.16-1.1-.47-1.46-.32-.36-.74-.63-1.26-.82-.52-.19-1.1-.34-1.73-.46s-1.26-.24-1.89-.37-1.21-.32-1.73-.56c-.52-.24-.94-.57-1.26-1-.32-.42-.47-.99-.47-1.71,0-.58.16-1.12.47-1.62s.81-.91,1.48-1.22c.67-.32,1.54-.47,2.6-.47.8,0,1.59.12,2.37.36.78.24,1.41.56,1.89.96l-.3.4c-.52-.42-1.12-.73-1.82-.93-.7-.21-1.41-.31-2.14-.31-1.41,0-2.44.27-3.08.82-.64.55-.96,1.22-.96,2.02,0,.63.16,1.13.47,1.51s.74.66,1.26.86,1.1.36,1.73.47,1.26.24,1.88.37c.62.13,1.2.32,1.72.55.52.23.94.55,1.26.96.32.41.47.96.47,1.66,0,.65-.17,1.23-.52,1.73-.35.51-.88.9-1.58,1.18-.71.28-1.6.42-2.68.42Z"/>
    <path class="st1" d="M161.31,63c-.96,0-1.79-.15-2.47-.45-.68-.3-1.2-.72-1.56-1.27-.36-.55-.54-1.18-.54-1.89,0-.62.15-1.18.44-1.71.29-.52.77-.95,1.43-1.27.66-.32,1.57-.49,2.72-.49h5.16v.47h-5.18c-1.46,0-2.5.28-3.13.83s-.93,1.27-.93,2.13c0,.96.36,1.73,1.07,2.31s1.71.86,2.99.86,2.27-.29,3.08-.86c.81-.57,1.42-1.38,1.83-2.43l.25.32c-.35,1.03-.96,1.86-1.83,2.49-.87.63-1.98.95-3.33.95ZM166.23,62.92v-8.43c0-1.35-.35-2.36-1.05-3.04-.7-.68-1.71-1.02-3.04-1.02-.96,0-1.84.17-2.64.5-.8.33-1.48.76-2.04,1.3l-.35-.35c.62-.58,1.36-1.05,2.24-1.4.88-.35,1.8-.52,2.77-.52,1.5,0,2.64.38,3.43,1.15.79.76,1.18,1.89,1.18,3.37v8.45h-.5Z"/>
    <path class="st1" d="M177.12,63c-1.21,0-2.3-.28-3.25-.83-.96-.56-1.71-1.33-2.26-2.31-.55-.98-.82-2.11-.82-3.39s.27-2.41.82-3.39c.55-.98,1.3-1.74,2.26-2.29.96-.55,2.04-.82,3.25-.82.93,0,1.8.17,2.6.52s1.48.87,2.03,1.57l-.35.37c-.5-.68-1.12-1.18-1.87-1.51-.75-.32-1.55-.49-2.42-.49-1.11,0-2.11.25-2.99.76-.88.51-1.58,1.21-2.08,2.12-.51.91-.76,1.96-.76,3.15s.25,2.25.76,3.15c.51.91,1.2,1.62,2.08,2.13.88.51,1.88.77,2.99.77.86,0,1.67-.17,2.42-.5.75-.33,1.37-.83,1.87-1.5l.35.37c-.55.7-1.23,1.22-2.03,1.57-.81.35-1.67.52-2.6.52Z"/>
    <path class="st1" d="M183.72,50.51v-.47h7.35v.47h-7.35ZM189.33,63c-1.01,0-1.79-.29-2.32-.87-.53-.58-.8-1.35-.8-2.29v-12.61h.5v12.49c0,.91.22,1.61.67,2.09.45.48,1.11.72,1.97.72s1.58-.27,2.14-.8l.35.35c-.3.32-.68.55-1.13.7s-.92.22-1.38.22Z"/>
    <path class="st1" d="M195.94,46.47c-.17,0-.32-.07-.45-.2s-.2-.28-.2-.45c0-.18.07-.34.2-.46s.28-.19.45-.19c.18,0,.34.06.46.19.12.12.19.28.19.46,0,.17-.06.32-.19.45-.12.13-.28.2-.46.2ZM195.69,62.92v-12.89h.5v12.89h-.5Z"/>
    <path class="st1" d="M206.66,63c-1.2,0-2.26-.28-3.2-.83s-1.68-1.33-2.23-2.32c-.55-.99-.82-2.11-.82-3.38s.27-2.41.82-3.38c.55-.97,1.29-1.74,2.23-2.29.94-.56,2.01-.83,3.2-.83s2.27.28,3.22.83c.95.56,1.69,1.32,2.23,2.29s.81,2.1.81,3.38-.27,2.39-.81,3.38c-.54.99-1.28,1.76-2.23,2.32s-2.02.83-3.22.83ZM206.66,62.52c1.1,0,2.08-.26,2.95-.77.87-.52,1.56-1.23,2.06-2.14.5-.91.75-1.96.75-3.14s-.25-2.25-.75-3.15c-.5-.91-1.18-1.61-2.06-2.12-.87-.51-1.86-.76-2.95-.76s-2.08.25-2.94.76-1.55,1.21-2.06,2.12c-.51.91-.76,1.96-.76,3.15s.25,2.23.76,3.14c.51.91,1.19,1.63,2.06,2.14.86.51,1.84.77,2.94.77Z"/>
    <path class="st1" d="M217.12,62.92v-12.89h.5v3.66l-.05-.07c.38-1.13,1.04-2.02,1.97-2.68.93-.66,2.09-.98,3.49-.98,1.06,0,1.98.2,2.74.61.76.41,1.36,1.01,1.78,1.81.42.8.63,1.78.63,2.94v7.6h-.5v-7.6c0-1.6-.41-2.81-1.22-3.64-.81-.83-1.95-1.25-3.42-1.25-1.13,0-2.1.23-2.92.69-.81.46-1.44,1.1-1.87,1.92-.43.82-.65,1.78-.65,2.88v7h-.5Z"/>
    <path class="st1" d="M242.97,63c-1.05,0-2.03-.17-2.94-.5-.91-.33-1.61-.76-2.09-1.27l.3-.4c.46.45,1.11.84,1.94,1.18s1.76.51,2.79.51c1.53,0,2.62-.27,3.29-.8.67-.53,1-1.22,1-2.07,0-.61-.16-1.1-.47-1.46-.32-.36-.74-.63-1.26-.82-.52-.19-1.1-.34-1.73-.46s-1.26-.24-1.89-.37-1.21-.32-1.73-.56c-.52-.24-.94-.57-1.26-1-.32-.42-.47-.99-.47-1.71,0-.58.16-1.12.47-1.62s.81-.91,1.48-1.22c.67-.32,1.54-.47,2.6-.47.8,0,1.59.12,2.37.36.78.24,1.41.56,1.89.96l-.3.4c-.52-.42-1.12-.73-1.82-.93-.7-.21-1.41-.31-2.14-.31-1.41,0-2.44.27-3.08.82-.64.55-.96,1.22-.96,2.02,0,.63.16,1.13.47,1.51s.74.66,1.26.86,1.1.36,1.73.47,1.26.24,1.88.37c.62.13,1.2.32,1.72.55.52.23.94.55,1.26.96.32.41.47.96.47,1.66,0,.65-.17,1.23-.52,1.73-.35.51-.88.9-1.58,1.18-.71.28-1.6.42-2.68.42Z"/>
    <path class="st1" d="M256.46,63c-1.25,0-2.35-.28-3.32-.83s-1.72-1.33-2.28-2.32c-.56-.99-.83-2.11-.83-3.38s.26-2.41.77-3.38c.51-.97,1.22-1.74,2.13-2.29.91-.56,1.92-.83,3.05-.83s2.15.27,3.05.81c.91.54,1.62,1.29,2.14,2.26.52.96.79,2.07.79,3.32v.12h-11.67v-.47h11.39l-.2.37c0-1.13-.24-2.14-.72-3.04-.48-.9-1.13-1.6-1.96-2.12-.82-.51-1.77-.77-2.83-.77s-1.99.26-2.82.77c-.83.52-1.48,1.22-1.96,2.12s-.71,1.91-.71,3.04v.1c0,1.18.26,2.23.77,3.14.51.91,1.22,1.63,2.12,2.14.9.51,1.92.77,3.07.77.86,0,1.68-.17,2.46-.5.77-.33,1.42-.83,1.93-1.5l.35.35c-.57.7-1.26,1.23-2.09,1.58s-1.71.54-2.64.54Z"/>
    <path class="st1" d="M266.18,62.92v-12.89h.5v3.66l-.05-.07c.38-1.13,1.04-2.02,1.97-2.68.93-.66,2.09-.98,3.49-.98,1.06,0,1.98.2,2.74.61.76.41,1.36,1.01,1.78,1.81.42.8.63,1.78.63,2.94v7.6h-.5v-7.6c0-1.6-.41-2.81-1.22-3.64-.81-.83-1.95-1.25-3.42-1.25-1.13,0-2.1.23-2.92.69-.81.46-1.44,1.1-1.87,1.92-.43.82-.65,1.78-.65,2.88v7h-.5Z"/>
    <path class="st1" d="M287.57,63c-1.18,0-2.24-.28-3.19-.83s-1.7-1.33-2.24-2.32c-.55-.99-.82-2.11-.82-3.38s.27-2.41.82-3.38c.55-.97,1.3-1.74,2.24-2.29.95-.56,2.01-.83,3.19-.83s2.24.28,3.17.83c.93.56,1.67,1.32,2.21,2.29s.81,2.1.81,3.38-.27,2.39-.81,3.38c-.54.99-1.28,1.76-2.21,2.32s-1.99.83-3.17.83ZM287.57,62.52c1.1,0,2.08-.26,2.95-.77.87-.52,1.56-1.23,2.06-2.14.5-.91.75-1.96.75-3.14s-.25-2.25-.75-3.15c-.5-.91-1.18-1.61-2.06-2.12-.87-.51-1.86-.76-2.95-.76s-2.08.25-2.94.76-1.55,1.21-2.06,2.12c-.51.91-.76,1.96-.76,3.15s.25,2.23.76,3.14c.51.91,1.19,1.63,2.06,2.14.86.51,1.84.77,2.94.77ZM293.33,62.92v-4.74l.25-1.74-.25-1.75v-10.27h.5v18.5h-.5Z"/>
    <path class="st1" d="M299.81,46.47c-.17,0-.32-.07-.45-.2s-.2-.28-.2-.45c0-.18.07-.34.2-.46s.28-.19.45-.19c.18,0,.34.06.46.19.12.12.19.28.19.46,0,.17-.06.32-.19.45-.12.13-.28.2-.46.2ZM299.56,62.92v-12.89h.5v12.89h-.5Z"/>
    <path class="st1" d="M305.79,62.92v-12.89h.5v3.66l-.05-.07c.38-1.13,1.04-2.02,1.97-2.68.93-.66,2.09-.98,3.49-.98,1.06,0,1.98.2,2.74.61.76.41,1.36,1.01,1.78,1.81.42.8.63,1.78.63,2.94v7.6h-.5v-7.6c0-1.6-.41-2.81-1.22-3.64-.81-.83-1.95-1.25-3.42-1.25-1.13,0-2.1.23-2.92.69-.81.46-1.44,1.1-1.87,1.92-.43.82-.65,1.78-.65,2.88v7h-.5Z"/>
    <path class="st1" d="M327.25,62.5c-1.2,0-2.27-.27-3.23-.81s-1.71-1.28-2.27-2.23-.83-2.03-.83-3.24.28-2.31.83-3.25,1.31-1.67,2.27-2.21,2.03-.8,3.23-.8,2.29.27,3.23.8,1.68,1.27,2.22,2.21.81,2.02.81,3.25-.27,2.29-.81,3.24-1.28,1.69-2.22,2.23-2.01.81-3.23.81ZM327.25,62.03c1.13,0,2.13-.25,3-.74.87-.49,1.56-1.17,2.07-2.06s.76-1.89.76-3.02-.25-2.15-.76-3.02c-.51-.86-1.2-1.54-2.07-2.03-.87-.49-1.87-.74-3-.74s-2.11.25-2.99.74c-.88.49-1.58,1.17-2.08,2.03-.51.86-.76,1.87-.76,3.02s.25,2.14.76,3.02,1.2,1.57,2.08,2.06c.88.49,1.88.74,2.99.74ZM327.62,67.83c-1.16,0-2.25-.19-3.27-.57-1.01-.38-1.83-.91-2.44-1.57l.35-.35c.66.65,1.45,1.15,2.37,1.5.91.35,1.91.52,2.99.52,1.86,0,3.24-.44,4.12-1.32.89-.88,1.33-2.28,1.33-4.19v-4.14l.25-1.5-.25-1.5v-4.69h.5v11.74c0,2.08-.49,3.61-1.48,4.59-.99.98-2.48,1.47-4.47,1.47Z"/>
  </g>
  <circle class="st1" cx="395.53" cy="56.28" r="5.11"/>
</svg>