<?xml version="1.0" encoding="UTF-8"?>
<svg id="Layer_1" xmlns="http://www.w3.org/2000/svg" version="1.1" viewBox="0 0 220 60">
  <!-- Generator: Adobe Illustrator 29.8.3, SVG Export Plug-In . SVG Version: 2.1.1 Build 3)  -->
  <defs>
    <style>
      .st0 {
        fill: none;
        stroke: #373932;
        stroke-miterlimit: 10;
      }

      .st1 {
        fill: #373932;
      }
    </style>
  </defs>
  <rect class="st0" x="5.04" y="3.43" width="209.93" height="53.14" rx="26.57" ry="26.57"/>
  <g>
    <path class="st1" d="M65.11,38.13v-12.98h.8v3.62l-.1-.23c.38-1.07,1.03-1.92,1.93-2.55.9-.63,2.01-.95,3.32-.95s2.44.33,3.31,1c.88.67,1.42,1.67,1.64,3l-.22-.1c.33-1.15.97-2.09,1.92-2.81.95-.73,2.13-1.09,3.55-1.09,1.05,0,1.95.21,2.71.62.76.42,1.35,1.03,1.76,1.84.42.81.62,1.8.62,2.99v7.63h-.83v-7.58c0-1.55-.38-2.72-1.14-3.52-.76-.8-1.82-1.2-3.19-1.2-1.03,0-1.93.22-2.7.65-.77.43-1.35,1.05-1.76,1.85-.41.8-.61,1.73-.61,2.8v7h-.83v-7.58c0-1.55-.38-2.72-1.12-3.52-.75-.8-1.81-1.2-3.17-1.2-1.05,0-1.95.22-2.71.65-.76.43-1.34,1.05-1.75,1.85-.41.8-.61,1.73-.61,2.8v7h-.82Z"/>
    <path class="st1" d="M95.19,38.21c-.98,0-1.82-.15-2.51-.45s-1.22-.73-1.59-1.29c-.37-.56-.55-1.2-.55-1.91,0-.63.15-1.22.45-1.76.3-.54.8-.97,1.49-1.3s1.62-.49,2.79-.49h5.02v.67h-5.02c-1.42,0-2.42.27-3.01.8-.59.53-.89,1.21-.89,2.03,0,.92.34,1.65,1.03,2.19.68.54,1.63.81,2.85.81s2.19-.27,2.97-.81,1.38-1.31,1.78-2.31l.28.55c-.33.98-.93,1.78-1.8,2.38-.87.6-1.96.9-3.27.9ZM100.01,38.13v-3.03l-.03-.45v-4.92c0-1.28-.34-2.26-1.03-2.93-.68-.67-1.67-1-2.97-1-.95,0-1.82.16-2.6.49-.78.32-1.46.75-2.03,1.26l-.45-.6c.62-.58,1.38-1.05,2.28-1.39.9-.34,1.84-.51,2.83-.51,1.55,0,2.74.4,3.56,1.19.82.79,1.24,1.95,1.24,3.49v8.4h-.8Z"/>
    <path class="st1" d="M106.21,38.13v-12.98h.8v3.65l-.1-.22c.4-1.08,1.06-1.94,1.99-2.58.92-.63,2.07-.95,3.44-.95,1.07,0,1.99.21,2.76.62.78.42,1.38,1.03,1.81,1.84s.65,1.8.65,2.99v7.63h-.83v-7.58c0-1.55-.39-2.72-1.17-3.52-.78-.8-1.88-1.2-3.3-1.2-1.08,0-2.02.22-2.8.65-.78.43-1.38,1.05-1.8,1.85-.42.8-.62,1.73-.62,2.8v7h-.82Z"/>
    <path class="st1" d="M128.19,38.21c-1.12,0-2.08-.2-2.88-.61-.8-.41-1.42-1.02-1.85-1.82-.43-.81-.65-1.8-.65-2.99v-7.62h.83v7.58c0,1.55.4,2.73,1.2,3.53.8.8,1.92,1.2,3.38,1.2,1.03,0,1.93-.22,2.69-.66.76-.44,1.34-1.06,1.74-1.86.4-.8.6-1.72.6-2.78v-7h.83v12.98h-.8v-3.62l.1.22c-.37,1.07-1,1.91-1.9,2.54-.9.62-1.99.94-3.28.94Z"/>
    <path class="st1" d="M143.04,38.21c-.98,0-1.82-.15-2.51-.45s-1.22-.73-1.59-1.29c-.37-.56-.55-1.2-.55-1.91,0-.63.15-1.22.45-1.76.3-.54.8-.97,1.49-1.3s1.62-.49,2.79-.49h5.02v.67h-5.02c-1.42,0-2.42.27-3.01.8-.59.53-.89,1.21-.89,2.03,0,.92.34,1.65,1.03,2.19.68.54,1.63.81,2.85.81s2.19-.27,2.97-.81,1.38-1.31,1.78-2.31l.28.55c-.33.98-.93,1.78-1.8,2.38-.87.6-1.96.9-3.27.9ZM147.86,38.13v-3.03l-.03-.45v-4.92c0-1.28-.34-2.26-1.03-2.93-.68-.67-1.67-1-2.97-1-.95,0-1.82.16-2.6.49-.78.32-1.46.75-2.03,1.26l-.45-.6c.62-.58,1.38-1.05,2.28-1.39.9-.34,1.84-.51,2.83-.51,1.55,0,2.74.4,3.56,1.19.82.79,1.24,1.95,1.24,3.49v8.4h-.8Z"/>
    <path class="st1" d="M154.06,38.13v-18.55h.82v18.55h-.82Z"/>
  </g>
  <circle class="st1" cx="189.31" cy="30" r="5.12"/>
</svg>