<?xml version="1.0" encoding="UTF-8"?>
<svg id="Layer_1" xmlns="http://www.w3.org/2000/svg" version="1.1" viewBox="0 0 424 60">
  <!-- Generator: Adobe Illustrator 29.8.3, SVG Export Plug-In . SVG Version: 2.1.1 Build 3)  -->
  <defs>
    <style>
      .st0 {
        fill: none;
        stroke: #373932;
        stroke-miterlimit: 10;
      }

      .st1 {
        fill: #373932;
      }
    </style>
  </defs>
  <rect class="st0" x="3.32" y="3.58" width="417.11" height="53" rx="26.49" ry="26.49"/>
  <g>
    <path class="st1" d="M139.85,39.3c-1.07,0-2.07-.16-3-.49-.93-.33-1.64-.74-2.12-1.24l.4-.65c.48.43,1.14.82,1.98,1.15.83.33,1.76.5,2.77.5,1.45,0,2.5-.25,3.14-.75s.96-1.15.96-1.95c0-.58-.16-1.04-.48-1.38s-.73-.59-1.25-.78c-.52-.18-1.09-.33-1.71-.44s-1.25-.23-1.89-.38c-.63-.14-1.21-.33-1.73-.58-.52-.24-.93-.58-1.25-1.01-.32-.43-.48-1.01-.48-1.73,0-.62.17-1.18.51-1.7.34-.52.86-.94,1.56-1.26.7-.33,1.59-.49,2.67-.49.8,0,1.6.12,2.41.36.81.24,1.45.56,1.94.96l-.43.65c-.52-.42-1.12-.73-1.81-.92-.69-.2-1.4-.3-2.14-.3-1.35,0-2.33.26-2.95.78s-.92,1.15-.92,1.9c0,.6.16,1.08.48,1.44.32.36.73.63,1.25.81.52.18,1.09.33,1.71.45.62.12,1.25.24,1.88.38.62.13,1.2.32,1.71.55s.93.56,1.25.97c.32.42.48.98.48,1.7,0,.67-.19,1.26-.56,1.79-.38.53-.93.93-1.65,1.21-.73.28-1.64.42-2.74.42Z"/>
    <path class="st1" d="M148.48,39.22v-18.55h.83v9.22l-.12-.22c.4-1.08,1.06-1.94,1.99-2.58.93-.63,2.07-.95,3.44-.95,1.07,0,1.99.21,2.76.62.77.42,1.38,1.03,1.81,1.84.43.81.65,1.8.65,2.99v7.62h-.83v-7.58c0-1.55-.39-2.72-1.17-3.52-.78-.8-1.88-1.2-3.3-1.2-1.08,0-2.02.22-2.8.65-.78.43-1.38,1.05-1.8,1.85-.42.8-.62,1.73-.62,2.8v7h-.83Z"/>
    <path class="st1" d="M165.23,39.22v-12.98h.8v3.58l-.08-.23c.35-1.08.96-1.93,1.84-2.54.88-.61,1.97-.91,3.29-.91v.83h-.23c-1.5,0-2.67.48-3.52,1.42-.85.95-1.27,2.26-1.27,3.93v6.9h-.83Z"/>
    <path class="st1" d="M179.68,39.3c-1.28,0-2.42-.28-3.4-.84-.98-.56-1.76-1.34-2.33-2.34-.57-1-.85-2.13-.85-3.4s.26-2.42.79-3.4,1.25-1.76,2.18-2.33c.92-.57,1.97-.85,3.14-.85s2.19.28,3.11.83c.92.55,1.65,1.31,2.17,2.29s.79,2.1.79,3.36v.22h-11.62v-.67h11.17l-.32.4c0-1.08-.23-2.05-.69-2.91-.46-.86-1.09-1.53-1.89-2.02s-1.71-.74-2.73-.74-1.92.25-2.73.74c-.8.49-1.43,1.17-1.89,2.02-.46.86-.69,1.84-.69,2.94v.15c0,1.13.25,2.14.75,3.01s1.18,1.56,2.05,2.05,1.86.74,2.98.74c.85,0,1.65-.16,2.41-.47.76-.32,1.39-.8,1.89-1.45l.53.55c-.58.7-1.3,1.23-2.14,1.59-.84.36-1.74.54-2.69.54Z"/>
    <path class="st1" d="M194.22,39.3c-1.2,0-2.28-.28-3.24-.84-.96-.56-1.72-1.33-2.27-2.32-.56-.99-.84-2.13-.84-3.41s.28-2.44.84-3.41c.56-.98,1.32-1.75,2.27-2.31.96-.57,2.04-.85,3.24-.85s2.22.28,3.15.83,1.67,1.32,2.21,2.3c.54.98.81,2.13.81,3.45s-.27,2.45-.81,3.45c-.54,1-1.28,1.77-2.21,2.31-.93.54-1.98.81-3.15.81ZM194.25,38.55c1.07,0,2.02-.25,2.85-.74s1.49-1.18,1.98-2.06.73-1.89.73-3.03-.24-2.16-.73-3.04-1.14-1.55-1.98-2.04c-.83-.48-1.78-.72-2.85-.72s-1.99.24-2.82.72c-.83.48-1.5,1.16-1.99,2.04s-.74,1.89-.74,3.04.25,2.14.74,3.03,1.15,1.57,1.99,2.06c.83.49,1.77.74,2.82.74ZM199.82,39.22v-4.55l.23-1.97-.25-1.98v-10.05h.82v18.55h-.8Z"/>
    <path class="st1" d="M209.3,39.3c-1.07,0-2.07-.16-3-.49-.93-.33-1.64-.74-2.12-1.24l.4-.65c.48.43,1.14.82,1.98,1.15.83.33,1.76.5,2.77.5,1.45,0,2.5-.25,3.14-.75s.96-1.15.96-1.95c0-.58-.16-1.04-.47-1.38s-.73-.59-1.25-.78c-.52-.18-1.09-.33-1.71-.44s-1.25-.23-1.89-.38c-.63-.14-1.21-.33-1.73-.58-.52-.24-.93-.58-1.25-1.01-.32-.43-.48-1.01-.48-1.73,0-.62.17-1.18.51-1.7.34-.52.86-.94,1.56-1.26.7-.33,1.59-.49,2.67-.49.8,0,1.6.12,2.41.36.81.24,1.45.56,1.94.96l-.42.65c-.52-.42-1.12-.73-1.81-.92-.69-.2-1.4-.3-2.14-.3-1.35,0-2.33.26-2.95.78s-.92,1.15-.92,1.9c0,.6.16,1.08.48,1.44.32.36.73.63,1.25.81.52.18,1.09.33,1.71.45.62.12,1.25.24,1.88.38.62.13,1.2.32,1.71.55s.93.56,1.25.97c.32.42.47.98.47,1.7,0,.67-.19,1.26-.56,1.79-.38.53-.92.93-1.65,1.21-.73.28-1.64.42-2.74.42Z"/>
    <path class="st1" d="M215.7,26.97v-.73h7.55v.73h-7.55ZM221.45,39.3c-1.07,0-1.88-.3-2.45-.9-.57-.6-.85-1.41-.85-2.42v-12.58h.83v12.45c0,.88.22,1.56.65,2.03s1.07.7,1.9.7,1.55-.26,2.1-.78l.42.6c-.32.3-.71.53-1.17.68-.47.15-.94.22-1.42.22Z"/>
    <path class="st1" d="M227.72,39.22v-12.98h.8v3.58l-.08-.23c.35-1.08.96-1.93,1.84-2.54.88-.61,1.97-.91,3.29-.91v.83h-.23c-1.5,0-2.67.48-3.52,1.42-.85.95-1.28,2.26-1.28,3.93v6.9h-.83Z"/>
    <path class="st1" d="M242.17,39.3c-1.28,0-2.42-.28-3.4-.84-.98-.56-1.76-1.34-2.33-2.34s-.85-2.13-.85-3.4.26-2.42.79-3.4c.53-.98,1.25-1.76,2.18-2.33.92-.57,1.97-.85,3.14-.85s2.19.28,3.11.83c.92.55,1.65,1.31,2.17,2.29.52.98.79,2.1.79,3.36v.22h-11.62v-.67h11.17l-.32.4c0-1.08-.23-2.05-.69-2.91-.46-.86-1.09-1.53-1.89-2.02s-1.71-.74-2.73-.74-1.92.25-2.72.74-1.43,1.17-1.89,2.02-.69,1.84-.69,2.94v.15c0,1.13.25,2.14.75,3.01s1.18,1.56,2.05,2.05c.87.49,1.86.74,2.98.74.85,0,1.65-.16,2.41-.47s1.39-.8,1.89-1.45l.53.55c-.58.7-1.3,1.23-2.14,1.59-.84.36-1.74.54-2.69.54Z"/>
    <path class="st1" d="M254.9,39.3c-.98,0-1.82-.15-2.51-.45s-1.22-.73-1.59-1.29c-.37-.56-.55-1.2-.55-1.91,0-.63.15-1.22.45-1.76.3-.54.8-.98,1.49-1.3.69-.32,1.62-.49,2.79-.49h5.02v.67h-5.02c-1.42,0-2.42.27-3.01.8s-.89,1.21-.89,2.02c0,.92.34,1.65,1.03,2.19.68.54,1.63.81,2.85.81s2.19-.27,2.98-.81c.78-.54,1.38-1.31,1.77-2.31l.28.55c-.33.98-.93,1.78-1.8,2.38-.87.6-1.96.9-3.28.9ZM259.72,39.22v-3.02l-.03-.45v-4.93c0-1.28-.34-2.26-1.02-2.93-.68-.67-1.68-1-2.98-1-.95,0-1.82.16-2.6.49-.78.32-1.46.75-2.03,1.26l-.45-.6c.62-.58,1.38-1.05,2.28-1.39.9-.34,1.84-.51,2.83-.51,1.55,0,2.74.4,3.56,1.19.83.79,1.24,1.95,1.24,3.49v8.4h-.8Z"/>
    <path class="st1" d="M265.92,39.22v-12.98h.8v3.62l-.1-.23c.38-1.07,1.03-1.92,1.92-2.55.9-.63,2.01-.95,3.33-.95s2.44.33,3.31,1c.88.67,1.42,1.67,1.64,3l-.22-.1c.33-1.15.97-2.09,1.92-2.81.95-.73,2.13-1.09,3.55-1.09,1.05,0,1.95.21,2.71.62.76.42,1.35,1.03,1.76,1.84.42.81.62,1.8.62,2.99v7.62h-.82v-7.58c0-1.55-.38-2.72-1.14-3.52-.76-.8-1.82-1.2-3.19-1.2-1.03,0-1.93.22-2.7.65-.77.43-1.35,1.05-1.76,1.85-.41.8-.61,1.73-.61,2.8v7h-.83v-7.58c0-1.55-.38-2.72-1.12-3.52-.75-.8-1.81-1.2-3.17-1.2-1.05,0-1.95.22-2.71.65-.76.43-1.34,1.05-1.75,1.85-.41.8-.61,1.73-.61,2.8v7h-.83Z"/>
  </g>
  <circle class="st1" cx="392.09" cy="29.26" r="5.11"/>
</svg>