<?xml version="1.0" encoding="UTF-8"?>
<svg id="Layer_1" xmlns="http://www.w3.org/2000/svg" version="1.1" viewBox="0 0 430 108">
  <!-- Generator: Adobe Illustrator 29.8.3, SVG Export Plug-In . SVG Version: 2.1.1 Build 3)  -->
  <defs>
    <style>
      .st0 {
        fill: #373932;
      }
    </style>
  </defs>
  <path class="st0" d="M28.67,61.54v-23.06h.66v23.06h-.66Z"/>
  <path class="st0" d="M38.92,61.54v-23.06h.56l17.26,22.3h-.36v-22.3h.66v23.06h-.56l-17.26-22.3h.36v22.3h-.66Z"/>
  <path class="st0" d="M80.65,61.54l10.71-23.06h.66l10.71,23.06h-.76l-10.44-22.53h.33l-10.44,22.53h-.76ZM84.18,54.58l.33-.63h14.33l.33.63h-14.99Z"/>
  <path class="st0" d="M116.43,61.63c-2.75,0-4.91-.81-6.51-2.44s-2.39-4.06-2.39-7.31v-13.41h.66v13.37c0,3.08.72,5.37,2.16,6.88,1.44,1.52,3.46,2.27,6.08,2.27s4.64-.76,6.08-2.27c1.44-1.51,2.16-3.81,2.16-6.88v-13.37h.66v13.41c0,3.25-.8,5.69-2.39,7.31s-3.76,2.44-6.51,2.44Z"/>
  <path class="st0" d="M134.71,61.54v-23.06h7.81c2.83,0,5.05.66,6.65,1.99,1.6,1.33,2.4,3.19,2.4,5.58,0,1.58-.36,2.94-1.09,4.07-.73,1.13-1.76,2-3.11,2.6-1.35.6-2.97.91-4.86.91h-7.44l.3-.3v8.2h-.66ZM135.37,53.27l-.3-.26h7.51c2.7,0,4.77-.61,6.19-1.83,1.43-1.22,2.14-2.93,2.14-5.12s-.71-3.93-2.14-5.14c-1.43-1.21-3.49-1.81-6.19-1.81h-7.51l.3-.26v14.43ZM151.08,61.54l-6.03-8.37h.82l6.03,8.37h-.82Z"/>
  <path class="st0" d="M155.04,61.54l10.71-23.06h.66l10.71,23.06h-.76l-10.44-22.53h.33l-10.44,22.53h-.76ZM158.56,54.58l.33-.63h14.33l.33.63h-14.99Z"/>
  <path class="st0" d="M205.73,61.54l-7.91-23.06h.72l7.71,22.53h-.36l7.91-22.53h.66l7.91,22.53h-.33l7.71-22.53h.69l-7.91,23.06h-.66l-7.81-22.33h.13l-7.81,22.33h-.66Z"/>
  <path class="st0" d="M236.63,61.54v-23.06h14.86v.63h-14.2v21.81h14.69v.63h-15.35ZM237.13,50.14v-.63h12.88v.63h-12.88Z"/>
  <path class="st0" d="M281.89,61.54v-22.43h-8.57v-.63h17.79v.63h-8.57v22.43h-.66Z"/>
  <path class="st0" d="M296.45,61.54v-23.06h7.81c2.83,0,5.05.66,6.65,1.99,1.6,1.33,2.4,3.19,2.4,5.58,0,1.58-.36,2.94-1.09,4.07-.72,1.13-1.76,2-3.11,2.6-1.35.6-2.97.91-4.86.91h-7.45l.3-.3v8.2h-.66ZM297.11,53.27l-.3-.26h7.51c2.7,0,4.77-.61,6.19-1.83s2.14-2.93,2.14-5.12-.71-3.93-2.14-5.14c-1.43-1.21-3.49-1.81-6.19-1.81h-7.51l.3-.26v14.43ZM312.83,61.54l-6.03-8.37h.82l6.03,8.37h-.82Z"/>
  <path class="st0" d="M316.78,61.54l10.71-23.06h.66l10.71,23.06h-.76l-10.44-22.53h.33l-10.44,22.53h-.76ZM320.3,54.58l.33-.63h14.33l.33.63h-14.99Z"/>
  <path class="st0" d="M344.35,61.54v-23.06h8.73c2.44,0,4.57.5,6.39,1.5,1.82,1,3.24,2.37,4.25,4.1,1.01,1.74,1.52,3.71,1.52,5.93s-.51,4.2-1.52,5.93c-1.01,1.74-2.43,3.1-4.25,4.1-1.82,1-3.95,1.5-6.39,1.5h-8.73ZM345.01,60.91h8c2.35,0,4.39-.47,6.13-1.42,1.73-.94,3.07-2.23,4.02-3.87.94-1.64,1.42-3.51,1.42-5.62s-.47-3.98-1.42-5.62c-.95-1.64-2.29-2.93-4.02-3.87-1.74-.94-3.78-1.42-6.13-1.42h-8v21.81Z"/>
  <path class="st0" d="M372.38,61.54v-23.06h14.86v.63h-14.2v21.81h14.69v.63h-15.35ZM372.88,50.14v-.63h12.88v.63h-12.88Z"/>
</svg>