<?xml version="1.0" encoding="UTF-8"?>
<svg id="Layer_1" xmlns="http://www.w3.org/2000/svg" version="1.1" viewBox="0 0 230 108">
  <!-- Generator: Adobe Illustrator 29.8.3, SVG Export Plug-In . SVG Version: 2.1.1 Build 3)  -->
  <defs>
    <style>
      .st0 {
        fill: none;
        stroke: #373932;
        stroke-miterlimit: 10;
      }

      .st1 {
        fill: #373932;
      }
    </style>
  </defs>
  <rect class="st0" x="10.04" y="27.43" width="209.93" height="53.14" rx="26.57" ry="26.57"/>
  <g>
    <path class="st1" d="M70.4,61.73v-12.92h.5v3.65l-.05-.08c.37-1.12,1.01-2,1.92-2.66.92-.66,2.05-.99,3.4-.99s2.43.34,3.3,1.01c.87.67,1.41,1.68,1.62,3.01l-.08-.02c.32-1.18.95-2.15,1.89-2.89.94-.74,2.13-1.11,3.56-1.11,1.03,0,1.92.2,2.67.61s1.33,1.01,1.74,1.81.61,1.78.61,2.95v7.62h-.5v-7.62c0-1.6-.4-2.82-1.19-3.65-.79-.83-1.9-1.25-3.31-1.25-1.1,0-2.05.23-2.84.69-.79.46-1.4,1.1-1.83,1.92-.42.83-.64,1.79-.64,2.89v7.03h-.5v-7.62c0-1.6-.4-2.82-1.19-3.65-.79-.83-1.9-1.25-3.31-1.25-1.1,0-2.05.23-2.84.69-.79.46-1.4,1.1-1.83,1.92-.42.83-.64,1.79-.64,2.89v7.03h-.5Z"/>
    <path class="st1" d="M100.43,61.8c-.97,0-1.79-.15-2.48-.45s-1.2-.73-1.56-1.28-.54-1.18-.54-1.9c0-.62.15-1.19.44-1.71.29-.53.77-.95,1.44-1.28.67-.32,1.58-.49,2.72-.49h5.18v.48h-5.2c-1.47,0-2.51.28-3.14.84-.62.56-.94,1.27-.94,2.14,0,.97.36,1.74,1.08,2.31.72.58,1.72.86,3,.86s2.28-.29,3.09-.86,1.42-1.39,1.84-2.44l.25.33c-.35,1.03-.96,1.87-1.84,2.5s-1.99.95-3.34.95ZM105.35,61.73v-8.45c0-1.35-.35-2.37-1.05-3.05s-1.72-1.03-3.05-1.03c-.97,0-1.85.17-2.65.5-.8.33-1.48.77-2.05,1.3l-.35-.35c.62-.58,1.37-1.05,2.25-1.4.88-.35,1.81-.52,2.78-.52,1.5,0,2.65.38,3.44,1.15.79.77,1.19,1.89,1.19,3.38v8.48h-.5Z"/>
    <path class="st1" d="M111.45,61.73v-12.92h.5v3.67l-.05-.08c.38-1.13,1.04-2.03,1.97-2.69s2.1-.99,3.5-.99c1.07,0,1.98.2,2.75.61s1.36,1.01,1.79,1.81c.42.8.64,1.78.64,2.95v7.62h-.5v-7.62c0-1.6-.41-2.82-1.22-3.65-.82-.83-1.96-1.25-3.42-1.25-1.13,0-2.11.23-2.92.69-.82.46-1.44,1.1-1.88,1.92-.43.83-.65,1.79-.65,2.89v7.03h-.5Z"/>
    <path class="st1" d="M133.3,61.8c-1.1,0-2.05-.2-2.84-.61-.79-.41-1.4-1.01-1.83-1.81-.42-.8-.64-1.78-.64-2.95v-7.62h.5v7.62c0,1.6.42,2.82,1.25,3.65s2.01,1.25,3.53,1.25c1.08,0,2.02-.23,2.8-.69.78-.46,1.38-1.1,1.8-1.94.42-.83.62-1.79.62-2.88v-7.02h.5v12.92h-.5v-3.65l.05.08c-.37,1.12-1,2-1.9,2.66-.9.66-2.02.99-3.35.99Z"/>
    <path class="st1" d="M148.07,61.8c-.97,0-1.79-.15-2.48-.45s-1.2-.73-1.56-1.28-.54-1.18-.54-1.9c0-.62.15-1.19.44-1.71.29-.53.77-.95,1.44-1.28.67-.32,1.58-.49,2.72-.49h5.18v.48h-5.2c-1.47,0-2.51.28-3.14.84-.62.56-.94,1.27-.94,2.14,0,.97.36,1.74,1.08,2.31.72.58,1.72.86,3,.86s2.28-.29,3.09-.86,1.42-1.39,1.84-2.44l.25.33c-.35,1.03-.96,1.87-1.84,2.5s-1.99.95-3.34.95ZM153,61.73v-8.45c0-1.35-.35-2.37-1.05-3.05s-1.72-1.03-3.05-1.03c-.97,0-1.85.17-2.65.5-.8.33-1.48.77-2.05,1.3l-.35-.35c.62-.58,1.37-1.05,2.25-1.4.88-.35,1.81-.52,2.78-.52,1.5,0,2.65.38,3.44,1.15.79.77,1.19,1.89,1.19,3.38v8.48h-.5Z"/>
    <path class="st1" d="M159.1,61.73v-18.55h.5v18.55h-.5Z"/>
  </g>
  <circle class="st1" cx="194.31" cy="54" r="5.12"/>
</svg>