<?xml version="1.0" encoding="UTF-8"?>
<svg id="Layer_1" xmlns="http://www.w3.org/2000/svg" version="1.1" viewBox="0 0 220 60">
  <!-- Generator: Adobe Illustrator 29.8.3, SVG Export Plug-In . SVG Version: 2.1.1 Build 3)  -->
  <defs>
    <style>
      .st0 {
        fill: none;
        stroke: #373932;
        stroke-miterlimit: 10;
      }

      .st1 {
        fill: #373932;
      }
    </style>
  </defs>
  <rect class="st0" x="5.04" y="3.43" width="209.93" height="53.14" rx="26.57" ry="26.57"/>
  <g>
    <path class="st1" d="M91.79,38.13v-18.55h.83v10.05l-.25,1.98.23,1.97v4.55h-.8ZM98.19,38.21c-1.17,0-2.22-.27-3.15-.81-.93-.54-1.67-1.31-2.21-2.31-.54-1-.81-2.15-.81-3.45s.27-2.47.81-3.45c.54-.98,1.28-1.75,2.21-2.3.93-.55,1.98-.83,3.15-.83s2.28.28,3.24.85c.96.57,1.72,1.34,2.27,2.31.56.98.84,2.11.84,3.41s-.28,2.42-.84,3.41c-.56.99-1.32,1.77-2.27,2.32-.96.56-2.04.84-3.24.84ZM98.16,37.46c1.05,0,2-.25,2.84-.74s1.5-1.18,1.99-2.06c.48-.88.73-1.89.73-3.03s-.24-2.16-.73-3.04c-.48-.88-1.15-1.55-1.99-2.04-.84-.48-1.79-.72-2.84-.72s-2.02.24-2.85.72c-.83.48-1.49,1.16-1.97,2.04-.48.88-.73,1.89-.73,3.04s.24,2.14.73,3.03c.48.88,1.14,1.57,1.97,2.06s1.78.74,2.85.74Z"/>
    <path class="st1" d="M113.51,38.21c-1.22,0-2.3-.28-3.26-.84-.96-.56-1.72-1.33-2.27-2.32-.56-.99-.84-2.13-.84-3.41s.28-2.42.84-3.4c.56-.98,1.32-1.76,2.27-2.33.96-.57,2.05-.85,3.26-.85s2.31.28,3.28.84c.97.56,1.72,1.33,2.27,2.31s.83,2.12.83,3.42-.28,2.4-.83,3.4-1.31,1.78-2.27,2.34c-.97.56-2.06.84-3.28.84ZM113.51,37.46c1.07,0,2.02-.25,2.86-.74s1.5-1.18,1.98-2.06c.47-.88.71-1.89.71-3.03s-.24-2.16-.71-3.04c-.48-.88-1.13-1.55-1.98-2.04-.84-.48-1.79-.72-2.84-.72s-2.02.24-2.85.72c-.83.48-1.5,1.16-1.99,2.04s-.74,1.89-.74,3.04.25,2.14.74,3.03,1.15,1.57,1.99,2.06c.83.49,1.78.74,2.83.74Z"/>
    <path class="st1" d="M121.74,25.88v-.73h7.55v.73h-7.55ZM127.49,38.21c-1.07,0-1.88-.3-2.45-.9-.57-.6-.85-1.41-.85-2.42v-12.58h.83v12.45c0,.88.22,1.56.65,2.03.43.47,1.07.7,1.9.7s1.55-.26,2.1-.78l.42.6c-.32.3-.71.53-1.17.68-.47.15-.94.22-1.43.22Z"/>
  </g>
  <circle class="st1" cx="187.61" cy="30" r="5.12"/>
</svg>