<?xml version="1.0" encoding="UTF-8"?>
<svg id="Layer_1" xmlns="http://www.w3.org/2000/svg" version="1.1" viewBox="0 0 220 60">
  <!-- Generator: Adobe Illustrator 29.8.3, SVG Export Plug-In . SVG Version: 2.1.1 Build 3)  -->
  <defs>
    <style>
      .st0 {
        fill: none;
        stroke: #373932;
        stroke-miterlimit: 10;
      }

      .st1 {
        fill: #373932;
      }
    </style>
  </defs>
  <rect class="st0" x="5.34" y="3.09" width="209.93" height="53.14" rx="26.57" ry="26.57"/>
  <g>
    <path class="st1" d="M55.14,24.93v-.47h7.38v.47h-7.38ZM60.77,37.46c-1.02,0-1.79-.29-2.33-.88-.53-.58-.8-1.35-.8-2.3v-12.65h.5v12.52c0,.92.22,1.62.67,2.1s1.11.72,1.98.72,1.58-.27,2.15-.8l.35.35c-.3.32-.68.55-1.14.7-.46.15-.92.23-1.39.23Z"/>
    <path class="st1" d="M71.56,37.46c-1.25,0-2.36-.28-3.32-.84-.97-.56-1.73-1.33-2.29-2.33-.56-.99-.84-2.12-.84-3.39s.26-2.41.77-3.39c.52-.98,1.23-1.74,2.14-2.3.91-.56,1.93-.84,3.06-.84s2.15.27,3.06.81c.91.54,1.62,1.3,2.15,2.26s.79,2.07.79,3.32v.12h-11.7v-.48h11.42l-.2.38c0-1.13-.24-2.15-.73-3.05s-1.14-1.61-1.96-2.12c-.83-.52-1.77-.77-2.84-.77s-1.99.26-2.83.77c-.83.52-1.49,1.23-1.96,2.12s-.71,1.92-.71,3.05v.1c0,1.18.26,2.23.77,3.15.52.92,1.23,1.63,2.12,2.15s1.92.77,3.07.77c.87,0,1.69-.17,2.46-.5.77-.33,1.42-.83,1.94-1.5l.35.35c-.57.7-1.27,1.23-2.1,1.59-.83.36-1.72.54-2.65.54Z"/>
    <path class="st1" d="M81.31,37.38v-18.55h.5v18.55h-.5Z"/>
    <path class="st1" d="M92.49,37.46c-1.25,0-2.36-.28-3.32-.84-.97-.56-1.73-1.33-2.29-2.33-.56-.99-.84-2.12-.84-3.39s.26-2.41.77-3.39c.52-.98,1.23-1.74,2.14-2.3.91-.56,1.93-.84,3.06-.84s2.15.27,3.06.81c.91.54,1.62,1.3,2.15,2.26s.79,2.07.79,3.32v.12h-11.7v-.48h11.42l-.2.38c0-1.13-.24-2.15-.73-3.05s-1.14-1.61-1.96-2.12c-.83-.52-1.77-.77-2.84-.77s-1.99.26-2.83.77c-.83.52-1.49,1.23-1.96,2.12s-.71,1.92-.71,3.05v.1c0,1.18.26,2.23.77,3.15.52.92,1.23,1.63,2.12,2.15s1.92.77,3.07.77c.87,0,1.69-.17,2.46-.5.77-.33,1.42-.83,1.94-1.5l.35.35c-.57.7-1.27,1.23-2.1,1.59-.83.36-1.72.54-2.65.54Z"/>
    <path class="st1" d="M107.06,36.96c-1.2,0-2.28-.27-3.24-.81-.96-.54-1.72-1.29-2.27-2.24-.56-.95-.84-2.03-.84-3.25s.28-2.32.84-3.26c.56-.94,1.32-1.68,2.27-2.21.96-.53,2.04-.8,3.24-.8s2.3.27,3.24.8c.94.53,1.68,1.27,2.22,2.21s.81,2.03.81,3.26-.27,2.3-.81,3.25c-.54.95-1.28,1.7-2.22,2.24-.94.54-2.02.81-3.24.81ZM107.06,36.48c1.13,0,2.14-.25,3.01-.74.88-.49,1.57-1.18,2.07-2.06.51-.88.76-1.89.76-3.02s-.25-2.16-.76-3.02c-.51-.87-1.2-1.55-2.07-2.04-.88-.49-1.88-.74-3.01-.74s-2.12.25-3,.74c-.88.49-1.58,1.17-2.09,2.04-.51.87-.76,1.88-.76,3.02s.25,2.14.76,3.02c.51.88,1.2,1.57,2.09,2.06.88.49,1.88.74,3,.74ZM107.44,42.31c-1.17,0-2.26-.19-3.28-.58s-1.83-.91-2.45-1.58l.35-.35c.67.65,1.46,1.15,2.38,1.5.92.35,1.92.53,3,.53,1.87,0,3.25-.44,4.14-1.33.89-.88,1.34-2.28,1.34-4.2v-4.15l.25-1.5-.25-1.5v-4.7h.5v11.77c0,2.08-.5,3.62-1.49,4.6-.99.98-2.49,1.47-4.49,1.47Z"/>
    <path class="st1" d="M119.16,37.38v-12.92h.5v3.57l-.05-.07c.35-1.13.96-2.01,1.84-2.64s1.97-.94,3.29-.94v.5h-.15c-1.55,0-2.76.5-3.62,1.49-.87.99-1.3,2.35-1.3,4.06v6.95h-.5Z"/>
    <path class="st1" d="M131.19,37.46c-.97,0-1.79-.15-2.48-.45s-1.2-.73-1.56-1.28-.54-1.18-.54-1.9c0-.62.15-1.19.44-1.71.29-.53.77-.95,1.44-1.27.67-.32,1.58-.49,2.72-.49h5.17v.48h-5.2c-1.47,0-2.51.28-3.14.84-.62.56-.94,1.27-.94,2.14,0,.97.36,1.74,1.08,2.31.72.58,1.72.86,3,.86s2.28-.29,3.09-.86,1.42-1.39,1.84-2.44l.25.33c-.35,1.03-.96,1.87-1.84,2.5s-1.99.95-3.34.95ZM136.11,37.38v-8.45c0-1.35-.35-2.37-1.05-3.05-.7-.68-1.72-1.02-3.05-1.02-.97,0-1.85.17-2.65.5s-1.48.77-2.05,1.3l-.35-.35c.62-.58,1.37-1.05,2.25-1.4s1.81-.52,2.78-.52c1.5,0,2.65.38,3.44,1.15.79.77,1.19,1.89,1.19,3.38v8.48h-.5Z"/>
    <path class="st1" d="M142.21,37.38v-12.92h.5v3.65l-.05-.08c.37-1.12,1.01-2,1.92-2.66.92-.66,2.05-.99,3.4-.99s2.43.34,3.3,1.01c.87.67,1.41,1.68,1.62,3.01l-.08-.02c.32-1.18.95-2.15,1.89-2.89.94-.74,2.13-1.11,3.56-1.11,1.03,0,1.92.2,2.67.61.75.41,1.33,1.01,1.74,1.81.41.8.61,1.78.61,2.95v7.62h-.5v-7.62c0-1.6-.4-2.82-1.19-3.65s-1.9-1.25-3.31-1.25c-1.1,0-2.05.23-2.84.69-.79.46-1.4,1.1-1.83,1.92-.42.83-.64,1.79-.64,2.89v7.02h-.5v-7.62c0-1.6-.4-2.82-1.19-3.65-.79-.83-1.9-1.25-3.31-1.25-1.1,0-2.05.23-2.84.69-.79.46-1.4,1.1-1.82,1.92-.43.83-.64,1.79-.64,2.89v7.02h-.5Z"/>
  </g>
  <circle class="st1" cx="189.91" cy="29.66" r="5.12"/>
</svg>