<?xml version="1.0" encoding="UTF-8"?>
<svg id="Layer_1" xmlns="http://www.w3.org/2000/svg" version="1.1" viewBox="0 0 230 108">
  <!-- Generator: Adobe Illustrator 29.8.3, SVG Export Plug-In . SVG Version: 2.1.1 Build 3)  -->
  <defs>
    <style>
      .st0 {
        fill: none;
        stroke: #373932;
        stroke-miterlimit: 10;
      }

      .st1 {
        fill: #373932;
      }
    </style>
  </defs>
  <rect class="st0" x="9.57" y="27.79" width="209.93" height="53.14" rx="26.57" ry="26.57"/>
  <g>
    <path class="st1" d="M98.4,62.16v-18.55h.5v10.3l-.25,1.75.25,1.75v4.75h-.5ZM104.68,62.24c-1.18,0-2.24-.28-3.17-.84-.93-.56-1.67-1.33-2.21-2.32-.54-.99-.81-2.12-.81-3.39s.27-2.41.81-3.39c.54-.97,1.28-1.74,2.21-2.3.93-.56,1.99-.84,3.17-.84s2.25.28,3.2.84c.95.56,1.7,1.33,2.25,2.3.55.97.82,2.1.82,3.39s-.27,2.4-.82,3.39c-.55.99-1.3,1.77-2.25,2.32-.95.56-2.02.84-3.2.84ZM104.68,61.76c1.1,0,2.09-.26,2.96-.78s1.56-1.23,2.06-2.15c.5-.92.75-1.97.75-3.15s-.25-2.25-.75-3.16c-.5-.91-1.19-1.62-2.06-2.12-.88-.51-1.86-.76-2.96-.76s-2.09.25-2.96.76c-.88.51-1.56,1.22-2.06,2.12-.5.91-.75,1.96-.75,3.16s.25,2.23.75,3.15c.5.92,1.19,1.63,2.06,2.15s1.86.78,2.96.78Z"/>
    <path class="st1" d="M119.93,62.24c-1.2,0-2.27-.28-3.21-.84-.94-.56-1.69-1.33-2.24-2.32-.55-.99-.82-2.12-.82-3.39s.27-2.41.82-3.39c.55-.97,1.3-1.74,2.24-2.3.94-.56,2.01-.84,3.21-.84s2.28.28,3.23.84c.95.56,1.7,1.33,2.24,2.3.54.97.81,2.1.81,3.39s-.27,2.4-.81,3.39c-.54.99-1.29,1.77-2.24,2.32-.95.56-2.03.84-3.23.84ZM119.93,61.76c1.1,0,2.09-.26,2.96-.78s1.56-1.23,2.06-2.15c.5-.92.75-1.97.75-3.15s-.25-2.25-.75-3.16c-.5-.91-1.19-1.62-2.06-2.12-.88-.51-1.86-.76-2.96-.76s-2.08.25-2.95.76c-.87.51-1.55,1.22-2.06,2.12-.51.91-.76,1.96-.76,3.16s.25,2.23.76,3.15c.51.92,1.2,1.63,2.06,2.15.87.52,1.85.78,2.95.78Z"/>
    <path class="st1" d="M128.13,49.71v-.47h7.38v.47h-7.38ZM133.75,62.24c-1.02,0-1.79-.29-2.33-.88-.53-.58-.8-1.35-.8-2.3v-12.65h.5v12.53c0,.92.22,1.62.67,2.1s1.11.73,1.97.73,1.58-.27,2.15-.8l.35.35c-.3.32-.68.55-1.14.7-.46.15-.92.22-1.39.22Z"/>
  </g>
  <circle class="st1" cx="192.14" cy="54.36" r="5.12"/>
</svg>