<?xml version="1.0" encoding="UTF-8"?>
<svg id="Layer_1" xmlns="http://www.w3.org/2000/svg" version="1.1" viewBox="0 0 430 108">
  <!-- Generator: Adobe Illustrator 29.8.3, SVG Export Plug-In . SVG Version: 2.1.1 Build 3)  -->
  <defs>
    <style>
      .st0 {
        fill: none;
        stroke: #373932;
        stroke-miterlimit: 10;
      }

      .st1 {
        fill: #373932;
      }
    </style>
  </defs>
  <rect class="st0" x="6.81" y="28.5" width="417.11" height="53" rx="26.49" ry="26.49"/>
  <g>
    <path class="st1" d="M143.84,64.21c-1.05,0-2.03-.17-2.95-.5-.92-.33-1.62-.76-2.1-1.28l.3-.4c.47.45,1.12.85,1.95,1.19.83.34,1.77.51,2.8.51,1.53,0,2.63-.27,3.3-.8s1-1.22,1-2.08c0-.62-.16-1.1-.48-1.46s-.74-.63-1.26-.83-1.1-.35-1.74-.46c-.63-.12-1.27-.24-1.9-.38-.63-.13-1.21-.32-1.74-.56-.52-.24-.95-.58-1.26-1-.32-.42-.48-1-.48-1.71,0-.58.16-1.12.48-1.62.32-.5.81-.91,1.49-1.23.67-.32,1.55-.47,2.61-.47.8,0,1.59.12,2.38.36.78.24,1.42.56,1.9.96l-.3.4c-.52-.42-1.12-.73-1.83-.94-.7-.21-1.42-.31-2.15-.31-1.42,0-2.45.28-3.09.83-.64.55-.96,1.22-.96,2.03,0,.63.16,1.14.47,1.51s.74.66,1.26.86c.52.2,1.1.36,1.74.47.63.12,1.26.24,1.89.38.62.13,1.2.32,1.73.55s.95.55,1.26.96.48.96.48,1.66c0,.65-.17,1.23-.52,1.74-.35.51-.88.9-1.59,1.19-.71.28-1.6.43-2.69.43Z"/>
    <path class="st1" d="M152.44,64.14v-18.55h.5v9.3l-.05-.08c.38-1.13,1.04-2.03,1.97-2.69s2.1-.99,3.5-.99c1.07,0,1.98.2,2.75.61s1.36,1.01,1.79,1.81c.43.8.64,1.78.64,2.95v7.62h-.5v-7.62c0-1.6-.41-2.82-1.23-3.65-.82-.83-1.96-1.25-3.42-1.25-1.13,0-2.11.23-2.93.69-.82.46-1.44,1.1-1.88,1.92-.43.83-.65,1.79-.65,2.89v7.03h-.5Z"/>
    <path class="st1" d="M169.14,64.14v-12.92h.5v3.57l-.05-.07c.35-1.13.96-2.01,1.84-2.64s1.97-.94,3.29-.94v.5h-.15c-1.55,0-2.76.5-3.62,1.49-.87.99-1.3,2.35-1.3,4.06v6.95h-.5Z"/>
    <path class="st1" d="M183.27,64.21c-1.25,0-2.36-.28-3.32-.84-.97-.56-1.73-1.33-2.29-2.33-.56-.99-.84-2.12-.84-3.39s.26-2.41.77-3.39c.52-.98,1.23-1.74,2.14-2.3.91-.56,1.93-.84,3.06-.84s2.15.27,3.06.81c.91.54,1.62,1.3,2.15,2.26s.79,2.07.79,3.32v.12h-11.7v-.47h11.42l-.2.38c0-1.13-.24-2.15-.73-3.05-.48-.9-1.14-1.61-1.96-2.12-.83-.52-1.77-.78-2.84-.78s-1.99.26-2.83.78c-.83.52-1.49,1.22-1.96,2.12-.48.9-.71,1.92-.71,3.05v.1c0,1.18.26,2.23.77,3.15.52.92,1.23,1.63,2.12,2.15s1.92.77,3.07.77c.87,0,1.69-.17,2.46-.5.77-.33,1.42-.83,1.94-1.5l.35.35c-.57.7-1.27,1.23-2.1,1.59-.83.36-1.72.54-2.65.54Z"/>
    <path class="st1" d="M197.77,64.21c-1.18,0-2.25-.28-3.2-.84-.95-.56-1.7-1.33-2.25-2.33-.55-.99-.82-2.12-.82-3.39s.27-2.41.82-3.39c.55-.98,1.3-1.74,2.25-2.3.95-.56,2.02-.84,3.2-.84s2.24.28,3.17.84c.93.56,1.67,1.33,2.21,2.3.54.97.81,2.1.81,3.39s-.27,2.4-.81,3.39c-.54.99-1.28,1.77-2.21,2.33s-1.99.84-3.17.84ZM197.77,63.74c1.1,0,2.09-.26,2.96-.77s1.56-1.23,2.06-2.15c.5-.92.75-1.97.75-3.15s-.25-2.25-.75-3.16-1.19-1.62-2.06-2.12c-.88-.51-1.86-.76-2.96-.76s-2.08.25-2.95.76c-.87.51-1.55,1.22-2.06,2.12s-.76,1.96-.76,3.16.25,2.23.76,3.15c.51.92,1.2,1.63,2.06,2.15s1.85.77,2.95.77ZM203.54,64.14v-4.75l.25-1.75-.25-1.75v-10.3h.5v18.55h-.5Z"/>
    <path class="st1" d="M212.77,64.21c-1.05,0-2.03-.17-2.95-.5-.92-.33-1.62-.76-2.1-1.28l.3-.4c.47.45,1.12.85,1.95,1.19.83.34,1.77.51,2.8.51,1.53,0,2.63-.27,3.3-.8.67-.53,1-1.22,1-2.08,0-.62-.16-1.1-.48-1.46s-.74-.63-1.26-.83-1.1-.35-1.74-.46c-.63-.12-1.27-.24-1.9-.38-.63-.13-1.21-.32-1.74-.56-.52-.24-.95-.58-1.26-1-.32-.42-.48-1-.48-1.71,0-.58.16-1.12.48-1.62.32-.5.81-.91,1.49-1.23.67-.32,1.55-.47,2.61-.47.8,0,1.59.12,2.38.36.78.24,1.42.56,1.9.96l-.3.4c-.52-.42-1.12-.73-1.83-.94-.7-.21-1.42-.31-2.15-.31-1.42,0-2.45.28-3.09.83-.64.55-.96,1.22-.96,2.03,0,.63.16,1.14.47,1.51s.74.66,1.26.86c.52.2,1.1.36,1.74.47.63.12,1.26.24,1.89.38.62.13,1.2.32,1.73.55.52.23.95.55,1.26.96s.48.96.48,1.66c0,.65-.17,1.23-.53,1.74-.35.51-.88.9-1.59,1.19-.71.28-1.6.43-2.69.43Z"/>
    <path class="st1" d="M219.07,51.69v-.47h7.38v.47h-7.38ZM224.69,64.21c-1.02,0-1.79-.29-2.33-.88-.53-.58-.8-1.35-.8-2.3v-12.65h.5v12.52c0,.92.22,1.62.67,2.1s1.11.72,1.98.72,1.58-.27,2.15-.8l.35.35c-.3.32-.68.55-1.14.7-.46.15-.92.23-1.39.23Z"/>
    <path class="st1" d="M231.07,64.14v-12.92h.5v3.57l-.05-.07c.35-1.13.96-2.01,1.84-2.64s1.97-.94,3.29-.94v.5h-.15c-1.55,0-2.76.5-3.62,1.49-.87.99-1.3,2.35-1.3,4.06v6.95h-.5Z"/>
    <path class="st1" d="M245.19,64.21c-1.25,0-2.36-.28-3.32-.84-.97-.56-1.73-1.33-2.29-2.33-.56-.99-.84-2.12-.84-3.39s.26-2.41.77-3.39c.52-.98,1.23-1.74,2.14-2.3.91-.56,1.93-.84,3.06-.84s2.15.27,3.06.81,1.62,1.3,2.15,2.26c.52.97.79,2.07.79,3.32v.12h-11.7v-.47h11.42l-.2.38c0-1.13-.24-2.15-.73-3.05-.48-.9-1.14-1.61-1.96-2.12-.83-.52-1.77-.78-2.84-.78s-1.99.26-2.83.78-1.49,1.22-1.96,2.12c-.48.9-.71,1.92-.71,3.05v.1c0,1.18.26,2.23.78,3.15.52.92,1.22,1.63,2.12,2.15.9.52,1.92.77,3.07.77.87,0,1.69-.17,2.46-.5.78-.33,1.42-.83,1.94-1.5l.35.35c-.57.7-1.27,1.23-2.1,1.59-.83.36-1.72.54-2.65.54Z"/>
    <path class="st1" d="M257.89,64.21c-.97,0-1.79-.15-2.47-.45-.68-.3-1.21-.73-1.56-1.28-.36-.55-.54-1.18-.54-1.9,0-.62.15-1.19.44-1.71s.77-.95,1.44-1.28c.67-.32,1.58-.49,2.73-.49h5.17v.48h-5.2c-1.47,0-2.51.28-3.14.84-.62.56-.94,1.27-.94,2.14,0,.97.36,1.74,1.08,2.31s1.72.86,3,.86,2.28-.29,3.09-.86c.81-.58,1.42-1.39,1.84-2.44l.25.33c-.35,1.03-.96,1.87-1.84,2.5s-1.99.95-3.34.95ZM262.82,64.14v-8.45c0-1.35-.35-2.37-1.05-3.05s-1.72-1.03-3.05-1.03c-.97,0-1.85.17-2.65.5-.8.33-1.48.77-2.05,1.3l-.35-.35c.62-.58,1.37-1.05,2.25-1.4.88-.35,1.81-.52,2.77-.52,1.5,0,2.65.38,3.44,1.15.79.77,1.19,1.89,1.19,3.38v8.48h-.5Z"/>
    <path class="st1" d="M268.92,64.14v-12.92h.5v3.65l-.05-.08c.37-1.12,1.01-2,1.92-2.66s2.05-.99,3.4-.99,2.43.34,3.3,1.01c.87.67,1.41,1.68,1.62,3.01l-.08-.02c.32-1.18.95-2.15,1.89-2.89.94-.74,2.13-1.11,3.56-1.11,1.03,0,1.92.2,2.67.61s1.33,1.01,1.74,1.81.61,1.78.61,2.95v7.62h-.5v-7.62c0-1.6-.4-2.82-1.19-3.65-.79-.83-1.9-1.25-3.31-1.25-1.1,0-2.05.23-2.84.69-.79.46-1.4,1.1-1.83,1.92-.42.83-.64,1.79-.64,2.89v7.03h-.5v-7.62c0-1.6-.4-2.82-1.19-3.65-.79-.83-1.9-1.25-3.31-1.25-1.1,0-2.05.23-2.84.69-.79.46-1.4,1.1-1.83,1.92-.42.83-.64,1.79-.64,2.89v7.03h-.5Z"/>
  </g>
  <circle class="st1" cx="395.58" cy="54.18" r="5.11"/>
</svg>